<svg width="267" height="190" viewBox="0 0 267 190" fill="none" xmlns="http://www.w3.org/2000/svg">
<path d="M262.685 97.506L260.369 96.0416C252.497 88.1817 241.536 84.775 226.871 85.6288C214.665 86.379 204.987 91.211 197.592 95.7063C197.592 95.6005 197.578 95.4812 197.578 95.3754C197.66 91.3703 197.95 87.372 198.447 83.3969C198.866 79.3015 199.306 75.1446 199.306 71.2121C199.306 67.1947 198.851 63.3844 197.468 60.1293C197.297 59.7201 197.004 59.3734 196.629 59.136C196.254 58.8986 195.815 58.7821 195.372 58.8022C191.433 58.8847 183.727 61.5779 181.865 63.2141L180.85 65.4363C180.79 69.798 179.825 81.9828 178.851 83.4562C178.892 83.4059 178.337 84.9348 178.337 84.9348C176.669 102.326 176.613 117.596 178.171 130.745C178.346 132.062 180.875 134.032 182.827 134.748C184.978 135.543 191.683 133.752 195.549 132.292C195.498 132.306 197.001 132.063 197.001 132.063C198.223 131.93 198.941 130.91 198.885 129.512C198.867 129.48 198.982 125.738 198.982 125.738C201.772 114.402 213.068 100.882 226.432 98.8474C233.991 97.647 239.949 99.5818 244.663 104.71C245.306 105.642 246.675 113.796 241.703 123.165C237.994 130.107 230.577 135.956 220.826 139.611C211.603 143.118 201.442 144.523 188.896 144.096C188.381 143.756 177.158 136.167 177.158 136.167C167.204 129.19 154.847 120.502 143.647 116.26C141.68 115.51 138.151 112.578 136.027 110.833L134.87 109.872C128.403 104.695 116.11 96.5067 106.234 89.9372C106.234 89.9372 101.777 86.9484 100.912 86.379C100.926 86.0114 100.93 85.2634 100.93 85.2634C101.215 84.9468 107.419 81.2281 107.419 81.2281C116.11 76.1544 120.122 73.6615 120.972 72.3757C120.797 72.582 122.125 71.696 122.125 71.696C122.2 71.6547 143.666 59.5246 143.666 59.5246C164.337 48.1755 187.752 35.293 200.063 22.571C200.076 22.553 200.663 20.6287 200.663 20.6287L200.934 18.8935C201.741 16.5629 201.804 14.0397 201.114 11.672C201.009 11.2734 200.798 10.9106 200.503 10.622C200.209 10.3335 199.842 10.1299 199.441 10.0328C189.841 9.07782 177.451 14.8259 166.173 25.3948C164.096 27.3054 161.758 28.9128 159.229 30.1691L157.51 31.1331C145.075 38.194 117.068 55.562 102.404 64.9374C103.36 49.1763 106.282 26.7767 109.872 8.09504L109.467 5.86393C109.426 5.78891 107.95 3.04091 107.95 3.04091L106.81 1.02512L106.484 0.938102C103.561 -0.545054 101.166 0.0610934 99.4112 0.492461L96.4825 1.58027L92.5775 2.9899C92.2101 3.05621 91.8668 3.21861 91.5827 3.46057C91.2986 3.70252 91.0837 4.01537 90.96 4.36728C83.9558 21.2717 78.1186 49.084 76.7316 71.3329C66.001 64.5818 54.8939 58.4474 43.4643 52.9596L43.2893 52.8583L42.5383 52.6933C40.2539 52.3992 37.4649 50.7232 34.7945 49.1073C34.5144 48.9422 29.4725 45.6638 29.4725 45.6638L21.3336 40.4484C21.4027 40.5084 19.1964 39.9668 19.1964 39.9668C15.6992 40.5669 8.9984 45.0682 7.00837 48.1388C6.75949 48.5279 6.62905 48.9809 6.63289 49.4426C6.67343 50.0974 6.79966 50.7441 7.00837 51.3661L7.36658 53.0233L7.74806 54.0151C11.653 58.0092 21.4845 64.6568 31.1171 69.8407L42.3063 75.7583L59.4071 85.1059C59.4071 85.1809 62.3253 87.415 62.3253 87.415L64.3378 88.5718C64.3378 88.5718 64.5721 88.7099 64.7005 88.8014C60.1415 91.8412 33.5787 109.563 33.5787 109.563L17.2078 120.393C15.6639 121.459 9.20191 124.346 7.77735 124.92C4.23434 126.357 1.55043 128.57 0.433759 130.98L-0.0078125 131.922L0.433759 132.55L1.6841 133.492C1.62928 133.492 3.36173 134.589 3.36173 134.589L5.16778 135.824C5.20909 135.842 6.86794 136.1 6.86794 136.1C9.74936 136.21 14.002 134.566 21.9787 131.081C29.2907 127.845 49.1633 115.867 57.6686 110.751L61.2942 108.58C62.7961 108.699 64.4377 107.437 65.9126 106.329C68.306 104.531 70.8759 102.981 73.5828 101.701C73.6519 101.678 74.9383 100.958 76.1609 100.283C76.1519 100.658 76.1428 101.251 76.1428 101.251C76.5183 127.228 78.009 146.097 80.8491 160.651L80.8859 160.903L81.166 161.486C82.5725 163.538 84.1578 169.699 85.5688 175.117L88.8092 185.957C88.8843 186.09 89.7194 186.971 89.7194 186.971C91.5667 188.225 97.2057 190.391 100.96 189.937L101.903 189.835L102.495 188.508C102.802 186.874 102.947 185.213 102.927 183.55C102.927 181.567 102.777 179.381 102.606 176.7L102.348 172.799C101.158 154.673 99.9722 128.49 99.9722 111.085V109.704C103.06 111.636 116.54 120.125 116.54 120.125C139.49 135.01 174.165 157.474 195.112 163.412C195.634 163.579 196.192 163.602 196.726 163.48C197.26 163.358 197.752 163.095 198.15 162.719C198.187 162.682 201.379 160.653 201.379 160.653L201.98 160.396C203.181 159.835 203.993 157.811 204.135 155.612C221.791 154.73 246.42 147.931 259.601 131.376C264.321 125.386 266.921 118.003 266.995 110.38C266.995 104.862 265.465 100.102 262.685 97.4977" fill="#AEAEAE"/>
</svg>
