<svg width="831" height="314" viewBox="0 0 831 314" fill="none" xmlns="http://www.w3.org/2000/svg">
<path d="M383.5 300V257.5C383.5 250.594 389.094 245 396 245H397.25C404.844 245 411 251.156 411 258.75L418.5 270L434.6 266.781C439.206 265.863 443.5 269.381 443.5 274.081C443.5 277.55 441.106 280.556 437.731 281.331L415.594 286.438C412.781 287.088 409.85 286.069 408.05 283.813L400.994 274.994" stroke="#FDBE12" stroke-width="3" stroke-linecap="round" stroke-linejoin="round"/>
<path d="M411 286.05V300" stroke="#FDBE12" stroke-width="3" stroke-linecap="round" stroke-linejoin="round"/>
<path d="M406 238.333H401" stroke="#FDBE12" stroke-width="3" stroke-linecap="round" stroke-linejoin="round"/>
<path d="M403.5 244.583C403.5 242.133 403.5 238.333 406 238.333C408.5 238.333 415.167 237.083 413.037 218.333" stroke="#FDBE12" stroke-width="3" stroke-linecap="round" stroke-linejoin="round"/>
<path d="M406 218.333H411C413.762 218.333 416 216.096 416 213.333C416 209.189 412.644 205.833 408.5 205.833H398.5C388.5 205.833 383.5 212.552 383.5 220.833C383.5 235.833 388.5 233.333 388.5 238.333V246.666" stroke="#FDBE12" stroke-width="3" stroke-linecap="round" stroke-linejoin="round"/>
<path d="M438.55 267.031L451 257.5L461.694 236.119C462.525 234.456 461.319 232.5 459.456 232.5H427.25" stroke="#FDBE12" stroke-width="3" stroke-linecap="round" stroke-linejoin="round"/>
<path d="M428.5 255H452.25" stroke="#FDBE12" stroke-width="3" stroke-linecap="round" stroke-linejoin="round"/>
<path d="M473.5 300V212.5" stroke="#FDBE12" stroke-width="3" stroke-linecap="round" stroke-linejoin="round"/>
<path d="M488.5 265H536C537.381 265 538.5 266.119 538.5 267.5V287.5C538.5 288.881 537.381 290 536 290H488.5" stroke="#FDBE12" stroke-width="3" stroke-linecap="round" stroke-linejoin="round"/>
<path d="M536 290C537.381 290 538.5 291.119 538.5 292.5V300" stroke="#FDBE12" stroke-width="3" stroke-linecap="round" stroke-linejoin="round"/>
<path d="M508.5 277.5H513.5" stroke="#FDBE12" stroke-width="3" stroke-linecap="round" stroke-linejoin="round"/>
<path d="M523.5 277.5H528.5" stroke="#FDBE12" stroke-width="3" stroke-linecap="round" stroke-linejoin="round"/>
<path d="M536 215C537.381 215 538.5 216.119 538.5 217.5V237.5C538.5 238.881 537.381 240 536 240H488.5" stroke="#FDBE12" stroke-width="3" stroke-linecap="round" stroke-linejoin="round"/>
<path d="M536 240C537.381 240 538.5 241.119 538.5 242.5V262.5C538.5 263.881 537.381 265 536 265" stroke="#FDBE12" stroke-width="3" stroke-linecap="round" stroke-linejoin="round"/>
<path d="M508.5 227.5H513.5" stroke="#FDBE12" stroke-width="3" stroke-linecap="round" stroke-linejoin="round"/>
<path d="M523.5 227.5H528.5" stroke="#FDBE12" stroke-width="3" stroke-linecap="round" stroke-linejoin="round"/>
<path d="M523.5 252.5H528.5" stroke="#FDBE12" stroke-width="3" stroke-linecap="round" stroke-linejoin="round"/>
<path d="M473.5 190V167.5C473.5 166.119 474.619 165 476 165H536C537.381 165 538.5 166.119 538.5 167.5V187.5C538.5 188.881 537.381 190 536 190H488.5" stroke="#FDBE12" stroke-width="3" stroke-linecap="round" stroke-linejoin="round"/>
<path d="M536 190C537.381 190 538.5 191.119 538.5 192.5V212.5C538.5 213.881 537.381 215 536 215H488.5" stroke="#FDBE12" stroke-width="3" stroke-linecap="round" stroke-linejoin="round"/>
<path d="M508.5 177.5H513.5" stroke="#FDBE12" stroke-width="3" stroke-linecap="round" stroke-linejoin="round"/>
<path d="M523.5 177.5H528.5" stroke="#FDBE12" stroke-width="3" stroke-linecap="round" stroke-linejoin="round"/>
<path d="M523.5 202.5H528.5" stroke="#FDBE12" stroke-width="3" stroke-linecap="round" stroke-linejoin="round"/>
<path d="M408.5 197.294V167.5C408.5 166.119 409.619 165 411 165H471C472.381 165 473.5 166.119 473.5 167.5V187.5C473.5 188.881 472.381 190 471 190H433.5" stroke="#FDBE12" stroke-width="3" stroke-linecap="round" stroke-linejoin="round"/>
<path d="M471 190C472.381 190 473.5 191.119 473.5 192.5V212.5C473.5 213.881 472.381 215 471 215H427.044" stroke="#FDBE12" stroke-width="3" stroke-linecap="round" stroke-linejoin="round"/>
<path d="M458.5 177.5H463.5" stroke="#FDBE12" stroke-width="3" stroke-linecap="round" stroke-linejoin="round"/>
<path d="M441.834 177.5H446.834" stroke="#FDBE12" stroke-width="3" stroke-linecap="round" stroke-linejoin="round"/>
<path d="M426 177.5H431" stroke="#FDBE12" stroke-width="3" stroke-linecap="round" stroke-linejoin="round"/>
<path d="M458.5 202.5H463.5" stroke="#FDBE12" stroke-width="3" stroke-linecap="round" stroke-linejoin="round"/>
<path d="M441.834 202.5H446.834" stroke="#FDBE12" stroke-width="3" stroke-linecap="round" stroke-linejoin="round"/>
<path d="M828 301.5L374 301.5L316.5 301.5C280.878 301.5 252 272.622 252 237V237L252 92C252 42.2943 211.706 1.99995 162 1.99995L-2 1.99995" stroke="#FDBE12" stroke-width="3" stroke-linecap="round" stroke-linejoin="round"/>
<circle cx="818.5" cy="301" r="11" fill="white" stroke="#FDBE12" stroke-width="3"/>
</svg>
