<svg width="853" height="447" viewBox="0 0 853 447" fill="none" xmlns="http://www.w3.org/2000/svg">
<g opacity="0.1" clip-path="url(#clip0_1372_3474)">
<path d="M669.742 365.704C636.081 374.686 607.88 349.835 576.286 336.459C570.703 334.097 572.832 330.787 575.036 327.498C581.663 317.61 595.932 312.508 608.024 316.367C616.923 319.21 625.871 322.307 634.166 326.543C643.655 331.391 651.758 329.73 660.637 325.06C680.887 314.403 701.59 304.845 724.333 300.567C754.944 294.806 782.363 300.601 805.641 322.327C816.34 332.311 830.094 336.761 842.584 343.504C846.423 345.571 849.849 344.747 852.026 340.572C854.381 336.061 852.019 332.792 848.38 331.371C827.814 323.35 812.144 307.502 793.384 296.728C760.726 277.968 726.997 282.384 693.631 294.778C680.331 299.722 667.462 305.998 654.814 312.501C648.84 315.57 643.882 315.866 637.942 313.05C630.842 309.686 623.454 306.912 616.072 304.192C599.139 297.957 583.441 300.484 570.147 312.803C565.464 317.143 562.827 316.937 558.028 313.387C543.841 302.888 529.304 292.862 514.726 282.912C499.145 272.276 483.249 271.953 467.51 282.61C448.174 295.705 448.139 311.114 467.27 324.49C500.821 347.954 533.506 372.592 565.78 397.82C581.711 410.276 597.03 423.653 615.948 431.831C644.445 444.157 673.361 443.491 702.915 436.844C727.361 431.343 752.026 426.846 776.526 421.586C783.125 420.171 789.045 421.098 794.97 423.886C809.892 430.911 824.916 437.709 839.735 444.939C844.727 447.37 849.252 448.709 851.985 442.694C854.608 436.926 849.897 434.488 845.812 432.552C829.558 424.868 813.229 417.342 796.9 409.809C782.308 403.073 768.115 409.102 754.011 411.739C731.22 416.003 708.683 421.634 685.9 425.96C653.626 432.092 623.776 425.15 597.861 405.016C556.311 372.736 514.671 340.606 471.582 310.448C466.034 306.561 465.862 303.609 469.941 298.802C478.319 288.948 493.364 285.872 504.584 293.151C521.27 303.973 537.496 315.516 553.825 326.894C555.583 328.116 557.842 330.197 557.952 331.996C558.749 345.31 569.351 348.627 578.621 353.31C582.631 355.336 587.239 356.448 590.789 359.064C627.148 385.817 668.918 380.289 709.858 379.706C714.335 379.644 718.331 378.133 717.789 372.516C717.301 367.455 713.717 365.698 709.04 365.704C697.429 365.718 685.817 365.704 669.742 365.704Z" fill="#FDBE12"/>
<path d="M624.028 205.682C624.028 192.065 624.083 178.449 624 164.832C623.966 159.311 625.277 152.197 616.797 152.293C608.873 152.376 610.404 159.311 610.37 164.289C610.219 187.739 610.342 211.189 610.225 234.639C610.212 237.379 611.709 241.286 607.788 242.412C605.075 243.188 603.125 240.531 601.285 238.67C593.024 230.292 588.087 220.439 588.122 208.374C588.156 194.379 588.012 180.385 588.211 166.391C588.568 141.533 603.867 121.668 627.921 116.923C644.834 113.586 662.275 113.51 679.209 117.191C700.591 121.839 715.424 139.281 716.721 161.117C717.662 176.945 717.353 192.862 717.298 208.731C717.257 220.699 712.196 230.643 703.963 239.02C702.191 240.819 700.392 243.524 697.426 242.282C694.24 240.949 695.647 237.695 695.647 235.264C695.599 212.947 695.675 190.637 695.702 168.32C695.702 165.676 695.792 163.019 695.606 160.382C695.29 155.809 693.642 151.964 688.355 152.135C682.834 152.321 682.086 156.599 682.072 161.035C682.038 176.917 682.044 192.807 682.038 208.69C682.031 222.306 682.196 235.923 681.935 249.533C681.784 257.745 685.601 260.066 693.141 259.187C709.216 257.306 726.39 240.64 729.535 220.542C733.16 197.353 733.771 173.704 729.13 150.577C723.643 123.233 698.909 102.853 671.449 101.727C659.487 101.239 647.471 101.198 635.509 101.672C601.786 102.997 575.665 129.619 574.676 163.747C574.216 179.616 574.23 195.526 574.704 211.395C575.363 233.581 591.541 254.683 610.225 258.666C621.185 261 623.767 259.043 623.89 247.658C624.041 233.664 623.925 219.67 623.925 205.675C623.959 205.675 623.986 205.675 624.021 205.675L624.028 205.682Z" fill="#FDBE12"/>
<path d="M788.901 205.633C788.915 219.62 788.77 233.608 788.956 247.595C789.1 258.706 791.826 260.731 802.84 258.685C820.144 255.471 836.714 235.537 837.751 214.869C838.657 196.768 838.884 178.551 837.929 160.464C836.24 128.437 809.309 102.584 777.468 101.691C763.638 101.307 749.781 101.726 735.938 102.117C730.383 102.275 724.972 103.875 726.022 111.277C726.97 117.917 732.058 116.139 736.57 116.002C750.028 115.59 763.521 114.992 776.967 115.521C803.561 116.565 824.038 137.948 824.532 164.721C824.807 179.457 824.608 194.207 824.56 208.949C824.525 220.547 819.671 230.099 811.952 238.339C809.927 240.502 807.743 243.599 804.578 242.686C800.65 241.553 802.518 237.577 802.504 234.864C802.408 212.561 802.483 190.258 802.504 167.955C802.504 165.311 802.518 162.661 802.373 160.024C802.154 155.98 801.117 152.203 796.241 152.114C791.05 152.018 788.976 155.595 788.935 160.278C788.818 175.399 788.894 190.519 788.901 205.64V205.633Z" fill="#FDBE12"/>
<path d="M516.314 205.406C516.314 191.047 516.363 176.682 516.287 162.324C516.26 157.922 517.214 152.518 510.471 152.223C503.673 151.928 502.787 156.775 502.78 162.145C502.773 185.952 502.78 209.766 502.67 233.573C502.657 236.409 504.263 240.337 501.132 241.847C497.465 243.619 495.179 239.904 492.878 237.59C484.487 229.158 480.546 218.803 480.463 206.964C480.374 193.361 480.182 179.745 480.573 166.149C481.411 137.466 502.114 116.392 530.563 115.465C543.623 115.04 556.739 114.442 569.799 116.131C573.885 116.66 578.369 117.264 579.337 111.283C580.182 106.037 577.277 102.982 572.697 102.7C551.493 101.395 529.952 98.017 509.331 105.392C483.045 114.799 467.417 137.974 467.011 166.231C466.799 180.967 466.709 195.717 467.156 210.446C467.835 233.154 484.57 255.32 502.979 258.629C514.165 260.641 516.26 258.952 516.335 247.361C516.431 233.381 516.356 219.393 516.356 205.412H516.301L516.314 205.406Z" fill="#FDBE12"/>
<path d="M617.391 43.6617C617.467 72.3989 632.69 88.5082 657.609 85.9332C671.748 84.4706 681.89 76.052 685.571 63.0464C690.563 45.399 692.128 26.7902 678.292 11.6628C668.376 0.82024 655.721 -2.70239 641.431 2.19358C624.8 7.88609 617.329 20.823 617.391 43.6617ZM674.048 42.0755C674.048 45.4745 674.337 48.8941 674 52.2588C672.235 69.9887 654.506 78.2562 640.024 68.1896C625.981 58.4251 627.059 26.0554 641.713 17.2866C650.303 12.1435 661.283 13.7915 668.5 20.9672C674.529 26.9618 674.378 34.4809 674.048 42.0823V42.0755Z" fill="#FDBE12"/>
<path d="M509.77 42.1718C509.777 71.4789 525.199 87.9865 549.308 86.1187C563.708 85.0063 576.034 73.8685 579.803 58.5695C585.379 35.9162 579.22 15.2199 564.058 5.68889C550.585 -2.78464 534.682 -1.5349 522.349 9.00552C511.617 18.1794 508.939 30.3473 509.77 42.1649V42.1718ZM567.526 42.7623C567.526 59.4072 562.485 68.8009 551.313 71.7467C541.618 74.3011 533.515 70.8746 527.63 62.971C521.594 54.8683 521.642 31.9609 527.712 23.8582C533.268 16.4422 540.608 12.5487 550.194 14.904C562.417 17.9116 567.539 26.1242 567.532 42.7623H567.526Z" fill="#FDBE12"/>
<path d="M795.32 42.2252C796.446 29.4943 793.431 17.4638 782.444 8.55765C771.609 -0.224878 759.475 -2.49776 746.696 3.02308C734.137 8.44778 726.213 18.0749 725.162 32.3165C724.695 38.7025 724.613 45.171 724.977 51.5639C726.172 72.5211 741.237 86.6322 761.59 86.2065C780.364 85.8151 794.399 71.1684 795.299 50.9734C795.416 48.3365 795.313 45.686 795.313 42.2252H795.32ZM781.84 41.408C781.696 60.3464 776.738 69.3762 764.879 71.9786C755.108 74.1211 747.06 70.3306 741.567 62.1249C735.401 52.9166 737.207 28.9243 744.32 21.2817C751.256 13.8313 759.88 12.0665 768.91 16.1522C780.075 21.2061 782.87 31.1148 781.847 41.4012L781.84 41.408Z" fill="#FDBE12"/>
</g>
<defs>
<clipPath id="clip0_1372_3474">
<rect width="400" height="446.961" fill="white" transform="translate(453)"/>
</clipPath>
</defs>
</svg>
