<svg width="830" height="314" viewBox="0 0 830 314" fill="none" xmlns="http://www.w3.org/2000/svg">
<path d="M23 301.5L477 301.5L534.5 301.5C570.122 301.5 599 272.622 599 237V237L599 92C599 42.2943 639.294 1.99995 689 1.99995L853 1.99995" stroke="#FDBE12" stroke-width="3" stroke-linecap="round" stroke-linejoin="round"/>
<path d="M84 301.241V254.861C84 252.689 81 252.68 81 254.861V301.241C81 303.413 84 303.422 84 301.241Z" fill="#FDBE12"/>
<path d="M111.875 242.968H132.128C134.3 242.968 134.309 239.968 132.128 239.968H111.875C109.702 239.968 109.694 242.968 111.875 242.968Z" fill="#FDBE12"/>
<path d="M111.875 229.443H132.128C134.3 229.443 134.309 226.443 132.128 226.443H111.875C109.702 226.443 109.694 229.443 111.875 229.443Z" fill="#FDBE12"/>
<path d="M111.875 215.919H132.128C134.3 215.919 134.309 212.919 132.128 212.919H111.875C109.702 212.919 109.694 215.919 111.875 215.919Z" fill="#FDBE12"/>
<path d="M111.875 202.395H132.128C134.3 202.395 134.309 199.395 132.128 199.395H111.875C109.702 199.395 109.694 202.395 111.875 202.395Z" fill="#FDBE12"/>
<path d="M90.9948 242.968H103.091C105.263 242.968 105.272 239.968 103.091 239.968H90.9948C88.8224 239.968 88.8139 242.968 90.9948 242.968Z" fill="#FDBE12"/>
<path d="M90.9948 229.443H103.091C105.263 229.443 105.272 226.443 103.091 226.443H90.9948C88.8224 226.443 88.8139 229.443 90.9948 229.443Z" fill="#FDBE12"/>
<path d="M90.9948 215.919H103.091C105.263 215.919 105.272 212.919 103.091 212.919H90.9948C88.8224 212.919 88.8139 215.919 90.9948 215.919Z" fill="#FDBE12"/>
<path d="M90.9948 202.395H103.091C105.263 202.395 105.272 199.395 103.091 199.395H90.9948C88.8224 199.395 88.8139 202.395 90.9948 202.395Z" fill="#FDBE12"/>
<path d="M90.9948 256.754H103.091C105.263 256.754 105.272 253.754 103.091 253.754H90.9948C88.8224 253.754 88.8139 256.754 90.9948 256.754Z" fill="#FDBE12"/>
<path d="M90.9948 270.54H103.091C105.263 270.54 105.272 267.54 103.091 267.54H90.9948C88.8224 267.54 88.8139 270.54 90.9948 270.54Z" fill="#FDBE12"/>
<path d="M90.9948 284.326H103.091C105.263 284.326 105.272 281.326 103.091 281.326H90.9948C88.8224 281.326 88.8139 284.326 90.9948 284.326Z" fill="#FDBE12"/>
<path d="M140.912 242.968H153.008C155.18 242.968 155.189 239.968 153.008 239.968H140.912C138.739 239.968 138.731 242.968 140.912 242.968Z" fill="#FDBE12"/>
<path d="M140.912 229.443H153.008C155.18 229.443 155.189 226.443 153.008 226.443H140.912C138.739 226.443 138.731 229.443 140.912 229.443Z" fill="#FDBE12"/>
<path d="M140.912 215.919H153.008C155.18 215.919 155.189 212.919 153.008 212.919H140.912C138.739 212.919 138.731 215.919 140.912 215.919Z" fill="#FDBE12"/>
<path d="M140.912 202.395H153.008C155.18 202.395 155.189 199.395 153.008 199.395H140.912C138.739 199.395 138.731 202.395 140.912 202.395Z" fill="#FDBE12"/>
<path d="M140.912 256.754H153.008C155.18 256.754 155.189 253.754 153.008 253.754H140.912C138.739 253.754 138.731 256.754 140.912 256.754Z" fill="#FDBE12"/>
<path d="M140.912 270.54H153.008C155.18 270.54 155.189 267.54 153.008 267.54H140.912C138.739 267.54 138.731 270.54 140.912 270.54Z" fill="#FDBE12"/>
<path d="M169.152 265.401H174.486C176.658 265.401 176.667 262.401 174.486 262.401H169.152C166.98 262.401 166.971 265.401 169.152 265.401Z" fill="#FDBE12"/>
<path d="M169.152 251.877H174.486C176.658 251.877 176.667 248.877 174.486 248.877H169.152C166.98 248.877 166.971 251.877 169.152 251.877Z" fill="#FDBE12"/>
<path d="M169.152 238.353H174.486C176.658 238.353 176.667 235.353 174.486 235.353H169.152C166.98 235.353 166.971 238.353 169.152 238.353Z" fill="#FDBE12"/>
<path d="M169.152 224.828H174.486C176.658 224.828 176.667 221.828 174.486 221.828H169.152C166.98 221.828 166.971 224.828 169.152 224.828Z" fill="#FDBE12"/>
<path d="M169.152 279.179H174.486C176.658 279.179 176.667 276.179 174.486 276.179H169.152C166.98 276.179 166.971 279.179 169.152 279.179Z" fill="#FDBE12"/>
<path d="M111.875 256.754H132.128C134.3 256.754 134.309 253.754 132.128 253.754H111.875C109.702 253.754 109.694 256.754 111.875 256.754Z" fill="#FDBE12"/>
<path d="M111.875 270.54H132.128C134.3 270.54 134.309 267.54 132.128 267.54H111.875C109.702 267.54 109.694 270.54 111.875 270.54Z" fill="#FDBE12"/>
<path d="M111.875 284.326H132.128C134.3 284.326 134.309 281.326 132.128 281.326H111.875C109.702 281.326 109.694 284.326 111.875 284.326Z" fill="#FDBE12"/>
<path d="M143.494 293.434C137.794 289.801 131.433 295.769 133.538 301.815C134.183 303.666 137.156 302.875 136.503 301C135.29 297.513 138.432 293.849 141.942 296.084C143.617 297.152 145.153 294.494 143.494 293.434Z" fill="#FDBE12"/>
<path d="M156.232 291.038C157.899 290.062 159.589 291.437 159.489 293.235C159.382 295.209 162.455 295.201 162.562 293.235C162.785 289.071 158.276 286.275 154.68 288.38C152.975 289.378 154.519 292.036 156.232 291.03V291.038Z" fill="#FDBE12"/>
<path d="M161.448 294.716C166.15 292.827 170.252 296.598 169.814 301.407C169.637 303.374 172.71 303.366 172.887 301.407C173.486 294.747 167.102 289.155 160.626 291.759C158.813 292.489 159.604 295.462 161.44 294.724L161.448 294.716Z" fill="#FDBE12"/>
<path d="M144.04 294.241C143.164 291.329 144.047 288.042 147.051 286.797C149.947 285.599 152.92 287.327 153.988 290.123C154.687 291.951 157.652 291.16 156.953 289.309C155.317 285.015 150.946 282.196 146.344 283.786C141.658 285.407 139.722 290.53 141.082 295.063C141.65 296.952 144.616 296.146 144.047 294.248L144.04 294.241Z" fill="#FDBE12"/>
<path d="M143.194 293.811C143.203 293.574 143.152 293.354 143.051 293.151C142.983 292.94 142.865 292.763 142.704 292.61C142.552 292.45 142.366 292.332 142.163 292.264C141.96 292.154 141.74 292.112 141.512 292.12C141.36 292.137 141.216 292.162 141.064 292.179C140.777 292.264 140.532 292.408 140.32 292.61C140.236 292.72 140.143 292.839 140.058 292.949C139.906 293.211 139.83 293.498 139.83 293.802C139.822 294.039 139.872 294.259 139.974 294.462C140.041 294.673 140.16 294.85 140.32 295.003C140.472 295.172 140.658 295.281 140.861 295.349C141.064 295.459 141.275 295.501 141.512 295.493C141.664 295.476 141.808 295.451 141.96 295.434C142.248 295.358 142.493 295.205 142.704 295.003C142.789 294.893 142.882 294.774 142.966 294.664C143.118 294.402 143.194 294.115 143.194 293.811Z" fill="#FDBE12"/>
<path d="M72.8379 301.24V233.915C72.8379 231.742 69.8379 231.734 69.8379 233.915V301.24C69.8379 303.413 72.8379 303.421 72.8379 301.24Z" fill="#FDBE12"/>
<path d="M83.7771 235.9C83.5903 227.787 75.0532 210.275 65.5007 220.376C61.813 224.272 59.2461 230.535 59.2786 235.9C59.3111 241.969 63.9493 247.255 70.0251 247.982C77.4088 248.871 83.5253 243.117 83.7771 235.9C83.8502 233.824 80.6011 233.824 80.528 235.9C80.2843 242.705 72.8275 247.246 66.776 243.513C61.3012 240.127 62.1379 233.597 64.2417 228.482C65.85 224.571 69.8789 217.831 74.6145 222.025C78.2455 225.233 80.4143 231.149 80.5198 235.9C80.5686 237.977 83.8177 237.985 83.769 235.9H83.7771Z" fill="#FDBE12"/>
<rect x="180" y="214.5" width="3" height="88" rx="1.5" fill="#FDBE12"/>
<rect x="161" y="216.5" width="3" height="22" rx="1.5" transform="rotate(-90 161 216.5)" fill="#FDBE12"/>
<path d="M80 213.5C80 214.328 80.6716 215 81.5 215C82.3284 215 83 214.328 83 213.5H80ZM162 291.5V182.793H159V291.5H162ZM158.682 178.451L85.6817 158.584L84.8939 161.478L157.894 181.345L158.682 178.451ZM80 162.926V213.5H83V162.926H80ZM85.6817 158.584C82.8196 157.805 80 159.959 80 162.926H83C83 161.937 83.9399 161.219 84.8939 161.478L85.6817 158.584ZM162 182.793C162 180.762 160.641 178.984 158.682 178.451L157.894 181.345C158.547 181.523 159 182.116 159 182.793H162Z" fill="#FDBE12"/>
<path d="M374.558 237.809C374.558 237.809 386.398 240.583 389.741 228.288C391.517 221.348 383.589 216.308 383.589 216.308C383.589 216.308 387.315 207.284 377.611 204.145C379.898 198.2 373.444 195.121 369.3 196.249C369.3 196.249 366.735 190.803 360.212 191.575C352.644 192.479 353.491 201.269 353.491 201.269C341.233 200.232 343.207 209.571 343.207 209.571C343.207 209.571 334.907 211.298 334.118 216.49C332.934 225.493 341.036 227.566 341.036 227.566C341.036 227.566 338.866 234.486 343.601 238.642C352.69 246.426 361.79 240.024 361.79 240.024" stroke="#FDBE12" stroke-width="3" stroke-linecap="round" stroke-linejoin="round"/>
<path d="M362.27 299.81V207.49" stroke="#FDBE12" stroke-width="3" stroke-linecap="round" stroke-linejoin="round"/>
<path d="M362.27 220.69L371.63 212.26" stroke="#FDBE12" stroke-width="3" stroke-linecap="round" stroke-linejoin="round"/>
<path d="M362.27 232.44L349.41 221.29" stroke="#FDBE12" stroke-width="3" stroke-linecap="round" stroke-linejoin="round"/>
<path d="M268.54 301V156.67H339.87V185M339.87 301V256" stroke="#FDBE12" stroke-width="3" stroke-linecap="round" stroke-linejoin="round"/>
<path d="M235.29 301V113.93H309.79V157" stroke="#FDBE12" stroke-width="3" stroke-linecap="round" stroke-linejoin="round"/>
<path d="M252 185.5H259" stroke="#FDBE12" stroke-width="3" stroke-linecap="round" stroke-linejoin="round"/>
<path d="M252 171.5H259" stroke="#FDBE12" stroke-width="3" stroke-linecap="round" stroke-linejoin="round"/>
<path d="M252 157.5H259" stroke="#FDBE12" stroke-width="3" stroke-linecap="round" stroke-linejoin="round"/>
<path d="M251.79 143.12H265.79" stroke="#FDBE12" stroke-width="3" stroke-linecap="round" stroke-linejoin="round"/>
<path d="M251.79 129.12H265.79" stroke="#FDBE12" stroke-width="3" stroke-linecap="round" stroke-linejoin="round"/>
<path d="M279.42 157.12H293.42" stroke="#FDBE12" stroke-width="3" stroke-linecap="round" stroke-linejoin="round"/>
<path d="M279.42 143.12H293.42" stroke="#FDBE12" stroke-width="3" stroke-linecap="round" stroke-linejoin="round"/>
<path d="M279.42 129.12H293.42" stroke="#FDBE12" stroke-width="3" stroke-linecap="round" stroke-linejoin="round"/>
<path d="M251.79 198H258.79" stroke="#FDBE12" stroke-width="3" stroke-linecap="round" stroke-linejoin="round"/>
<path d="M251.79 210.88H258.79" stroke="#FDBE12" stroke-width="3" stroke-linecap="round" stroke-linejoin="round"/>
<path d="M251.79 223.75H258.79" stroke="#FDBE12" stroke-width="3" stroke-linecap="round" stroke-linejoin="round"/>
<path d="M251.79 236.62H258.79" stroke="#FDBE12" stroke-width="3" stroke-linecap="round" stroke-linejoin="round"/>
<path d="M251.79 249.5H258.79" stroke="#FDBE12" stroke-width="3" stroke-linecap="round" stroke-linejoin="round"/>
<path d="M251.79 262.38H258.79" stroke="#FDBE12" stroke-width="3" stroke-linecap="round" stroke-linejoin="round"/>
<path d="M251.79 275.25H258.79" stroke="#FDBE12" stroke-width="3" stroke-linecap="round" stroke-linejoin="round"/>
<path d="M297.88 213.5H283.21V228.17H297.88V213.5Z" stroke="#FDBE12" stroke-width="3" stroke-linecap="round" stroke-linejoin="round"/>
<path d="M297.88 183.5H283.21V198.17H297.88V183.5Z" stroke="#FDBE12" stroke-width="3" stroke-linecap="round" stroke-linejoin="round"/>
<path d="M325.46 213.5H310.79V228.17H325.46V213.5Z" stroke="#FDBE12" stroke-width="3" stroke-linecap="round" stroke-linejoin="round"/>
<path d="M325.46 183.5H310.79V198.17H325.46V183.5Z" stroke="#FDBE12" stroke-width="3" stroke-linecap="round" stroke-linejoin="round"/>
<path d="M297.88 241.17H283.21V255.84H297.88V241.17Z" stroke="#FDBE12" stroke-width="3" stroke-linecap="round" stroke-linejoin="round"/>
<path d="M325.46 241.17H310.79V255.84H325.46V241.17Z" stroke="#FDBE12" stroke-width="3" stroke-linecap="round" stroke-linejoin="round"/>
<path d="M297.88 268.83H283.21V283.5H297.88V268.83Z" stroke="#FDBE12" stroke-width="3" stroke-linecap="round" stroke-linejoin="round"/>
<path d="M316.46 268.83H310.79V283.5H320.46" stroke="#FDBE12" stroke-width="3" stroke-linecap="round" stroke-linejoin="round"/>
<path d="M450.204 278.694C449.851 272.172 449.578 265.646 449.753 259.113C449.813 256.895 449.198 255.039 447.883 253.267C443.019 246.707 438.224 240.094 433.418 233.49C432.999 232.914 432.576 232.298 432.354 231.633C432.071 230.786 432.422 230.082 433.243 229.651C434.25 229.122 435.006 229.472 435.713 230.257C439.097 234.014 442.562 237.697 445.875 241.516C448.813 244.901 452.475 246.6 456.854 246.638C459.909 246.665 462.848 247.241 465.762 248.03C468.375 248.737 469.118 249.916 469.544 252.645C470.702 260.033 470.332 267.379 469.198 274.719C469.025 275.838 469.054 276.904 470.373 277.067C471.663 277.228 471.763 276.036 471.895 275.128C473.043 267.197 473.33 259.259 471.99 251.313C471.539 248.641 470.071 246.828 467.579 245.885C464.46 244.705 461.21 244.051 457.893 244.053C453.413 244.056 449.894 242.318 446.99 238.894C444.096 235.481 441.003 232.237 437.969 228.946C435.594 226.372 433.401 226.036 431.204 227.836C429.183 229.493 429.108 232.054 431.103 234.8C435.818 241.293 440.531 247.789 445.338 254.214C446.619 255.926 447.204 257.654 447.175 259.815C446.996 273.176 447.986 286.497 448.622 299.83C448.667 300.778 448.43 302.112 450.034 301.944C451.543 301.785 451.178 300.541 451.136 299.569C450.833 292.611 450.516 285.653 450.204 278.694Z" fill="#FDBE12"/>
<path d="M419.23 278.732C419.23 272.353 419.583 265.977 419.529 259.598C419.515 257.847 419.954 256.372 421.008 254.967C424.212 250.692 427.345 246.361 430.491 242.043C431.073 241.244 431.984 240.323 430.891 239.411C429.632 238.357 428.955 239.62 428.344 240.45C425.044 244.924 421.802 249.445 418.495 253.916C417.408 255.387 416.973 257.02 416.995 258.799C417.169 272.294 416.329 285.753 415.663 299.219C415.638 299.725 415.622 300.235 415.642 300.74C415.672 301.525 416.138 301.907 416.878 301.972C417.659 302.04 418.103 301.674 418.181 300.881C418.273 299.944 418.399 299.007 418.439 298.069C418.713 291.624 418.968 285.178 419.23 278.732Z" fill="#FDBE12"/>
<path d="M397.737 275.412C397.49 273.361 397.355 271.401 397.004 269.479C395.946 263.672 396.858 257.925 397.384 252.161C397.569 250.123 398.647 248.83 400.564 248.236C403.457 247.34 406.402 246.686 409.439 246.699C414.1 246.719 417.952 245.016 421.032 241.471C422.642 239.618 424.349 237.852 425.977 236.015C426.707 235.191 427.977 234.277 426.735 233.12C425.558 232.02 424.824 233.379 424.129 234.113C422.293 236.051 420.492 238.025 418.709 240.016C416.245 242.767 413.177 244.067 409.528 244.036C406.12 244.009 402.82 244.63 399.611 245.762C396.683 246.793 395.203 248.822 394.737 251.997C393.621 259.6 393.827 267.154 394.944 274.718C394.986 275.005 395.032 275.291 395.088 275.575C395.253 276.391 395.482 277.232 396.533 277.095C397.506 276.968 397.698 276.153 397.735 275.413L397.737 275.412Z" fill="#FDBE12"/>
<path d="M463.327 277.258C462.984 285.108 462.664 292.343 462.353 299.578C462.311 300.557 461.957 301.796 463.463 301.936C465.174 302.095 464.938 300.614 464.987 299.645C465.365 292.05 465.636 284.452 466.015 276.858C466.363 269.91 466.317 262.96 466.285 256.008C466.281 255.03 466.55 253.764 465.038 253.727C463.501 253.69 463.749 254.943 463.742 255.937C463.693 263.251 463.812 270.567 463.329 277.257L463.327 277.258Z" fill="#FDBE12"/>
<path d="M400.933 277.497C401.241 285.081 401.535 292.323 401.828 299.566C401.834 299.711 401.834 299.857 401.849 300.001C401.949 300.947 401.953 302.023 403.304 301.957C404.699 301.889 404.534 300.766 404.497 299.85C404.278 294.272 404.117 288.691 403.768 283.121C403.211 274.215 403 265.305 403.102 256.386C403.107 255.879 403.09 255.372 403.074 254.865C403.053 254.173 402.667 253.811 402.009 253.74C401.229 253.655 400.758 254.058 400.644 254.801C400.547 255.441 400.539 256.099 400.542 256.749C400.56 263.781 400.378 270.816 400.933 277.498V277.497Z" fill="#FDBE12"/>
<path d="M416.873 232.864C416.861 228.162 415.06 225.512 411.372 224.758C407.422 223.951 403.644 226.85 403.395 230.924C403.32 232.151 403.322 233.39 403.397 234.618C403.632 238.494 406.499 241.136 410.348 241.082C413.956 241.032 416.732 238.185 416.87 234.386C416.889 233.879 416.873 233.372 416.873 232.864ZM405.902 232.932C405.923 232.932 405.943 232.929 405.964 232.928C405.964 232.494 405.946 232.059 405.967 231.626C406.093 229.12 407.898 227.213 410.112 227.238C412.406 227.264 414.172 229.096 414.264 231.613C414.304 232.695 414.331 233.797 414.179 234.864C413.885 236.922 412.132 238.451 410.204 238.483C408.319 238.513 406.453 237.118 406.084 235.306C405.927 234.535 405.957 233.724 405.902 232.931V232.932Z" fill="#FDBE12"/>
<path d="M449.997 232.461C449.857 235.901 450.574 238.497 453.338 240.142C457.718 242.748 463.1 239.922 463.456 234.795C463.537 233.643 463.545 232.478 463.488 231.324C463.302 227.497 460.378 224.613 456.708 224.587C453.097 224.561 450.194 227.496 450.001 231.382C449.976 231.888 449.997 232.395 449.997 232.461ZM460.825 232.754C460.825 233.478 460.919 234.217 460.81 234.923C460.368 237.754 457.413 239.32 454.943 238.052C452.311 236.701 452.515 234.229 452.556 231.815C452.59 229.787 453.512 228.341 455.343 227.572C458.408 226.286 460.911 228.651 460.825 232.754Z" fill="#FDBE12"/>
<path d="M455.473 284.168C455.473 284.168 455.466 294.6 455.478 299.816C455.481 300.731 455.276 301.873 456.658 301.951C458.181 302.035 458.091 300.825 458.092 299.821C458.1 289.317 458.096 278.812 458.071 268.308C458.068 267.41 458.22 266.263 456.788 266.271C455.381 266.278 455.508 267.367 455.507 268.304C455.507 268.304 455.514 284.169 455.503 284.169C455.492 284.169 455.488 299.816 455.478 299.816L455.473 284.168Z" fill="#FDBE12"/>
<path d="M429.218 219.903C429.201 219.006 426.856 216.517 426.086 216.542C425.28 216.567 424.744 217.004 424.723 217.87C424.704 218.612 427.134 221.106 427.881 221.116C428.739 221.126 429.157 220.63 429.218 219.904V219.903Z" fill="#FDBE12"/>
<path d="M434.77 216.794C434.724 216.312 434.712 215.736 434.601 215.181C434.489 214.61 434.022 214.38 433.497 214.333C432.951 214.283 432.476 214.527 432.303 215.042C432.126 215.574 431.994 216.168 432.035 216.721C432.118 217.863 431.661 219.588 433.331 219.68C435.227 219.784 434.42 217.928 434.77 216.794Z" fill="#FDBE12"/>
<path d="M442.045 217.595C441.933 216.951 441.592 216.466 440.786 216.538C439.931 216.616 437.553 219.085 437.656 219.838C437.765 220.64 438.244 221.159 439.096 221.116C439.955 221.072 442.105 218.524 442.046 217.593L442.045 217.595Z" fill="#FDBE12"/>
<circle cx="12.5" cy="301" r="11" fill="white" stroke="#FDBE12" stroke-width="3"/>
</svg>
