<svg width="120" height="120" viewBox="0 0 120 120" fill="none" xmlns="http://www.w3.org/2000/svg">
<rect width="120" height="120" rx="60" fill="white"/>
<g filter="url(#filter0_i_1344_2364)">
<rect x="32.5713" y="28.2861" width="54.8571" height="64.2857" rx="7.67999" fill="url(#paint0_radial_1344_2364)"/>
<rect x="32.5713" y="28.2861" width="54.8571" height="64.2857" rx="7.67999" fill="url(#paint1_radial_1344_2364)" fill-opacity="0.5"/>
</g>
<rect x="32.8456" y="28.5604" width="54.3086" height="63.7371" rx="7.40571" stroke="url(#paint2_linear_1344_2364)" stroke-width="0.548571"/>
<g filter="url(#filter1_b_1344_2364)">
<path d="M65.9901 28.3974H63.7762C61.5732 28.4218 58.1268 28.3974 55.2534 28.3594H50.1689C47.2982 28.3947 43.8517 28.4218 41.6487 28.3974C40.4269 28.3838 39.4268 28.3974 39.4268 28.3974V71.8475C39.4268 73.2784 41.2405 74.1744 42.7002 73.4684L51.6258 69.154C52.2962 68.8282 53.1206 68.8282 53.791 69.154L62.7166 73.4684C64.179 74.1744 65.9901 73.2756 65.9901 71.8475V30.2627V28.3974Z" fill="url(#paint3_linear_1344_2364)"/>
<path d="M65.8529 28.5345H63.777C61.5724 28.559 58.1256 28.5345 55.2525 28.4965H50.1697C47.2992 28.5318 43.8518 28.559 41.6472 28.5345L41.6472 28.5345C41.0372 28.5277 40.4824 28.5277 40.0801 28.5294C39.879 28.5303 39.7161 28.5316 39.6034 28.5326L39.5639 28.533V71.8475C39.5639 72.499 39.9762 73.0391 40.5769 73.3363C41.1775 73.6335 41.9514 73.6782 42.6405 73.3449L42.6405 73.3449L51.5659 69.0307L65.8529 28.5345ZM65.8529 28.5345V30.2627V71.8475C65.8529 72.4977 65.4413 73.0378 64.8409 73.3354C64.2406 73.6328 63.4668 73.6782 62.7763 73.3449L53.851 69.0307L65.8529 28.5345ZM53.8507 69.0305C53.1426 68.6865 52.2742 68.6865 51.5661 69.0305H53.8507Z" stroke="url(#paint4_linear_1344_2364)" stroke-width="0.274285"/>
</g>
<path d="M61.0076 49.9531L60.8599 49.8577C60.3553 49.3532 59.6508 49.1347 58.7093 49.1901C57.9248 49.2394 57.3033 49.547 56.8295 49.8362C56.8295 49.8301 56.8295 49.8208 56.8295 49.8147C56.8295 49.5685 56.8572 49.304 56.8849 49.0455C56.9126 48.784 56.9403 48.5163 56.9403 48.2641C56.9403 48.0118 56.9126 47.7595 56.8234 47.5534C56.8018 47.5011 56.7526 47.4672 56.688 47.4672C56.4357 47.4734 55.9404 47.6457 55.8204 47.7503L55.7558 47.8918C55.7527 48.1718 55.6912 48.9532 55.6266 49.0486C55.6266 49.0455 55.5927 49.144 55.5927 49.144C55.4851 50.2608 55.4851 51.2453 55.5835 52.0883C55.5958 52.1714 55.7589 52.2975 55.8819 52.3436C56.0204 52.396 56.4511 52.279 56.6972 52.1867C56.6942 52.1867 56.7895 52.1714 56.7895 52.1714C56.8695 52.1621 56.9157 52.0975 56.9095 52.0083L56.9157 51.7652C57.0941 51.0361 57.8202 50.1685 58.6786 50.0362C59.1647 49.9593 59.5462 50.0854 59.8477 50.4146C59.8877 50.4731 59.9769 50.9992 59.6569 51.5991C59.42 52.0452 58.9432 52.4206 58.3155 52.6544C57.7217 52.879 57.0726 52.9713 56.2665 52.9436C56.2327 52.9221 55.5127 52.4329 55.5127 52.4329C54.8728 51.9837 54.079 51.4268 53.3622 51.153C53.2361 51.1038 53.0084 50.9161 52.873 50.8053L52.7992 50.7438C52.3838 50.4115 51.5962 49.8854 50.9624 49.4639C50.9624 49.4639 50.6763 49.2732 50.6209 49.2363C50.6209 49.2117 50.6209 49.1655 50.6209 49.1655C50.6394 49.144 51.0394 48.9071 51.0394 48.9071C51.5962 48.581 51.8547 48.421 51.91 48.3379C51.8977 48.3502 51.9839 48.2948 51.9839 48.2948C51.99 48.2948 53.3653 47.5134 53.3653 47.5134C54.6913 46.7842 56.1957 45.9566 56.9864 45.1382L57.0264 45.0121L57.0449 44.9013C57.0972 44.726 57.1003 44.5937 57.0572 44.4368C57.0449 44.3937 57.0049 44.3414 56.9495 44.3322C56.3342 44.2706 55.5374 44.6398 54.8144 45.3198C54.6513 45.4736 54.5128 45.5474 54.3682 45.6274L54.2575 45.6889C53.4606 46.1443 51.6608 47.258 50.7194 47.861C50.7809 46.8488 50.9686 45.409 51.1993 44.2091L51.1747 44.0645L51.0763 43.883L51.0024 43.7538L50.9809 43.7476C50.7932 43.6522 50.6394 43.6922 50.5256 43.7199L50.3379 43.7907L50.0856 43.883C50.0364 43.8922 50.0025 43.923 49.981 43.9722C49.5318 45.0582 49.1565 46.8458 49.0673 48.2764C48.1689 47.7041 47.3382 47.2949 46.9321 47.095L46.9198 47.0888L46.8706 47.0796C46.7229 47.0611 46.5444 46.9534 46.3752 46.8488C46.3568 46.8396 46.0337 46.6273 46.0337 46.6273L45.5107 46.292L45.3722 46.2612C45.1477 46.2981 44.7169 46.5904 44.5908 46.7873C44.5754 46.815 44.5662 46.8427 44.5662 46.8704C44.5662 46.9104 44.5785 46.9534 44.5908 46.9934L44.6123 47.1011L44.6369 47.1657C44.8861 47.4211 45.5199 47.8487 46.1383 48.1841L46.8552 48.5656L47.9535 49.1655L48.1412 49.3132L48.2704 49.387C48.2704 49.387 48.2858 49.3963 48.295 49.4024C48.0027 49.5993 46.2952 50.7377 46.2952 50.7377L45.2461 51.433C45.1477 51.5007 44.7323 51.6853 44.64 51.7222C44.4123 51.8145 44.2401 51.9591 44.1693 52.1129L44.1416 52.1744L44.1693 52.2144L44.2493 52.276L44.357 52.3467L44.4739 52.4267L44.5846 52.4452C44.7692 52.4513 45.043 52.3467 45.5538 52.1221C46.0245 51.9129 47.2982 51.1438 47.8458 50.8146L48.0797 50.6761C48.175 50.6854 48.2827 50.6023 48.375 50.5315C48.4858 50.4454 48.7227 50.2977 48.8673 50.2331C48.8734 50.2331 48.9534 50.1869 49.0334 50.1408C49.0334 50.1654 49.0334 50.2023 49.0334 50.2023C49.058 51.8699 49.1534 53.0851 49.3349 54.0204V54.0358L49.3565 54.0727C49.4457 54.205 49.5472 54.5988 49.6395 54.9495L49.8456 55.6448L49.9041 55.7095C50.0241 55.7895 50.384 55.9279 50.6271 55.9002L50.6855 55.8941L50.7225 55.811C50.744 55.7064 50.7502 55.6049 50.7502 55.491C50.7502 55.3649 50.7409 55.2234 50.7286 55.0511L50.7132 54.7988C50.6363 53.6327 50.5594 51.9529 50.5594 50.833V50.7438C50.7563 50.8669 51.6239 51.4145 51.6239 51.4145C53.0976 52.3713 55.322 53.8143 56.6695 54.1958C56.7403 54.2173 56.8141 54.2019 56.8664 54.1527L57.0726 54.0204L57.1126 54.005C57.1895 53.9681 57.2418 53.8389 57.251 53.6974C58.3863 53.6389 59.9646 53.202 60.8107 52.1406C61.1399 51.7283 61.2845 51.2238 61.2845 50.79C61.2845 50.4362 61.186 50.1285 61.0076 49.9624" fill="#FCAF17"/>
<defs>
<filter id="filter0_i_1344_2364" x="32.0227" y="28.2861" width="55.406" height="64.8347" filterUnits="userSpaceOnUse" color-interpolation-filters="sRGB">
<feFlood flood-opacity="0" result="BackgroundImageFix"/>
<feBlend mode="normal" in="SourceGraphic" in2="BackgroundImageFix" result="shape"/>
<feColorMatrix in="SourceAlpha" type="matrix" values="0 0 0 0 0 0 0 0 0 0 0 0 0 0 0 0 0 0 127 0" result="hardAlpha"/>
<feOffset dx="-0.548571" dy="0.548571"/>
<feGaussianBlur stdDeviation="1.09714"/>
<feComposite in2="hardAlpha" operator="arithmetic" k2="-1" k3="1"/>
<feColorMatrix type="matrix" values="0 0 0 0 1 0 0 0 0 1 0 0 0 0 1 0 0 0 0.3 0"/>
<feBlend mode="normal" in2="shape" result="effect1_innerShadow_1344_2364"/>
</filter>
<filter id="filter1_b_1344_2364" x="26.2611" y="15.1937" width="52.8949" height="71.6869" filterUnits="userSpaceOnUse" color-interpolation-filters="sRGB">
<feFlood flood-opacity="0" result="BackgroundImageFix"/>
<feGaussianBlur in="BackgroundImageFix" stdDeviation="6.58285"/>
<feComposite in2="SourceAlpha" operator="in" result="effect1_backgroundBlur_1344_2364"/>
<feBlend mode="normal" in="SourceGraphic" in2="effect1_backgroundBlur_1344_2364" result="shape"/>
</filter>
<radialGradient id="paint0_radial_1344_2364" cx="0" cy="0" r="1" gradientUnits="userSpaceOnUse" gradientTransform="translate(38.6056 29.8465) rotate(53.7501) scale(72.3625 70.2953)">
<stop stop-color="#FFF4CC" stop-opacity="0.849615"/>
<stop offset="1" stop-color="#FEBE10"/>
</radialGradient>
<radialGradient id="paint1_radial_1344_2364" cx="0" cy="0" r="1" gradientUnits="userSpaceOnUse" gradientTransform="translate(42.4284 36.0004) rotate(54.0903) scale(61.38 59.6266)">
<stop stop-color="#FFF4CC" stop-opacity="0.849615"/>
<stop offset="1" stop-color="#FCAF17"/>
</radialGradient>
<linearGradient id="paint2_linear_1344_2364" x1="32.5713" y1="28.2861" x2="96.0789" y2="82.4243" gradientUnits="userSpaceOnUse">
<stop stop-color="white" stop-opacity="0.25"/>
<stop offset="1" stop-color="white" stop-opacity="0"/>
</linearGradient>
<linearGradient id="paint3_linear_1344_2364" x1="40.7125" y1="28.2861" x2="59.5696" y2="65.5718" gradientUnits="userSpaceOnUse">
<stop stop-color="#8D744B"/>
<stop offset="1" stop-color="#5F574D"/>
</linearGradient>
<linearGradient id="paint4_linear_1344_2364" x1="31.0278" y1="40.5369" x2="51.7957" y2="67.2251" gradientUnits="userSpaceOnUse">
<stop stop-color="white" stop-opacity="0.600574"/>
<stop offset="1" stop-color="white" stop-opacity="0.01"/>
</linearGradient>
</defs>
</svg>
