<svg width="120" height="120" viewBox="0 0 120 120" fill="none" xmlns="http://www.w3.org/2000/svg">
<rect width="120" height="120" rx="60" fill="white"/>
<path d="M77.6299 30.8574H42.371C37.9059 30.8574 34.2861 34.4446 34.2861 38.8696V87.131C34.2861 91.556 37.9059 95.1431 42.371 95.1431H77.6299C82.095 95.1431 85.7147 91.556 85.7147 87.131V38.8696C85.7147 34.4446 82.095 30.8574 77.6299 30.8574Z" fill="url(#paint0_linear_1344_2427)"/>
<path d="M77.6299 30.8574H42.371C37.9059 30.8574 34.2861 34.4446 34.2861 38.8696V87.131C34.2861 91.556 37.9059 95.1431 42.371 95.1431H77.6299C82.095 95.1431 85.7147 91.556 85.7147 87.131V38.8696C85.7147 34.4446 82.095 30.8574 77.6299 30.8574Z" fill="url(#paint1_linear_1344_2427)"/>
<g filter="url(#filter0_b_1344_2427)">
<path d="M65.9581 91.0482L43.757 95.0136C38.5275 95.9463 34.2861 91.6905 34.2861 87.1468V38.9149C34.2861 34.3712 38.5246 29.9315 43.757 28.9962L65.9581 25.0308C71.1876 24.0981 75.429 27.0215 75.429 31.5651V81.1295C75.429 85.6731 71.1905 90.1128 65.9581 91.0482Z" fill="url(#paint2_radial_1344_2427)"/>
<path d="M65.8827 90.6263L43.6818 94.5917C38.7381 95.4734 34.7147 91.4478 34.7147 87.1468V38.9149C34.7147 34.6256 38.7546 30.3258 43.8324 29.4181L66.0334 25.4527C66.0334 25.4527 66.0334 25.4527 66.0335 25.4527C68.554 25.0032 70.8035 25.4882 72.4113 26.5971C74.0129 27.7018 75.0004 29.4384 75.0004 31.5651V81.1295C75.0004 85.4187 70.9605 89.7186 65.8827 90.6263C65.8827 90.6263 65.8827 90.6263 65.8827 90.6263Z" stroke="url(#paint3_linear_1344_2427)" stroke-width="0.857143"/>
</g>
<g filter="url(#filter1_b_1344_2427)">
<mask id="path-5-inside-1_1344_2427" fill="white">
<path d="M42.3742 95.1405C40.6369 95.1405 38.9629 94.5796 37.5506 93.5029C35.5085 91.9451 34.2861 89.542 34.2861 87.0777V38.9641C34.2861 34.3998 38.5488 29.9231 43.7895 28.9847L65.8911 25.0291C68.5402 24.5559 71.0914 25.0716 72.892 26.446C74.5286 27.6927 75.429 29.5376 75.429 31.6351V81.0778C75.429 85.6422 71.1663 90.1189 65.9256 91.0573L43.8239 95.0129C43.3378 95.1006 42.8518 95.1431 42.3714 95.1431L42.3742 95.1405ZM67.801 25.0317C67.1883 25.0317 66.5613 25.0876 65.9314 25.2019L43.8297 29.1575C38.6724 30.0799 34.4788 34.4795 34.4788 38.9641V87.0777C34.4788 89.4915 35.6725 91.8441 37.6744 93.37C39.4318 94.7098 41.6064 95.2335 43.7953 94.8427L65.8968 90.8871C71.0541 89.9647 75.2477 85.5651 75.2477 81.0804V31.6377C75.2477 29.5935 74.3704 27.7964 72.777 26.5842C71.4481 25.5714 69.6965 25.037 67.801 25.037V25.0317Z"/>
</mask>
<path d="M65.6963 90.9278L65.7135 91.0129L66.1147 90.9315L66.0974 90.8464L65.6963 90.9278ZM42.3742 95.1405L42.6557 95.4377L43.4015 94.7311H42.3742V95.1405ZM37.5506 93.5029L37.3024 93.8284L37.3025 93.8285L37.5506 93.5029ZM43.7895 28.9847L43.7174 28.5818L43.7173 28.5818L43.7895 28.9847ZM65.8911 25.0291L65.8191 24.6261L65.819 24.6261L65.8911 25.0291ZM72.892 26.446L72.6436 26.7714L72.6439 26.7716L72.892 26.446ZM65.9256 91.0573L65.9977 91.4602L65.9978 91.4602L65.9256 91.0573ZM43.8239 95.0129L43.7518 94.6099L43.7512 94.61L43.8239 95.0129ZM42.3714 95.1431L42.0899 94.846L41.3441 95.5525H42.3714V95.1431ZM67.801 25.0317H68.2103V24.6224H67.801V25.0317ZM65.9314 25.2019L66.0035 25.6048L66.0045 25.6046L65.9314 25.2019ZM43.8297 29.1575L43.9017 29.5604L43.9018 29.5604L43.8297 29.1575ZM37.6744 93.37L37.9225 93.0445L37.9225 93.0445L37.6744 93.37ZM43.7953 94.8427L43.8672 95.2457L43.8674 95.2457L43.7953 94.8427ZM65.8968 90.8871L65.8248 90.4842L65.8247 90.4842L65.8968 90.8871ZM72.777 26.5842L72.5288 26.9098L72.5291 26.91L72.777 26.5842ZM67.801 25.037H67.3917V25.4464H67.801V25.037ZM42.3742 94.7311C40.7269 94.7311 39.14 94.1999 37.7988 93.1774L37.3025 93.8285C38.7858 94.9593 40.5469 95.5498 42.3742 95.5498V94.7311ZM37.7989 93.1775C35.853 91.6931 34.6955 89.4079 34.6955 87.0777H33.8768C33.8768 89.6761 35.1639 92.1971 37.3024 93.8284L37.7989 93.1775ZM34.6955 87.0777V38.9641H33.8768V87.0777H34.6955ZM34.6955 38.9641C34.6955 34.6419 38.7695 30.2994 43.8616 29.3876L43.7173 28.5818C38.3282 29.5467 33.8768 34.1576 33.8768 38.9641H34.6955ZM43.8616 29.3876L65.9632 25.432L65.819 24.6261L43.7174 28.5818L43.8616 29.3876ZM65.9631 25.432C68.5225 24.9749 70.9515 25.4797 72.6436 26.7714L73.1404 26.1206C71.2314 24.6635 68.5579 24.1369 65.8191 24.6261L65.9631 25.432ZM72.6439 26.7716C74.1764 27.939 75.0197 29.6621 75.0197 31.6351H75.8383C75.8383 29.4131 74.8809 27.4465 73.14 26.1203L72.6439 26.7716ZM75.0197 31.6351V81.0778H75.8383V31.6351H75.0197ZM75.0197 81.0778C75.0197 85.4001 70.9456 89.7425 65.8535 90.6543L65.9978 91.4602C71.3869 90.4952 75.8383 85.8843 75.8383 81.0778H75.0197ZM65.8535 90.6543L43.7518 94.6099L43.896 95.4158L65.9977 91.4602L65.8535 90.6543ZM43.7512 94.61C43.2893 94.6934 42.8276 94.7338 42.3714 94.7338V95.5525C42.8759 95.5525 43.3863 95.5078 43.8966 95.4157L43.7512 94.61ZM42.6529 95.4403L42.6557 95.4377L42.0927 94.8433L42.0899 94.846L42.6529 95.4403ZM67.801 24.6224C67.1636 24.6224 66.5121 24.6805 65.8583 24.7991L66.0045 25.6046C66.6105 25.4946 67.2131 25.4411 67.801 25.4411V24.6224ZM65.8593 24.7989L43.7575 28.7546L43.9018 29.5604L66.0035 25.6048L65.8593 24.7989ZM43.7576 28.7545C38.4522 29.7035 34.0695 34.237 34.0695 38.9641H34.8882C34.8882 34.722 38.8927 30.4564 43.9017 29.5604L43.7576 28.7545ZM34.0695 38.9641V87.0777H34.8882V38.9641H34.0695ZM34.0695 87.0777C34.0695 89.6253 35.3276 92.096 37.4262 93.6956L37.9225 93.0445C36.0173 91.5922 34.8882 89.3577 34.8882 87.0777H34.0695ZM37.4262 93.6955C39.2753 95.1053 41.5662 95.6565 43.8672 95.2457L43.7233 94.4398C41.6466 94.8105 39.5883 94.3144 37.9225 93.0445L37.4262 93.6955ZM43.8674 95.2457L65.969 91.2901L65.8247 90.4842L43.7231 94.4398L43.8674 95.2457ZM65.9689 91.2901C71.2743 90.3411 75.657 85.8076 75.657 81.0804H74.8383C74.8383 85.3226 70.8338 89.5882 65.8248 90.4842L65.9689 91.2901ZM75.657 81.0804V31.6377H74.8383V81.0804H75.657ZM75.657 31.6377C75.657 29.4691 74.7228 27.5501 73.0248 26.2584L72.5291 26.91C74.0181 28.0427 74.8383 29.7178 74.8383 31.6377H75.657ZM73.0251 26.2586C71.6137 25.1829 69.7709 24.6277 67.801 24.6277V25.4464C69.6221 25.4464 71.2825 25.9599 72.5288 26.9098L73.0251 26.2586ZM68.2103 25.037V25.0317H67.3917V25.037H68.2103Z" fill="url(#paint4_linear_1344_2427)" mask="url(#path-5-inside-1_1344_2427)"/>
</g>
<path d="M63.1521 60.1182L63.0044 60.0228C62.4999 59.5182 61.7953 59.2998 60.8539 59.3552C60.0693 59.4044 59.4479 59.7121 58.9741 60.0013C58.9741 59.9951 58.9741 59.9859 58.9741 59.9797C58.9741 59.7336 59.0018 59.469 59.0294 59.2106C59.0571 58.9491 59.0848 58.6814 59.0848 58.4291C59.0848 58.1768 59.0571 57.9245 58.9679 57.7184C58.9464 57.6661 58.8971 57.6323 58.8325 57.6323C58.5803 57.6384 58.0849 57.8107 57.9649 57.9153L57.9003 58.0568C57.8972 58.3368 57.8357 59.1183 57.7711 59.2136C57.7711 59.2106 57.7373 59.309 57.7373 59.309C57.6296 60.4258 57.6296 61.4103 57.728 62.2533C57.7403 62.3364 57.9034 62.4625 58.0265 62.5087C58.1649 62.561 58.5956 62.4441 58.8418 62.3518C58.8387 62.3518 58.9341 62.3364 58.9341 62.3364C59.0141 62.3272 59.0602 62.2626 59.0541 62.1733L59.0602 61.9303C59.2387 61.2011 59.9647 60.3335 60.8231 60.2012C61.3092 60.1243 61.6907 60.2505 61.9922 60.5797C62.0322 60.6381 62.1214 61.1642 61.8015 61.7641C61.5646 62.2103 61.0877 62.5856 60.4601 62.8194C59.8663 63.044 59.2171 63.1363 58.411 63.1086C58.3772 63.0871 57.6573 62.5979 57.6573 62.5979C57.0173 62.1487 56.2236 61.5919 55.5067 61.318C55.3806 61.2688 55.1529 61.0811 55.0175 60.9704L54.9437 60.9089C54.5284 60.5766 53.7408 60.0505 53.107 59.629C53.107 59.629 52.8208 59.4382 52.7655 59.4013C52.7655 59.3767 52.7655 59.3306 52.7655 59.3306C52.7839 59.309 53.1839 59.0721 53.1839 59.0721C53.7408 58.746 53.9992 58.586 54.0546 58.5029C54.0423 58.5153 54.1284 58.4599 54.1284 58.4599C54.1346 58.4599 55.5098 57.6784 55.5098 57.6784C56.8358 56.9493 58.3403 56.1217 59.131 55.3033L59.171 55.1771L59.1894 55.0664C59.2417 54.891 59.2448 54.7587 59.2017 54.6018C59.1894 54.5587 59.1494 54.5064 59.094 54.4972C58.4787 54.4357 57.6819 54.8049 56.9589 55.4848C56.7958 55.6386 56.6574 55.7125 56.5128 55.7925L56.402 55.854C55.6052 56.3093 53.8054 57.4231 52.8639 58.0261C52.9255 57.0139 53.1131 55.574 53.3439 54.3741L53.3193 54.2295L53.2208 54.048L53.147 53.9188L53.1254 53.9126C52.9378 53.8173 52.7839 53.8573 52.6701 53.885L52.4824 53.9557L52.2301 54.048C52.1809 54.0572 52.1471 54.088 52.1255 54.1372C51.6763 55.2233 51.301 57.0108 51.2118 58.4414C50.3134 57.8692 49.4827 57.46 49.0766 57.26L49.0643 57.2538L49.0151 57.2446C48.8674 57.2262 48.689 57.1185 48.5197 57.0139C48.5013 57.0046 48.1782 56.7924 48.1782 56.7924L47.6552 56.457L47.5168 56.4262C47.2922 56.4632 46.8615 56.7554 46.7353 56.9523C46.7199 56.98 46.7107 57.0077 46.7107 57.0354C46.7107 57.0754 46.723 57.1185 46.7353 57.1585L46.7569 57.2661L46.7815 57.3308C47.0307 57.5861 47.6645 58.0138 48.2829 58.3491L48.9997 58.7306L50.098 59.3306L50.2857 59.4782L50.4149 59.5521C50.4149 59.5521 50.4303 59.5613 50.4396 59.5675C50.1473 59.7644 48.4398 60.9027 48.4398 60.9027L47.3906 61.598C47.2922 61.6657 46.8768 61.8503 46.7845 61.8872C46.5569 61.9795 46.3846 62.1241 46.3138 62.2779L46.2861 62.3395L46.3138 62.3795L46.3938 62.441L46.5015 62.5118L46.6184 62.5918L46.7292 62.6102C46.9138 62.6164 47.1876 62.5118 47.6983 62.2872C48.169 62.078 49.4427 61.3088 49.9904 60.9796L50.2242 60.8412C50.3196 60.8504 50.4272 60.7673 50.5195 60.6966C50.6303 60.6104 50.8672 60.4627 51.0118 60.3981C51.018 60.3981 51.0979 60.352 51.1779 60.3058C51.1779 60.3304 51.1779 60.3674 51.1779 60.3674C51.2026 62.0349 51.2979 63.2502 51.4794 64.1854V64.2008L51.501 64.2377C51.5902 64.37 51.6917 64.7638 51.784 65.1146L51.9902 65.8099L52.0486 65.8745C52.1686 65.9545 52.5286 66.0929 52.7716 66.0652L52.8301 66.0591L52.867 65.976C52.8885 65.8714 52.8947 65.7699 52.8947 65.6561C52.8947 65.5299 52.8855 65.3884 52.8731 65.2161L52.8578 64.9638C52.7809 63.7978 52.7039 62.118 52.7039 60.9981V60.9089C52.9008 61.0319 53.7684 61.5796 53.7684 61.5796C55.2421 62.5364 57.4665 63.9793 58.8141 64.3608C58.8848 64.3823 58.9587 64.367 59.011 64.3177L59.2171 64.1854L59.2571 64.1701C59.334 64.1331 59.3863 64.0039 59.3956 63.8624C60.5308 63.8039 62.1091 63.3671 62.9552 62.3056C63.2844 61.8934 63.429 61.3888 63.429 60.955C63.429 60.6012 63.3305 60.2935 63.1521 60.1274" fill="#57C5C7"/>
<defs>
<filter id="filter0_b_1344_2427" x="27.7366" y="18.3079" width="54.2416" height="83.3851" filterUnits="userSpaceOnUse" color-interpolation-filters="sRGB">
<feFlood flood-opacity="0" result="BackgroundImageFix"/>
<feGaussianBlur in="BackgroundImageFix" stdDeviation="3.27475"/>
<feComposite in2="SourceAlpha" operator="in" result="effect1_backgroundBlur_1344_2427"/>
<feBlend mode="normal" in="SourceGraphic" in2="effect1_backgroundBlur_1344_2427" result="shape"/>
</filter>
<filter id="filter1_b_1344_2427" x="26.0993" y="16.6706" width="57.5163" height="86.6599" filterUnits="userSpaceOnUse" color-interpolation-filters="sRGB">
<feFlood flood-opacity="0" result="BackgroundImageFix"/>
<feGaussianBlur in="BackgroundImageFix" stdDeviation="4.09343"/>
<feComposite in2="SourceAlpha" operator="in" result="effect1_backgroundBlur_1344_2427"/>
<feBlend mode="normal" in="SourceGraphic" in2="effect1_backgroundBlur_1344_2427" result="shape"/>
</filter>
<linearGradient id="paint0_linear_1344_2427" x1="28.9143" y1="63.0479" x2="55.5314" y2="73.7139" gradientUnits="userSpaceOnUse">
<stop stop-color="#FFE399"/>
<stop offset="1" stop-color="#FCAF17"/>
</linearGradient>
<linearGradient id="paint1_linear_1344_2427" x1="38.9267" y1="63.8662" x2="75.7716" y2="79.1317" gradientUnits="userSpaceOnUse">
<stop stop-color="#BEF6F7"/>
<stop offset="1" stop-color="#57C5C7"/>
</linearGradient>
<radialGradient id="paint2_radial_1344_2427" cx="0" cy="0" r="1" gradientUnits="userSpaceOnUse" gradientTransform="translate(36.429 33.4288) rotate(57.5288) scale(61.4668 55.1915)">
<stop stop-color="#D7FEFF"/>
<stop offset="1" stop-color="#D7FEFF" stop-opacity="0.35"/>
</radialGradient>
<linearGradient id="paint3_linear_1344_2427" x1="21.2773" y1="43.7286" x2="53.4649" y2="85.0702" gradientUnits="userSpaceOnUse">
<stop stop-color="white" stop-opacity="0.600574"/>
<stop offset="1" stop-color="white" stop-opacity="0.01"/>
</linearGradient>
<linearGradient id="paint4_linear_1344_2427" x1="54.8565" y1="26.1729" x2="48.6408" y2="94.4297" gradientUnits="userSpaceOnUse">
<stop stop-color="white"/>
<stop offset="1" stop-color="white" stop-opacity="0"/>
</linearGradient>
</defs>
</svg>
