<svg width="601" height="97" viewBox="0 0 601 97" fill="none" xmlns="http://www.w3.org/2000/svg">
<path d="M13.9705 70H4.61353V19.836H13.9705V70ZM14.8803 43.0986C16.1798 41.3225 17.5661 39.4814 19.0389 37.5753C20.5551 35.626 22.0713 33.6766 23.5875 31.7272C25.147 29.7345 26.6632 27.7418 28.136 25.7491C29.6522 23.7564 31.0601 21.7854 32.3597 19.836H42.3665C41.1102 21.872 39.724 23.9513 38.2078 26.074C36.735 28.1967 35.2404 30.2977 33.7243 32.377C32.2081 34.413 30.7135 36.3624 29.2407 38.2251C27.8111 40.0879 26.5116 41.7557 25.3419 43.2285L45.4205 70H34.9589L14.8803 43.0986ZM75.9161 42.5138C77.1724 42.8603 78.342 43.4018 79.425 44.1382C80.508 44.8314 81.4394 45.6977 82.2191 46.7374C82.9989 47.7771 83.6053 48.99 84.0385 50.3763C84.515 51.7192 84.7533 53.1704 84.7533 54.7299C84.7533 56.9392 84.3418 58.9968 83.5187 60.9029C82.6956 62.7656 81.4177 64.4118 79.6849 65.8413C77.9955 67.2276 75.8511 68.3322 73.252 69.1553C70.6528 69.935 67.5771 70.3249 64.0249 70.3249C63.2452 70.3249 62.2488 70.2816 61.0359 70.1949C59.8229 70.1516 58.5233 70.0866 57.1371 70C55.7509 69.9134 54.3646 69.8051 52.9784 69.6751C51.5922 69.5018 50.3143 69.3069 49.1446 69.0903V21.9803C50.3143 21.5038 51.5489 21.0706 52.8485 20.6807C54.1481 20.2908 55.4693 19.9443 56.8122 19.6411C58.1551 19.3378 59.4547 19.1212 60.711 18.9913C61.9672 18.818 63.1585 18.7313 64.2848 18.7313C66.9706 18.7313 69.4182 19.0562 71.6275 19.706C73.8801 20.3125 75.7862 21.2006 77.3457 22.3702C78.9485 23.5398 80.1831 24.9694 81.0495 26.6588C81.9592 28.305 82.414 30.1677 82.414 32.247C82.414 33.46 82.2408 34.6079 81.8942 35.6909C81.5477 36.7739 81.0711 37.7703 80.4647 38.68C79.9015 39.5464 79.2301 40.3045 78.4503 40.9543C77.6706 41.6041 76.8258 42.1239 75.9161 42.5138ZM75.3313 54.5349C75.3313 53.192 75.0281 52.0224 74.4216 51.026C73.8584 50.0297 73.0787 49.2066 72.0823 48.5568C71.1293 47.907 70.0247 47.4305 68.7684 47.1273C67.5121 46.7807 66.2125 46.6075 64.8696 46.6075H58.5017V62.7223C59.7146 62.8956 60.7759 63.0256 61.6856 63.1122C62.5954 63.1555 63.7 63.1772 64.9996 63.1772C66.5158 63.1772 67.902 63.0256 69.1583 62.7223C70.4145 62.4191 71.4975 61.9209 72.4072 61.2278C73.3169 60.5347 74.0317 59.6466 74.5515 58.5636C75.0714 57.4373 75.3313 56.0944 75.3313 54.5349ZM63.635 39.6547C64.9346 39.6547 66.1476 39.5031 67.2739 39.1998C68.4002 38.8533 69.3749 38.3767 70.1979 37.7703C71.0643 37.1205 71.7358 36.3624 72.2123 35.496C72.7321 34.6296 72.992 33.6333 72.992 32.507C72.992 31.3373 72.7538 30.341 72.2773 29.5179C71.8008 28.6515 71.1726 27.9584 70.3929 27.4386C69.6131 26.8754 68.7034 26.4639 67.6637 26.204C66.6241 25.944 65.5411 25.8141 64.4148 25.8141C63.0286 25.8141 61.8373 25.9224 60.8409 26.139C59.8879 26.3123 59.1081 26.4855 58.5017 26.6588V39.6547H63.635ZM119.66 70H110.043V19.836H119.66V70ZM128.412 70V36.4057C129.538 35.9725 130.859 35.5393 132.375 35.1061C133.892 34.6296 135.451 34.1964 137.054 33.8065C138.7 33.4167 140.325 33.1134 141.927 32.8968C143.53 32.6369 145.003 32.507 146.346 32.507C150.721 32.507 154.1 33.5033 156.483 35.496C158.909 37.4454 160.122 40.3911 160.122 44.3332V70H151.025V45.2429C151.025 43.0769 150.613 41.5607 149.79 40.6943C148.967 39.828 147.537 39.3948 145.501 39.3948C144.202 39.3948 142.859 39.5247 141.473 39.7846C140.086 40.0445 138.765 40.3478 137.509 40.6943V70H128.412ZM168.057 70V36.4057C169.183 35.9725 170.504 35.5393 172.02 35.1061C173.537 34.6296 175.096 34.1964 176.699 33.8065C178.345 33.4167 179.97 33.1134 181.572 32.8968C183.175 32.6369 184.648 32.507 185.991 32.507C190.366 32.507 193.745 33.5033 196.128 35.496C198.554 37.4454 199.767 40.3911 199.767 44.3332V70H190.67V45.2429C190.67 43.0769 190.258 41.5607 189.435 40.6943C188.612 39.828 187.182 39.3948 185.146 39.3948C183.847 39.3948 182.504 39.5247 181.118 39.7846C179.731 40.0445 178.41 40.3478 177.154 40.6943V70H168.057ZM234.148 51.8708C234.148 50.1813 233.953 48.5785 233.563 47.0623C233.217 45.5461 232.654 44.2249 231.874 43.0986C231.094 41.9289 230.098 40.9976 228.885 40.3045C227.715 39.6114 226.286 39.2648 224.596 39.2648C222.907 39.2648 221.456 39.6114 220.243 40.3045C219.073 40.9976 218.098 41.9289 217.319 43.0986C216.539 44.2249 215.954 45.5461 215.564 47.0623C215.218 48.5785 215.044 50.1813 215.044 51.8708C215.044 53.5602 215.218 55.1631 215.564 56.6792C215.911 58.1954 216.452 59.5383 217.189 60.708C217.925 61.8343 218.9 62.744 220.113 63.4371C221.326 64.1302 222.82 64.4768 224.596 64.4768C226.329 64.4768 227.802 64.1302 229.015 63.4371C230.271 62.744 231.268 61.8343 232.004 60.708C232.74 59.5383 233.282 58.1954 233.628 56.6792C233.975 55.1631 234.148 53.5602 234.148 51.8708ZM243.375 51.8708C243.375 54.9465 242.899 57.6756 241.946 60.0582C240.993 62.4407 239.672 64.4768 237.982 66.1662C236.293 67.8124 234.3 69.0686 232.004 69.935C229.708 70.8014 227.239 71.2346 224.596 71.2346C221.954 71.2346 219.485 70.8014 217.189 69.935C214.936 69.0686 212.965 67.8124 211.276 66.1662C209.586 64.4768 208.243 62.4407 207.247 60.0582C206.294 57.6756 205.817 54.9465 205.817 51.8708C205.817 48.8384 206.294 46.1309 207.247 43.7484C208.243 41.3225 209.586 39.2865 211.276 37.6403C212.965 35.9509 214.936 34.6729 217.189 33.8065C219.485 32.9401 221.954 32.507 224.596 32.507C227.239 32.507 229.708 32.9401 232.004 33.8065C234.3 34.6729 236.293 35.9509 237.982 37.6403C239.672 39.2865 240.993 41.3225 241.946 43.7484C242.899 46.1309 243.375 48.8384 243.375 51.8708ZM258.996 70C258.216 68.5705 257.415 66.9027 256.592 64.9966C255.768 63.0905 254.945 61.0762 254.122 58.9535C253.299 56.7875 252.498 54.5566 251.718 52.2607C250.938 49.9647 250.18 47.7121 249.444 45.5028C248.751 43.2502 248.079 41.1275 247.429 39.1348C246.823 37.0988 246.281 35.2577 245.805 33.6116H254.837C256.223 38.8099 257.588 43.705 258.931 48.2969C260.317 52.8455 261.79 57.0475 263.349 60.9029C264.259 59.4734 265.104 57.7622 265.884 55.7695C266.707 53.7768 267.443 51.6109 268.093 49.2716C268.786 46.9324 269.392 44.4415 269.912 41.799C270.432 39.1565 270.844 36.4274 271.147 33.6116H279.529C279.226 36.6006 278.728 39.763 278.035 43.0986C277.342 46.3909 276.475 49.6615 275.436 52.9104C274.396 56.1594 273.161 59.2568 271.732 62.2025C270.345 65.1482 268.786 67.7474 267.053 70H258.996ZM304.541 53.9501C303.155 53.6036 301.812 53.3003 300.512 53.0404C299.256 52.7372 298 52.5856 296.744 52.5856C295.054 52.5856 293.69 53.0837 292.65 54.0801C291.654 55.0764 291.155 56.5493 291.155 58.4987C291.155 60.4914 291.697 61.9642 292.78 62.9173C293.906 63.8703 295.379 64.3468 297.199 64.3468C298.195 64.3468 299.321 64.2818 300.577 64.1519C301.834 64.0219 303.155 63.7836 304.541 63.4371V53.9501ZM304.606 45.5678C304.606 43.5318 304.043 41.9723 302.917 40.8893C301.834 39.763 299.993 39.1998 297.393 39.1998C295.314 39.1998 293.473 39.2431 291.87 39.3298C290.267 39.4164 288.643 39.5247 286.997 39.6547L286.477 34.0015C287.343 33.8282 288.275 33.6549 289.271 33.4816C290.311 33.265 291.329 33.0918 292.325 32.9618C293.365 32.8318 294.361 32.7235 295.314 32.6369C296.267 32.5503 297.134 32.507 297.913 32.507C302.895 32.507 306.729 33.6982 309.415 36.0808C312.144 38.4201 313.508 41.9506 313.508 46.6724V67.4658C312.339 67.9423 310.974 68.3972 309.415 68.8304C307.898 69.2202 306.317 69.5885 304.671 69.935C303.068 70.2816 301.465 70.5415 299.863 70.7148C298.303 70.9314 296.852 71.0397 295.509 71.0397C293.473 71.0397 291.632 70.7364 289.986 70.13C288.34 69.5235 286.932 68.6788 285.762 67.5958C284.636 66.4695 283.748 65.1482 283.098 63.632C282.492 62.0725 282.188 60.3614 282.188 58.4987C282.188 56.7226 282.513 55.0764 283.163 53.5602C283.813 52.0007 284.722 50.6578 285.892 49.5315C287.105 48.4052 288.556 47.5172 290.246 46.8674C291.935 46.2176 293.798 45.8927 295.834 45.8927C297.35 45.8927 298.845 46.066 300.318 46.4125C301.79 46.7591 303.22 47.1706 304.606 47.6471V45.5678ZM333.129 23.5398V34.1314H341.707V41.0192H333.129V59.6033C333.129 61.6827 333.541 63.0905 334.364 63.827C335.187 64.5201 336.357 64.8666 337.873 64.8666C338.609 64.8666 339.324 64.8233 340.017 64.7367C340.754 64.6067 341.49 64.4984 342.227 64.4118L343.136 69.935C342.227 70.2816 341.23 70.5632 340.147 70.7798C339.064 70.9963 338.003 71.1046 336.963 71.1046C332.891 71.1046 329.686 70.2166 327.346 68.4405C325.05 66.6211 323.902 63.8703 323.902 60.1881V41.0192H318.769V34.1314H323.902V24.4495L333.129 23.5398ZM348.769 23.085C348.769 21.4388 349.289 20.1392 350.329 19.1862C351.412 18.2332 352.69 17.7567 354.162 17.7567C355.635 17.7567 356.892 18.2332 357.931 19.1862C358.971 20.1392 359.491 21.4388 359.491 23.085C359.491 24.7311 358.971 26.0523 357.931 27.0487C356.892 28.0017 355.635 28.4782 354.162 28.4782C352.69 28.4782 351.412 28.0017 350.329 27.0487C349.289 26.0523 348.769 24.7311 348.769 23.085ZM349.484 70V33.6116H358.711V70H349.484ZM393.982 51.8708C393.982 50.1813 393.787 48.5785 393.397 47.0623C393.051 45.5461 392.488 44.2249 391.708 43.0986C390.928 41.9289 389.932 40.9976 388.719 40.3045C387.549 39.6114 386.12 39.2648 384.43 39.2648C382.741 39.2648 381.289 39.6114 380.077 40.3045C378.907 40.9976 377.932 41.9289 377.152 43.0986C376.373 44.2249 375.788 45.5461 375.398 47.0623C375.051 48.5785 374.878 50.1813 374.878 51.8708C374.878 53.5602 375.051 55.1631 375.398 56.6792C375.745 58.1954 376.286 59.5383 377.022 60.708C377.759 61.8343 378.734 62.744 379.947 63.4371C381.16 64.1302 382.654 64.4768 384.43 64.4768C386.163 64.4768 387.636 64.1302 388.849 63.4371C390.105 62.744 391.101 61.8343 391.838 60.708C392.574 59.5383 393.116 58.1954 393.462 56.6792C393.809 55.1631 393.982 53.5602 393.982 51.8708ZM403.209 51.8708C403.209 54.9465 402.733 57.6756 401.78 60.0582C400.827 62.4407 399.505 64.4768 397.816 66.1662C396.126 67.8124 394.134 69.0686 391.838 69.935C389.542 70.8014 387.073 71.2346 384.43 71.2346C381.788 71.2346 379.318 70.8014 377.022 69.935C374.77 69.0686 372.799 67.8124 371.109 66.1662C369.42 64.4768 368.077 62.4407 367.081 60.0582C366.128 57.6756 365.651 54.9465 365.651 51.8708C365.651 48.8384 366.128 46.1309 367.081 43.7484C368.077 41.3225 369.42 39.2865 371.109 37.6403C372.799 35.9509 374.77 34.6729 377.022 33.8065C379.318 32.9401 381.788 32.507 384.43 32.507C387.073 32.507 389.542 32.9401 391.838 33.8065C394.134 34.6729 396.126 35.9509 397.816 37.6403C399.505 39.2865 400.827 41.3225 401.78 43.7484C402.733 46.1309 403.209 48.8384 403.209 51.8708ZM409.148 70V36.4057C410.274 35.9725 411.595 35.5393 413.111 35.1061C414.628 34.6296 416.187 34.1964 417.79 33.8065C419.436 33.4167 421.061 33.1134 422.663 32.8968C424.266 32.6369 425.739 32.507 427.082 32.507C431.457 32.507 434.836 33.5033 437.219 35.496C439.645 37.4454 440.858 40.3911 440.858 44.3332V70H431.76V45.2429C431.76 43.0769 431.349 41.5607 430.526 40.6943C429.703 39.828 428.273 39.3948 426.237 39.3948C424.938 39.3948 423.595 39.5247 422.208 39.7846C420.822 40.0445 419.501 40.3478 418.245 40.6943V70H409.148Z" fill="white"/>
<path d="M466.768 25.1445C466.768 21.6659 464.53 19.3159 461.017 19.3159C457.504 19.3159 455.283 21.6659 455.283 25.1445V65.6672C455.283 69.1458 457.522 71.4958 461.017 71.4958C464.511 71.4958 466.768 69.1458 466.768 65.6672V25.1445Z" fill="#FEBE10"/>
<path d="M493.312 19.3159C489.817 19.3159 487.578 21.6659 487.578 25.1445V65.6672C487.578 69.1458 489.817 71.4958 493.312 71.4958C496.806 71.4958 499.045 69.1458 499.045 65.6672V25.1445C499.045 21.6659 496.806 19.3159 493.312 19.3159Z" fill="#58C5C7"/>
<path d="M467.141 49.7299L493.315 38.4428V28.8765L463.701 41.4403C462.045 42.1435 460.989 43.7718 460.989 45.5851C460.989 48.8232 464.229 50.9881 467.141 49.7299Z" fill="#58C5C7"/>
<path d="M460.989 61.9837L490.676 49.1793C492.278 48.4946 493.315 46.8848 493.315 45.127C493.315 41.9629 490.148 39.835 487.291 41.0747L460.989 52.4174V61.9837Z" fill="#FEBE10"/>
<path d="M506.798 25.1352C506.798 21.6566 509.037 19.3066 512.532 19.3066C516.027 19.3066 518.284 21.6566 518.284 25.1352V52.0023C518.284 58.9781 522.124 62.1052 528.713 62.1052C535.302 62.1052 539.143 58.9781 539.143 52.0023V25.1352C539.143 21.6566 541.382 19.3066 544.876 19.3066C548.371 19.3066 550.61 21.6566 550.61 25.1352V51.0771C550.61 65.1583 542.073 71.505 528.695 71.505C515.317 71.505 506.78 65.1768 506.78 51.0771V25.1352H506.798Z" fill="white"/>
<path d="M558.364 26.6247C558.364 21.4252 561.021 19.7969 565.08 19.7969H580.333C588.724 19.7969 598.735 21.7212 598.735 33.0269C598.735 37.3752 596.424 41.5015 591.655 43.4073V43.5554C596.97 44.9801 600.482 48.8104 600.482 55.8602C600.482 66.6107 591.873 71.0146 581.935 71.0146H565.062C561.003 71.0146 558.346 69.3862 558.346 64.1868V26.6247H558.364ZM569.849 40.8539H579.296C584.683 40.8539 587.286 38.6519 587.286 34.5997C587.286 29.6962 583.227 28.3455 578.95 28.3455H569.849V40.8724V40.8539ZM569.849 62.0589H579.496C583.974 62.0589 589.015 61.1337 589.015 55.2311C589.015 49.3285 583.701 48.2553 578.094 48.2553H569.831V62.0589H569.849Z" fill="white"/>
</svg>
