<svg width="56" height="56" viewBox="0 0 56 56" fill="none" xmlns="http://www.w3.org/2000/svg">
<g clip-path="url(#clip0_1265_3741)">
<path d="M52 48.001V28.2657C52 26.8607 51.2628 25.5587 50.058 24.8358L33.5145 14.9097C32.848 14.5098 32 14.9899 32 15.7672V48.001C32 50.2101 33.7909 52.001 36 52.001H48C50.2091 52.001 52 50.2101 52 48.001Z" fill="url(#paint0_linear_1265_3741)"/>
<path d="M12 6C12 4.89543 12.8954 4 14 4L36 4C37.1046 4 38 4.89543 38 6L38 50C38 51.1046 37.1046 52 36 52H14C12.8954 52 12 51.1046 12 50L12 6Z" fill="url(#paint1_linear_1265_3741)"/>
<path d="M16 9C16 8.44772 16.4477 8 17 8L19 8C19.5523 8 20 8.44772 20 9L20 39C20 39.5523 19.5523 40 19 40H17C16.4477 40 16 39.5523 16 39L16 9Z" fill="url(#paint2_linear_1265_3741)"/>
<path d="M23 9C23 8.44772 23.4477 8 24 8L26 8C26.5523 8 27 8.44772 27 9L27 39C27 39.5523 26.5523 40 26 40H24C23.4477 40 23 39.5523 23 39L23 9Z" fill="url(#paint3_linear_1265_3741)"/>
<path d="M30 9C30 8.44772 30.4477 8 31 8L33 8C33.5523 8 34 8.44772 34 9V39C34 39.5523 33.5523 40 33 40H31C30.4477 40 30 39.5523 30 39L30 9Z" fill="url(#paint4_linear_1265_3741)"/>
<path d="M4 33.7171C4 32.7299 4.72022 31.8904 5.69589 31.7403L27.6959 28.3557C28.9074 28.1693 30 29.1067 30 30.3325L30 50.0012C30 51.1058 29.1046 52.0012 28 52.0012H6C4.89543 52.0012 4 51.1058 4 50.0012L4 33.7171Z" fill="url(#paint5_linear_1265_3741)"/>
</g>
<defs>
<linearGradient id="paint0_linear_1265_3741" x1="40.8235" y1="14.7656" x2="40.8235" y2="52.001" gradientUnits="userSpaceOnUse">
<stop stop-color="#57C5C7" stop-opacity="0.8"/>
<stop offset="1" stop-color="#57C5C7" stop-opacity="0"/>
</linearGradient>
<linearGradient id="paint1_linear_1265_3741" x1="25" y1="4" x2="25" y2="52" gradientUnits="userSpaceOnUse">
<stop stop-color="#57C5C7" stop-opacity="0.5"/>
<stop offset="1" stop-color="#57C5C7" stop-opacity="0"/>
</linearGradient>
<linearGradient id="paint2_linear_1265_3741" x1="18" y1="8" x2="18" y2="40" gradientUnits="userSpaceOnUse">
<stop stop-color="#57C5C7" stop-opacity="0.5"/>
<stop offset="1" stop-color="#57C5C7" stop-opacity="0"/>
</linearGradient>
<linearGradient id="paint3_linear_1265_3741" x1="25" y1="8" x2="25" y2="40" gradientUnits="userSpaceOnUse">
<stop stop-color="#57C5C7" stop-opacity="0.5"/>
<stop offset="1" stop-color="#57C5C7" stop-opacity="0"/>
</linearGradient>
<linearGradient id="paint4_linear_1265_3741" x1="32" y1="8" x2="32" y2="40" gradientUnits="userSpaceOnUse">
<stop stop-color="#57C5C7" stop-opacity="0.5"/>
<stop offset="1" stop-color="#57C5C7" stop-opacity="0"/>
</linearGradient>
<linearGradient id="paint5_linear_1265_3741" x1="15.4706" y1="28.332" x2="15.4706" y2="52.0012" gradientUnits="userSpaceOnUse">
<stop stop-color="#57C5C7" stop-opacity="0.8"/>
<stop offset="1" stop-color="#57C5C7" stop-opacity="0"/>
</linearGradient>
<clipPath id="clip0_1265_3741">
<rect width="56" height="56" fill="white"/>
</clipPath>
</defs>
</svg>
