<svg width="81" height="87" viewBox="0 0 81 87" fill="none" xmlns="http://www.w3.org/2000/svg">
<path d="M71.6401 86.409H9.36442C4.28793 86.409 0.383439 82.4674 1.07584 78.0495L4.54123 55.9366C5.11204 52.2955 8.65175 49.5867 12.8298 49.5867H18.5075L40.5022 49.5859L62.6017 49.5867H68.1747C72.3561 49.5867 75.8924 52.2989 76.4632 55.9366L79.9286 78.0495C80.621 82.4708 76.7132 86.409 71.6401 86.409Z" fill="url(#paint0_linear_1265_3714)"/>
<g filter="url(#filter0_b_1265_3714)">
<path d="M40.4992 0.34375C26.0499 0.34375 14.3359 12.0577 14.3359 26.507C14.3359 47.023 40.4992 68.658 40.4992 68.658C40.4992 68.658 66.6596 47.3439 66.6596 26.507C66.6596 12.0577 54.9457 0.34375 40.4992 0.34375Z" fill="url(#paint1_radial_1265_3714)"/>
<path d="M40.5012 68.0854C40.4976 68.0823 40.494 68.0792 40.4903 68.076C40.3005 67.9141 40.0213 67.6733 39.6656 67.3592C38.9541 66.731 37.9365 65.8098 36.7148 64.6399C34.271 62.2996 31.0134 58.9671 27.757 54.9976C21.2257 47.0359 14.7749 36.6018 14.7749 26.507C14.7749 12.3001 26.2923 0.782708 40.4992 0.782708C54.7033 0.782708 66.2207 12.3001 66.2207 26.507C66.2207 36.7628 59.7697 47.1974 53.2407 55.1171C49.985 59.0663 46.7282 62.3684 44.2849 64.6834C43.0635 65.8407 42.0462 66.7505 41.3349 67.3705C40.9793 67.6805 40.7002 67.918 40.5104 68.0776C40.5073 68.0802 40.5043 68.0828 40.5012 68.0854Z" stroke="url(#paint2_linear_1265_3714)" stroke-width="0.877915"/>
</g>
<path d="M48.5739 30.8302C50.9548 26.3825 49.2792 20.8468 44.8315 18.4659C40.3837 16.0851 34.8481 17.7606 32.4672 22.2084C30.0863 26.6561 31.7619 32.1918 36.2096 34.5727C40.6574 36.9535 46.193 35.278 48.5739 30.8302Z" fill="white"/>
<defs>
<filter id="filter0_b_1265_3714" x="8.32314" y="-5.66905" width="64.3493" height="80.3381" filterUnits="userSpaceOnUse" color-interpolation-filters="sRGB">
<feFlood flood-opacity="0" result="BackgroundImageFix"/>
<feGaussianBlur in="BackgroundImageFix" stdDeviation="3.0064"/>
<feComposite in2="SourceAlpha" operator="in" result="effect1_backgroundBlur_1265_3714"/>
<feBlend mode="normal" in="SourceGraphic" in2="effect1_backgroundBlur_1265_3714" result="shape"/>
</filter>
<linearGradient id="paint0_linear_1265_3714" x1="8.12562" y1="68.4935" x2="37.8018" y2="101.472" gradientUnits="userSpaceOnUse">
<stop stop-color="#BEF6F7"/>
<stop offset="1" stop-color="#57C5C7"/>
</linearGradient>
<radialGradient id="paint1_radial_1265_3714" cx="0" cy="0" r="1" gradientUnits="userSpaceOnUse" gradientTransform="translate(22.8338 6.32132) rotate(57.9536) scale(69.8445 72.0893)">
<stop stop-color="white" stop-opacity="0.801593"/>
<stop offset="1" stop-color="#D4D4D4" stop-opacity="0.35"/>
</radialGradient>
<linearGradient id="paint2_linear_1265_3714" x1="40.4964" y1="1.62235" x2="35.8635" y2="68.1923" gradientUnits="userSpaceOnUse">
<stop stop-color="white"/>
<stop offset="1" stop-color="white" stop-opacity="0"/>
</linearGradient>
</defs>
</svg>
