<svg width="32" height="32" viewBox="0 0 32 32" fill="none" xmlns="http://www.w3.org/2000/svg">
<path d="M20.125 5C18.972 5.067 17.6483 5.70934 16.8613 6.52734C16.1503 7.27134 15.5894 8.37631 15.8184 9.44531C17.0714 9.47831 18.329 8.81933 19.082 7.98633C19.785 7.20733 20.318 6.12 20.125 5ZM20.1934 9.44336C18.3844 9.44336 17.628 10.5547 16.375 10.5547C15.086 10.5547 13.9077 9.51367 12.3477 9.51367C10.2257 9.51467 7 11.4803 7 16.1113C7 20.3243 10.8177 25 12.9727 25C14.2817 25.013 14.599 24.177 16.375 24.168C18.153 24.155 18.5367 25.011 19.8477 25C21.3237 24.989 22.4764 23.367 23.3184 22.082C23.9224 21.162 24.1707 20.6923 24.6387 19.6523C21.1657 18.7723 20.4747 13.1717 24.6387 12.0137C23.8527 10.6727 21.5584 9.44336 20.1934 9.44336Z" fill="white"/>
</svg>
