<svg width="32" height="32" viewBox="0 0 32 32" fill="none" xmlns="http://www.w3.org/2000/svg">
<path d="M19.8066 6.00422C19.7457 5.99484 19.6765 6.0007 19.6015 6.0257C18.6015 6.2257 17.5027 6.8257 16.8027 7.5257C16.2027 8.1257 15.7031 9.1257 15.7031 10.0257C15.7031 10.2257 15.9015 10.4261 16.1015 10.4261C17.2015 10.3261 18.3019 9.7257 19.0019 9.0257C19.6019 8.2257 20.1015 7.32609 20.1015 6.42609C20.1015 6.20109 19.9894 6.03234 19.8066 6.00422ZM20.1015 10.3265C18.3015 10.3265 17.5027 11.4261 16.3027 11.4261C15.0027 11.4261 13.8027 10.4261 12.3027 10.4261C10.2027 10.4261 7.00193 12.4257 7.00193 17.0257C6.90193 21.2257 10.7023 25.9261 12.9023 25.9261C14.2023 25.9261 14.5027 25.1253 16.3027 25.1253C18.1027 25.1253 18.5027 25.9261 19.8027 25.9261C21.3027 25.9261 22.4027 24.3257 23.3027 23.0257C23.7027 22.3257 24.0027 21.9265 24.3027 21.3265C24.5027 20.9265 24.3023 20.5265 23.9023 20.3265C21.3023 19.0265 20.8031 14.8265 23.7031 13.3265C24.2031 13.0265 24.3023 12.4253 23.9023 12.1253C22.8023 11.1253 21.2015 10.3265 20.1015 10.3265Z" fill="white"/>
</svg>
