<svg width="24" height="24" viewBox="0 0 24 24" fill="none" xmlns="http://www.w3.org/2000/svg">
<g clip-path="url(#clip0_1097_8905)">
<path d="M20.0417 20.8216L1.69405 15.9054C0.981168 15.7146 0.558069 14.9814 0.748919 14.2686L3.02018 5.79165C3.21103 5.07881 3.94426 4.65573 4.65715 4.84657L23.0041 9.76209C23.7169 9.95293 24.14 10.6861 23.9492 11.399L21.6779 19.8759C21.4871 20.5887 20.7538 21.0118 20.041 20.8209L20.0417 20.8216Z" fill="url(#paint0_linear_1097_8905)"/>
<g style="mix-blend-mode:multiply" opacity="0.2">
<path d="M4.87152 14.9188C4.8231 14.9188 4.77328 14.9125 4.72417 14.8992L3.10404 14.4649C2.9588 14.4263 2.83461 14.3309 2.75953 14.2004C2.68445 14.0699 2.6641 13.9148 2.7027 13.7696L4.46385 7.19826C4.54524 6.89516 4.85538 6.71555 5.15919 6.79693L6.78002 7.23123C7.08314 7.31262 7.26276 7.62344 7.18137 7.92653C7.09998 8.22893 6.78914 8.40854 6.48603 8.32786L5.4139 8.0409L3.94673 13.5156L5.01886 13.8026C5.32198 13.8839 5.5016 14.1948 5.42021 14.4979C5.35215 14.7511 5.12271 14.9188 4.87222 14.9188H4.87152Z" fill="#913838"/>
<path d="M19.6884 18.888C19.64 18.888 19.5902 18.8817 19.5411 18.8684L17.9209 18.434C17.6178 18.3527 17.4382 18.0418 17.5196 17.7387C17.601 17.4357 17.9111 17.2567 18.2149 17.3374L19.2871 17.6244L20.7542 12.1497L19.6821 11.862C19.379 11.7806 19.1994 11.4698 19.2807 11.1667C19.3621 10.8643 19.6737 10.6847 19.9761 10.7654L21.5969 11.1997C21.9 11.2811 22.0797 11.5919 21.9983 11.895L20.2371 18.4663C20.169 18.7196 19.9396 18.8873 19.6891 18.8873L19.6884 18.888Z" fill="#913838"/>
<path d="M12.3546 16.3972C12.0452 16.3972 11.7337 16.3565 11.427 16.2745C10.5079 16.0282 9.74027 15.4388 9.26384 14.6151C8.78812 13.7914 8.66182 12.8316 8.9081 11.9125C9.15438 10.9934 9.74378 10.2258 10.5675 9.75014C11.3913 9.27445 12.3511 9.14816 13.2703 9.39442C14.1895 9.64069 14.9571 10.23 15.4335 11.0537C15.9092 11.8774 16.0355 12.8372 15.7892 13.7564C15.543 14.6755 14.9536 15.443 14.1298 15.9194C13.5811 16.2366 12.9721 16.3979 12.3546 16.3979V16.3972ZM12.3497 10.4069C11.2783 10.4069 10.2953 11.1225 10.0048 12.2058C9.8371 12.8316 9.9234 13.4862 10.2469 14.0475C10.571 14.6088 11.0945 15.0101 11.7203 15.1785C12.3462 15.3462 13.0009 15.2599 13.5622 14.9358C14.1235 14.6116 14.5249 14.0882 14.6933 13.4624C14.861 12.8365 14.7747 12.1826 14.4512 11.6206C14.127 11.0594 13.6036 10.658 12.9777 10.4896C12.7679 10.4335 12.5574 10.4069 12.3504 10.4069H12.3497Z" fill="#913838"/>
</g>
<g filter="url(#filter0_b_1097_8905)">
<path d="M20.3266 4.9707H1.33275C0.594535 4.9707 -0.00390625 5.56911 -0.00390625 6.30728V15.0824C-0.00390625 15.8206 0.594535 16.419 1.33275 16.419H20.3266C21.0648 16.419 21.6632 15.8206 21.6632 15.0824V6.30728C21.6632 5.56911 21.0648 4.9707 20.3266 4.9707Z" fill="#FFA29D" fill-opacity="0.5"/>
<path d="M1.33275 5.0607H20.3266C21.0151 5.0607 21.5732 5.61882 21.5732 6.30728V15.0824C21.5732 15.7708 21.0151 16.329 20.3266 16.329H1.33275C0.644235 16.329 0.0860938 15.7708 0.0860938 15.0824V6.30728C0.0860938 5.61882 0.644235 5.0607 1.33275 5.0607Z" stroke="url(#paint1_linear_1097_8905)" stroke-width="0.18"/>
</g>
<path d="M3.97186 14.6178H2.2942C1.98056 14.6178 1.72656 14.3638 1.72656 14.0502V7.24729C1.72656 6.93367 1.98056 6.67969 2.2942 6.67969H3.97186C4.2855 6.67969 4.5395 6.93367 4.5395 7.24729C4.5395 7.56092 4.2855 7.8149 3.97186 7.8149H2.86184V13.4832H3.97186C4.2855 13.4832 4.5395 13.7372 4.5395 14.0509C4.5395 14.3645 4.2855 14.6185 3.97186 14.6185V14.6178Z" fill="white"/>
<path d="M19.3078 14.6185H17.6301C17.3165 14.6185 17.0625 14.3645 17.0625 14.0509C17.0625 13.7372 17.3165 13.4832 17.6301 13.4832H18.7402V7.8149H17.6301C17.3165 7.8149 17.0625 7.56092 17.0625 7.24729C17.0625 6.93367 17.3165 6.67969 17.6301 6.67969H19.3078C19.6214 6.67969 19.8754 6.93367 19.8754 7.24729V14.0502C19.8754 14.3638 19.6214 14.6178 19.3078 14.6178V14.6185Z" fill="white"/>
<path d="M10.8077 14.2114C8.84376 14.2114 7.24609 12.6138 7.24609 10.65C7.24609 8.68617 8.84376 7.08789 10.8077 7.08789C12.7716 7.08789 14.3693 8.68547 14.3693 10.65C14.3693 12.6145 12.7716 14.2114 10.8077 14.2114ZM10.8077 8.2231C9.46964 8.2231 8.38067 9.31201 8.38067 10.65C8.38067 11.988 9.46964 13.0769 10.8077 13.0769C12.1458 13.0769 13.2347 11.988 13.2347 10.65C13.2347 9.31201 12.1458 8.2231 10.8077 8.2231Z" fill="white"/>
</g>
<defs>
<filter id="filter0_b_1097_8905" x="-2.40391" y="2.5707" width="26.467" height="16.2482" filterUnits="userSpaceOnUse" color-interpolation-filters="sRGB">
<feFlood flood-opacity="0" result="BackgroundImageFix"/>
<feGaussianBlur in="BackgroundImageFix" stdDeviation="1.2"/>
<feComposite in2="SourceAlpha" operator="in" result="effect1_backgroundBlur_1097_8905"/>
<feBlend mode="normal" in="SourceGraphic" in2="effect1_backgroundBlur_1097_8905" result="shape"/>
</filter>
<linearGradient id="paint0_linear_1097_8905" x1="6.77194" y1="3.17538" x2="17.9263" y2="22.4964" gradientUnits="userSpaceOnUse">
<stop stop-color="#FFBABA"/>
<stop offset="1" stop-color="#FF4C4C"/>
</linearGradient>
<linearGradient id="paint1_linear_1097_8905" x1="1.0119" y1="15.4011" x2="21.5842" y2="4.90376" gradientUnits="userSpaceOnUse">
<stop stop-color="white"/>
<stop offset="1" stop-color="white" stop-opacity="0"/>
</linearGradient>
<clipPath id="clip0_1097_8905">
<rect width="24" height="24" fill="white"/>
</clipPath>
</defs>
</svg>
