<svg width="32" height="32" viewBox="0 0 32 32" fill="none" xmlns="http://www.w3.org/2000/svg">
<path d="M11.5 5C11.372 5 11.244 5.04898 11.1465 5.14648C10.9515 5.34148 10.9515 5.65852 11.1465 5.85352L12.457 7.16406C10.9691 8.25592 10 10.0128 10 12H22C22 10.0128 21.0309 8.25592 19.543 7.16406L20.8535 5.85352C21.0485 5.65752 21.0485 5.34248 20.8535 5.14648C20.6585 4.95148 20.3415 4.95148 20.1465 5.14648L18.6641 6.62891C17.8606 6.22956 16.9582 6 16 6C15.0418 6 14.1394 6.22956 13.3359 6.62891L11.8535 5.14648C11.756 5.04898 11.628 5 11.5 5ZM13 9H14V10H13V9ZM18 9H19V10H18V9ZM8 13C7.448 13 7 13.448 7 14V20C7 20.552 7.448 21 8 21C8.552 21 9 20.552 9 20V14C9 13.448 8.552 13 8 13ZM10 13V21C10 21.552 10.448 22 11 22H12V25.5C12 26.328 12.672 27 13.5 27C14.328 27 15 26.328 15 25.5V22H17V25.5C17 26.328 17.672 27 18.5 27C19.328 27 20 26.328 20 25.5V22H21C21.552 22 22 21.552 22 21V13H10ZM24 13C23.448 13 23 13.448 23 14V20C23 20.552 23.448 21 24 21C24.552 21 25 20.552 25 20V14C25 13.448 24.552 13 24 13Z" fill="white"/>
</svg>
