<svg width="24" height="24" viewBox="0 0 24 24" fill="none" xmlns="http://www.w3.org/2000/svg">
<path d="M22.6139 14.1665L13.6896 9.01422C12.8395 8.52303 11.4618 8.52044 10.6168 9.01163L1.7457 14.1665C0.900706 14.6577 0.909778 15.4553 1.7606 15.9465L10.6849 21.0988C11.535 21.59 12.9082 21.59 13.7532 21.0988L22.6243 15.9433C23.4693 15.4521 23.4647 14.657 22.6146 14.1665H22.6139Z" fill="url(#paint0_linear_1097_8886)"/>
<g filter="url(#filter0_b_1097_8886)">
<path d="M22.6139 8.52194L13.6896 3.36969C12.8395 2.8785 11.4618 2.87591 10.6168 3.36709L1.7457 8.52259C0.900706 9.01377 0.909778 9.81146 1.7606 10.3026L10.6849 15.4549C11.535 15.9461 12.9082 15.9461 13.7532 15.4549L22.6243 10.2994C23.4693 9.80822 23.4647 9.01312 22.6146 8.52259L22.6139 8.52194Z" fill="#BDD8FF" fill-opacity="0.45"/>
<path d="M13.6734 3.39774L13.6734 3.39775L22.591 8.54615L22.5909 8.54632L22.5984 8.55065C23.0176 8.79253 23.221 9.10502 23.2227 9.41093C23.2244 9.71677 23.0245 10.0293 22.608 10.2714L13.7369 15.4269C13.3205 15.6689 12.7719 15.7909 12.221 15.7909C11.67 15.7909 11.1201 15.6689 10.7011 15.4268L10.7011 15.4268L1.7768 10.2746L1.7606 10.3026L1.7768 10.2746C1.35725 10.0324 1.15247 9.71904 1.14962 9.41232C1.14677 9.10577 1.34552 8.79269 1.76198 8.5506L10.6331 3.39511C11.0495 3.15309 11.5991 3.03176 12.1513 3.0324C12.7034 3.03305 13.2544 3.15565 13.6734 3.39774Z" stroke="url(#paint1_linear_1097_8886)" stroke-width="0.0648001"/>
</g>
<g style="mix-blend-mode:saturation">
<path d="M22.6139 8.52194L13.6896 3.36969C12.8395 2.8785 11.4618 2.87591 10.6168 3.36709L1.7457 8.52259C0.900706 9.01377 0.909778 9.81146 1.7606 10.3026L10.6849 15.4549C11.535 15.9461 12.9082 15.9461 13.7532 15.4549L22.6243 10.2994C23.4693 9.80822 23.4647 9.01312 22.6146 8.52259L22.6139 8.52194Z" fill="url(#paint2_linear_1097_8886)"/>
<path d="M22.6139 8.52194L13.6896 3.36969C12.8395 2.8785 11.4618 2.87591 10.6168 3.36709L1.7457 8.52259C0.900706 9.01377 0.909778 9.81146 1.7606 10.3026L10.6849 15.4549C11.535 15.9461 12.9082 15.9461 13.7532 15.4549L22.6243 10.2994C23.4693 9.80822 23.4647 9.01312 22.6146 8.52259L22.6139 8.52194Z" fill="url(#paint3_linear_1097_8886)" style="mix-blend-mode:soft-light"/>
</g>
<g style="mix-blend-mode:screen" opacity="0.5">
<path d="M12.1468 3.20995C12.693 3.20995 13.2036 3.33113 13.5847 3.55145L22.5089 8.7037C22.8543 8.90329 23.0442 9.15536 23.0448 9.41391C23.0448 9.67052 22.8582 9.92065 22.5187 10.1176L13.6475 15.2731C13.2704 15.4922 12.7637 15.6127 12.2206 15.6127C11.6776 15.6127 11.1696 15.4922 10.7892 15.2725L1.86493 10.1209C1.51825 9.92065 1.32709 9.66728 1.32644 9.40678C1.32644 9.15017 1.51242 8.90069 1.85067 8.70435L10.7218 3.54886C11.0976 3.33048 11.6031 3.2106 12.1461 3.2106L12.1468 3.20995ZM12.1468 3C11.5921 3 11.038 3.12182 10.6168 3.36677L1.7457 8.52291C0.900706 9.01409 0.909778 9.81178 1.7606 10.303L10.6849 15.4552C11.11 15.7008 11.6659 15.8233 12.2206 15.8233C12.7753 15.8233 13.33 15.7008 13.7525 15.4552L22.6236 10.2997C23.4686 9.80854 23.4641 9.01345 22.6139 8.52291L13.6896 3.37001C13.2633 3.12377 12.7047 3.00065 12.1468 3.00065V3Z" fill="url(#paint4_linear_1097_8886)"/>
</g>
<defs>
<filter id="filter0_b_1097_8886" x="-1.28281" y="0.6" width="26.9377" height="17.6232" filterUnits="userSpaceOnUse" color-interpolation-filters="sRGB">
<feFlood flood-opacity="0" result="BackgroundImageFix"/>
<feGaussianBlur in="BackgroundImageFix" stdDeviation="1.2"/>
<feComposite in2="SourceAlpha" operator="in" result="effect1_backgroundBlur_1097_8886"/>
<feBlend mode="normal" in="SourceGraphic" in2="effect1_backgroundBlur_1097_8886" result="shape"/>
</filter>
<linearGradient id="paint0_linear_1097_8886" x1="6.47999" y1="9.34923" x2="17.8906" y2="20.7605" gradientUnits="userSpaceOnUse">
<stop stop-color="#66B9FF"/>
<stop offset="1" stop-color="#497FFF"/>
</linearGradient>
<linearGradient id="paint1_linear_1097_8886" x1="2.15507" y1="14.6831" x2="23.9298" y2="4.54814" gradientUnits="userSpaceOnUse">
<stop stop-color="white"/>
<stop offset="1" stop-color="white" stop-opacity="0"/>
</linearGradient>
<linearGradient id="paint2_linear_1097_8886" x1="6.47999" y1="3.70474" x2="17.8912" y2="15.116" gradientUnits="userSpaceOnUse">
<stop stop-color="#66B9FF"/>
<stop offset="1" stop-color="#497FFF"/>
</linearGradient>
<linearGradient id="paint3_linear_1097_8886" x1="17.8906" y1="15.1186" x2="6.4774" y2="3.7047" gradientUnits="userSpaceOnUse">
<stop stop-color="#AECFFF"/>
<stop offset="0.08" stop-color="#B6D3FF"/>
<stop offset="0.48" stop-color="#DDEBFF"/>
<stop offset="0.8" stop-color="#F6F9FF"/>
<stop offset="1" stop-color="#F6F9FF"/>
</linearGradient>
<linearGradient id="paint4_linear_1097_8886" x1="6.47999" y1="3.70502" x2="17.8906" y2="15.1163" gradientUnits="userSpaceOnUse">
<stop stop-color="#C5D4FF"/>
<stop offset="0.45" stop-color="#90A5FF"/>
<stop offset="0.81" stop-color="#6D86FF"/>
<stop offset="1" stop-color="#607BFF"/>
</linearGradient>
</defs>
</svg>
