<svg width="24" height="24" viewBox="0 0 24 24" fill="none" xmlns="http://www.w3.org/2000/svg">
<ellipse cx="12.0487" cy="10.119" rx="7.61905" ry="7.61905" fill="url(#paint0_linear_1097_8930)"/>
<g filter="url(#filter0_b_1097_8930)">
<ellipse cx="12.049" cy="9.51974" rx="3.52169" ry="3.52169" fill="#B4E4C6" fill-opacity="0.5"/>
<path d="M15.4824 9.51974C15.4824 11.4159 13.9452 12.9531 12.049 12.9531C10.1529 12.9531 8.61571 11.4159 8.61571 9.51974C8.61571 7.62357 10.1529 6.08641 12.049 6.08641C13.9452 6.08641 15.4824 7.62357 15.4824 9.51974Z" stroke="url(#paint1_linear_1097_8930)" stroke-width="0.176735"/>
</g>
<g filter="url(#filter1_b_1097_8930)">
<path d="M4.37891 18.5658C4.37891 18.5876 4.37891 18.5986 4.37896 18.6078C4.38908 20.504 5.92375 22.0387 7.81995 22.0488C7.82918 22.0488 7.8401 22.0488 7.86192 22.0488L16.134 22.0488C16.1558 22.0488 16.1667 22.0488 16.176 22.0488C18.0722 22.0387 19.6068 20.504 19.617 18.6078C19.617 18.5986 19.617 18.5876 19.617 18.5658C19.617 18.5367 19.617 18.5222 19.6169 18.5099C19.6034 15.9816 17.5572 13.9354 15.0289 13.9219C15.0166 13.9218 15.0015 13.9218 14.9713 13.9218C12.8059 13.9218 11.19 13.9218 9.02465 13.9218C8.9944 13.9218 8.97928 13.9218 8.96697 13.9219C6.4387 13.9354 4.39247 15.9816 4.37897 18.5098C4.37891 18.5222 4.37891 18.5367 4.37891 18.5658Z" fill="#8DDDAA" fill-opacity="0.6"/>
<path d="M4.48456 18.5658L4.48461 18.6072C4.49442 20.4455 5.98222 21.9333 7.82051 21.9431L7.86192 21.9432L16.134 21.9432L16.1754 21.9431C18.0137 21.9333 19.5015 20.4455 19.5113 18.6072L19.5113 18.5658L19.5113 18.5104C19.4981 16.0401 17.4987 14.0407 15.0284 14.0275L14.9713 14.0274L14.9586 14.0274L14.9459 14.0274L14.9332 14.0274L14.9206 14.0274L14.908 14.0274L14.8954 14.0274L14.8827 14.0274L14.8702 14.0274L14.8576 14.0274L14.845 14.0274L14.8324 14.0274L14.8199 14.0274L14.8074 14.0274L14.7948 14.0274L14.7823 14.0274L14.7698 14.0274L14.7573 14.0274L14.7449 14.0274L14.7324 14.0274L14.72 14.0274L14.7075 14.0274L14.6951 14.0274L14.6827 14.0274L14.6703 14.0274L14.6579 14.0274L14.6455 14.0274L14.6331 14.0274L14.6208 14.0274L14.6084 14.0274L14.5961 14.0274L14.5837 14.0274L14.5714 14.0274L14.5591 14.0274L14.5468 14.0274L14.5345 14.0274L14.5223 14.0274L14.51 14.0274L14.4978 14.0274L14.4855 14.0274L14.4733 14.0274L14.4611 14.0274L14.4489 14.0274L14.4367 14.0274L14.4245 14.0274L14.4123 14.0274L14.4001 14.0274L14.388 14.0274L14.3758 14.0274L14.3637 14.0274L14.3516 14.0274L14.3395 14.0274L14.3274 14.0274L14.3153 14.0274L14.3032 14.0274L14.2911 14.0274L14.279 14.0274L14.267 14.0274L14.2549 14.0274L14.2429 14.0274L14.2309 14.0274L14.2189 14.0274L14.2068 14.0274L14.1949 14.0274L14.1829 14.0274L14.1709 14.0274L14.1589 14.0274L14.147 14.0274L14.135 14.0274L14.1231 14.0274L14.1111 14.0274L14.0992 14.0274L14.0873 14.0274L14.0754 14.0274L14.0635 14.0274L14.0516 14.0274L14.0397 14.0274L14.0279 14.0274L14.016 14.0274L14.0041 14.0274L13.9923 14.0274L13.9805 14.0274L13.9686 14.0274L13.9568 14.0274L13.945 14.0274L13.9332 14.0274L13.9214 14.0274L13.9096 14.0274L13.8979 14.0274L13.8861 14.0274L13.8743 14.0274L13.8626 14.0274L13.8508 14.0274L13.8391 14.0274L13.8274 14.0274L13.8157 14.0274L13.804 14.0274L13.7923 14.0274L13.7806 14.0274L13.7689 14.0274L13.7572 14.0274L13.7455 14.0274L13.7339 14.0274L13.7222 14.0274L13.7106 14.0274L13.6989 14.0274L13.6873 14.0274L13.6756 14.0274L13.664 14.0274L13.6524 14.0274L13.6408 14.0274L13.6292 14.0274L13.6176 14.0274L13.606 14.0274L13.5945 14.0274L13.5829 14.0274L13.5713 14.0274L13.5598 14.0274L13.5482 14.0274L13.5367 14.0274L13.5251 14.0274L13.5136 14.0274L13.5021 14.0274L13.4906 14.0274L13.4791 14.0274L13.4676 14.0274L13.4561 14.0274L13.4446 14.0274L13.4331 14.0274L13.4216 14.0274L13.4102 14.0274L13.3987 14.0274L13.3872 14.0274L13.3758 14.0274L13.3643 14.0274L13.3529 14.0274L13.3415 14.0274L13.33 14.0274L13.3186 14.0274L13.3072 14.0274L13.2958 14.0274L13.2844 14.0274L13.273 14.0274L13.2616 14.0274L13.2502 14.0274L13.2388 14.0274L13.2274 14.0274L13.2161 14.0274L13.2047 14.0274L13.1933 14.0274L13.182 14.0274L13.1706 14.0274L13.1593 14.0274L13.1479 14.0274L13.1366 14.0274L13.1253 14.0274L13.1139 14.0274L13.1026 14.0274L13.0913 14.0274L13.08 14.0274L13.0687 14.0274L13.0574 14.0274L13.0461 14.0274L13.0348 14.0274L13.0235 14.0274L13.0122 14.0274L13.0009 14.0274L12.9897 14.0274L12.9784 14.0274L12.9671 14.0274L12.9559 14.0274L12.9446 14.0274L12.9334 14.0274L12.9221 14.0274L12.9109 14.0274L12.8996 14.0274L12.8884 14.0274L12.8771 14.0274L12.8659 14.0274L12.8547 14.0274L12.8435 14.0274L12.8323 14.0274L12.821 14.0274L12.8098 14.0274L12.7986 14.0274L12.7874 14.0274L12.7762 14.0274L12.765 14.0274L12.7538 14.0274L12.7426 14.0274L12.7315 14.0274L12.7203 14.0274L12.7091 14.0274L12.6979 14.0274L12.6867 14.0274L12.6756 14.0274L12.6644 14.0274L12.6532 14.0274L12.6421 14.0274L12.6309 14.0274L12.6198 14.0274L12.6086 14.0274L12.5975 14.0274L12.5863 14.0274L12.5752 14.0274L12.564 14.0274L12.5529 14.0274L12.5417 14.0274L12.5306 14.0274L12.5195 14.0274L12.5083 14.0274L12.4972 14.0274L12.4861 14.0274L12.475 14.0274L12.4638 14.0274L12.4527 14.0274L12.4416 14.0274L12.4305 14.0274L12.4194 14.0274L12.4083 14.0274L12.3971 14.0274L12.386 14.0274L12.3749 14.0274L12.3638 14.0274L12.3527 14.0274L12.3416 14.0274L12.3305 14.0274L12.3194 14.0274L12.3083 14.0274L12.2972 14.0274L12.2861 14.0274L12.275 14.0274L12.2639 14.0274L12.2528 14.0274L12.2418 14.0274L12.2307 14.0274L12.2196 14.0274L12.2085 14.0274L12.1974 14.0274L12.1863 14.0274L12.1752 14.0274L12.1642 14.0274L12.1531 14.0274L12.142 14.0274L12.1309 14.0274L12.1198 14.0274L12.1087 14.0274L12.0977 14.0274L12.0866 14.0274L12.0755 14.0274L12.0644 14.0274L12.0533 14.0274L12.0423 14.0274L12.0312 14.0274L12.0201 14.0274L12.009 14.0274L11.998 14.0274L11.9869 14.0274L11.9758 14.0274L11.9647 14.0274L11.9536 14.0274L11.9426 14.0274L11.9315 14.0274L11.9204 14.0274L11.9093 14.0274L11.8982 14.0274L11.8872 14.0274L11.8761 14.0274L11.865 14.0274L11.8539 14.0274L11.8428 14.0274L11.8318 14.0274L11.8207 14.0274L11.8096 14.0274L11.7985 14.0274L11.7874 14.0274L11.7763 14.0274L11.7652 14.0274L11.7542 14.0274L11.7431 14.0274L11.732 14.0274L11.7209 14.0274L11.7098 14.0274L11.6987 14.0274L11.6876 14.0274L11.6765 14.0274L11.6654 14.0274L11.6543 14.0274L11.6432 14.0274L11.6321 14.0274L11.621 14.0274L11.6099 14.0274L11.5988 14.0274L11.5877 14.0274L11.5765 14.0274L11.5654 14.0274L11.5543 14.0274L11.5432 14.0274L11.5321 14.0274L11.521 14.0274L11.5098 14.0274L11.4987 14.0274L11.4876 14.0274L11.4764 14.0274L11.4653 14.0274L11.4542 14.0274L11.443 14.0274L11.4319 14.0274L11.4207 14.0274L11.4096 14.0274L11.3985 14.0274L11.3873 14.0274L11.3762 14.0274L11.365 14.0274L11.3538 14.0274L11.3427 14.0274L11.3315 14.0274L11.3203 14.0274L11.3092 14.0274L11.298 14.0274L11.2868 14.0274L11.2756 14.0274L11.2645 14.0274L11.2533 14.0274L11.2421 14.0274L11.2309 14.0274L11.2197 14.0274L11.2085 14.0274L11.1973 14.0274L11.1861 14.0274L11.1749 14.0274L11.1637 14.0274L11.1524 14.0274L11.1412 14.0274L11.13 14.0274L11.1188 14.0274L11.1075 14.0274L11.0963 14.0274L11.085 14.0274L11.0738 14.0274L11.0626 14.0274L11.0513 14.0274L11.04 14.0274L11.0288 14.0274L11.0175 14.0274L11.0062 14.0274L10.995 14.0274L10.9837 14.0274L10.9724 14.0274L10.9611 14.0274L10.9498 14.0274L10.9385 14.0274L10.9272 14.0274L10.9159 14.0274L10.9046 14.0274L10.8933 14.0274L10.882 14.0274L10.8706 14.0274L10.8593 14.0274L10.848 14.0274L10.8366 14.0274L10.8253 14.0274L10.8139 14.0274L10.8026 14.0274L10.7912 14.0274L10.7799 14.0274L10.7685 14.0274L10.7571 14.0274L10.7457 14.0274L10.7343 14.0274L10.7229 14.0274L10.7115 14.0274L10.7001 14.0274L10.6887 14.0274L10.6773 14.0274L10.6659 14.0274L10.6545 14.0274L10.643 14.0274L10.6316 14.0274L10.6201 14.0274L10.6087 14.0274L10.5972 14.0274L10.5858 14.0274L10.5743 14.0274L10.5628 14.0274L10.5513 14.0274L10.5398 14.0274L10.5283 14.0274L10.5168 14.0274L10.5053 14.0274L10.4938 14.0274L10.4823 14.0274L10.4708 14.0274L10.4592 14.0274L10.4477 14.0274L10.4361 14.0274L10.4246 14.0274L10.413 14.0274L10.4014 14.0274L10.3899 14.0274L10.3783 14.0274L10.3667 14.0274L10.3551 14.0274L10.3435 14.0274L10.3319 14.0274L10.3203 14.0274L10.3086 14.0274L10.297 14.0274L10.2854 14.0274L10.2737 14.0274L10.2621 14.0274L10.2504 14.0274L10.2387 14.0274L10.227 14.0274L10.2153 14.0274L10.2037 14.0274L10.192 14.0274L10.1802 14.0274L10.1685 14.0274L10.1568 14.0274L10.1451 14.0274L10.1333 14.0274L10.1216 14.0274L10.1098 14.0274L10.098 14.0274L10.0863 14.0274L10.0745 14.0274L10.0627 14.0274L10.0509 14.0274L10.0391 14.0274L10.0273 14.0274L10.0154 14.0274L10.0036 14.0274L9.99176 14.0274L9.97991 14.0274L9.96805 14.0274L9.95618 14.0274L9.9443 14.0274L9.93241 14.0274L9.92052 14.0274L9.90861 14.0274L9.8967 14.0274L9.88478 14.0274L9.87284 14.0274L9.8609 14.0274L9.84895 14.0274L9.83699 14.0274L9.82502 14.0274L9.81304 14.0274L9.80106 14.0274L9.78906 14.0274L9.77705 14.0274L9.76504 14.0274L9.75301 14.0274L9.74097 14.0274L9.72893 14.0274L9.71687 14.0274L9.70481 14.0274L9.69273 14.0274L9.68065 14.0274L9.66855 14.0274L9.65645 14.0274L9.64433 14.0274L9.63221 14.0274L9.62007 14.0274L9.60793 14.0274L9.59577 14.0274L9.5836 14.0274L9.57143 14.0274L9.55924 14.0274L9.54704 14.0274L9.53483 14.0274L9.52262 14.0274L9.51039 14.0274L9.49815 14.0274L9.4859 14.0274L9.47364 14.0274L9.46136 14.0274L9.44908 14.0274L9.43679 14.0274L9.42448 14.0274L9.41217 14.0274L9.39984 14.0274L9.3875 14.0274L9.37515 14.0274L9.36279 14.0274L9.35042 14.0274L9.33804 14.0274L9.32564 14.0274L9.31324 14.0274L9.30082 14.0274L9.28839 14.0274L9.27595 14.0274L9.2635 14.0274L9.25104 14.0274L9.23856 14.0274L9.22608 14.0274L9.21358 14.0274L9.20107 14.0274L9.18854 14.0274L9.17601 14.0274L9.16346 14.0274L9.15091 14.0274L9.13834 14.0274L9.12575 14.0274L9.11316 14.0274L9.10055 14.0274L9.08793 14.0274L9.0753 14.0274L9.06266 14.0274L9.05 14.0274L9.03733 14.0274L9.02465 14.0274L8.96753 14.0275C6.49717 14.0407 4.49781 16.0401 4.48462 18.5104L4.48456 18.5658Z" stroke="url(#paint2_linear_1097_8930)" stroke-width="0.211302"/>
</g>
<defs>
<filter id="filter0_b_1097_8930" x="6.4949" y="3.9656" width="11.1079" height="11.1079" filterUnits="userSpaceOnUse" color-interpolation-filters="sRGB">
<feFlood flood-opacity="0" result="BackgroundImageFix"/>
<feGaussianBlur in="BackgroundImageFix" stdDeviation="1.01622"/>
<feComposite in2="SourceAlpha" operator="in" result="effect1_backgroundBlur_1097_8930"/>
<feBlend mode="normal" in="SourceGraphic" in2="effect1_backgroundBlur_1097_8930" result="shape"/>
</filter>
<filter id="filter1_b_1097_8930" x="2.07257" y="11.6155" width="19.851" height="12.7396" filterUnits="userSpaceOnUse" color-interpolation-filters="sRGB">
<feFlood flood-opacity="0" result="BackgroundImageFix"/>
<feGaussianBlur in="BackgroundImageFix" stdDeviation="1.15317"/>
<feComposite in2="SourceAlpha" operator="in" result="effect1_backgroundBlur_1097_8930"/>
<feBlend mode="normal" in="SourceGraphic" in2="effect1_backgroundBlur_1097_8930" result="shape"/>
</filter>
<linearGradient id="paint0_linear_1097_8930" x1="8.82529" y1="5.83333" x2="20.5173" y2="9.85413" gradientUnits="userSpaceOnUse">
<stop stop-color="#2BAB5A"/>
<stop offset="1" stop-color="#35794E"/>
</linearGradient>
<linearGradient id="paint1_linear_1097_8930" x1="8.52734" y1="7.31868" x2="11.9115" y2="12.8767" gradientUnits="userSpaceOnUse">
<stop stop-color="white"/>
<stop offset="0.99715" stop-color="white" stop-opacity="0"/>
</linearGradient>
<linearGradient id="paint2_linear_1097_8930" x1="5.09331" y1="14.6444" x2="19.617" y2="21.9863" gradientUnits="userSpaceOnUse">
<stop stop-color="white"/>
<stop offset="1" stop-color="white" stop-opacity="0"/>
</linearGradient>
</defs>
</svg>
