<svg width="49" height="48" viewBox="0 0 49 48" fill="none" xmlns="http://www.w3.org/2000/svg">
<g clip-path="url(#clip0_1079_1220)">
<path d="M40.4085 41.6413L3.7133 31.8089C2.28753 31.4272 1.44133 29.9609 1.82303 28.5352L6.36556 11.5813C6.74726 10.1557 8.21372 9.30951 9.63949 9.69119L46.3333 19.5222C47.7591 19.9039 48.6053 21.3703 48.2236 22.796L43.6811 39.7498C43.2994 41.1755 41.8329 42.0216 40.4071 41.6399L40.4085 41.6413Z" fill="url(#paint0_linear_1079_1220)"/>
<path d="M40.4085 41.6413L3.7133 31.8089C2.28753 31.4272 1.44133 29.9609 1.82303 28.5352L6.36556 11.5813C6.74726 10.1557 8.21372 9.30951 9.63949 9.69119L46.3333 19.5222C47.7591 19.9039 48.6053 21.3703 48.2236 22.796L43.6811 39.7498C43.2994 41.1755 41.8329 42.0216 40.4071 41.6399L40.4085 41.6413Z" fill="url(#paint1_linear_1079_1220)"/>
<g style="mix-blend-mode:multiply" opacity="0.2">
<path d="M10.0682 29.8377C9.9714 29.8377 9.87176 29.825 9.77353 29.7984L6.53328 28.9298C6.24279 28.8526 5.99441 28.6618 5.84425 28.4008C5.6941 28.1398 5.6534 27.8296 5.73059 27.5392L9.2529 14.3965C9.41568 13.7903 10.0359 13.4311 10.6436 13.5939L13.8852 14.4625C14.4915 14.6252 14.8507 15.2469 14.6879 15.8531C14.5251 16.4579 13.9035 16.8171 13.2972 16.6557L11.153 16.0818L8.21866 27.0312L10.3629 27.6051C10.9692 27.7679 11.3284 28.3895 11.1656 28.9957C11.0295 29.5023 10.5706 29.8377 10.0696 29.8377H10.0682Z" fill="#913838"/>
<path d="M39.7059 37.7779C39.6091 37.7779 39.5095 37.7653 39.4112 37.7387L36.171 36.8701C35.5647 36.7073 35.2055 36.0856 35.3683 35.4795C35.5311 34.8733 36.1513 34.5154 36.759 34.6768L38.9032 35.2507L41.8376 24.3013L39.6933 23.726C39.0871 23.5632 38.7278 22.9416 38.8906 22.3354C39.0534 21.7306 39.6765 21.3714 40.2813 21.5327L43.5229 22.4013C44.1292 22.5641 44.4884 23.1858 44.3256 23.7919L40.8033 36.9346C40.6672 37.4412 40.2083 37.7765 39.7073 37.7765L39.7059 37.7779Z" fill="#913838"/>
<path d="M25.0345 32.7945C24.4156 32.7945 23.7925 32.7131 23.1793 32.5489C21.341 32.0564 19.8057 30.8777 18.8529 29.2303C17.9014 27.5829 17.6488 25.6633 18.1414 23.825C18.634 21.9868 19.8127 20.4517 21.4602 19.5003C23.1077 18.5489 25.0275 18.2963 26.8658 18.7888C28.7041 19.2814 30.2394 20.4601 31.1922 22.1075C32.1437 23.7549 32.3963 25.6745 31.9037 27.5127C31.4111 29.351 30.2323 30.8861 28.5849 31.8389C27.4875 32.4731 26.2694 32.7959 25.0345 32.7959V32.7945ZM25.0247 20.8137C22.8818 20.8137 20.9158 22.245 20.3348 24.4116C19.9994 25.6633 20.172 26.9725 20.8189 28.0951C21.4673 29.2177 22.5141 30.0203 23.7659 30.3571C25.0176 30.6924 26.3269 30.5198 27.4496 29.8716C28.5722 29.2233 29.3749 28.1765 29.7117 26.9248C30.0471 25.6731 29.8745 24.3653 29.2276 23.2413C28.5792 22.1187 27.5324 21.3161 26.2806 20.9793C25.861 20.867 25.44 20.8137 25.0261 20.8137H25.0247Z" fill="#913838"/>
</g>
<g filter="url(#filter0_b_1079_1220)">
<path d="M40.9862 9.93945H2.99851C1.52208 9.93945 0.325195 11.1363 0.325195 12.6126V30.1628C0.325195 31.6391 1.52208 32.836 2.99851 32.836H40.9862C42.4626 32.836 43.6595 31.6391 43.6595 30.1628V12.6126C43.6595 11.1363 42.4626 9.93945 40.9862 9.93945Z" fill="url(#paint2_radial_1079_1220)"/>
<path d="M2.99851 10.1195H40.9862C42.3632 10.1195 43.4795 11.2357 43.4795 12.6126V30.1628C43.4795 31.5397 42.3632 32.656 40.9862 32.656H2.99851C1.62148 32.656 0.505195 31.5397 0.505195 30.1628V12.6126C0.505195 11.2357 1.62148 10.1195 2.99851 10.1195Z" stroke="url(#paint3_linear_1079_1220)" stroke-width="0.36"/>
</g>
<path d="M8.28064 29.2355H4.92532C4.29804 29.2355 3.79004 28.7276 3.79004 28.1003V14.4946C3.79004 13.8673 4.29804 13.3594 4.92532 13.3594H8.28064C8.90792 13.3594 9.41592 13.8673 9.41592 14.4946C9.41592 15.1218 8.90792 15.6298 8.28064 15.6298H6.0606V26.9665H8.28064C8.90792 26.9665 9.41592 27.4745 9.41592 28.1017C9.41592 28.729 8.90792 29.2369 8.28064 29.2369V29.2355Z" fill="white"/>
<path d="M38.9447 29.235H35.5894C34.9621 29.235 34.4541 28.727 34.4541 28.0998C34.4541 27.4725 34.9621 26.9645 35.5894 26.9645H37.8094V15.6278H35.5894C34.9621 15.6278 34.4541 15.1199 34.4541 14.4926C34.4541 13.8654 34.9621 13.3574 35.5894 13.3574H38.9447C39.572 13.3574 40.08 13.8654 40.08 14.4926V28.0984C40.08 28.7256 39.572 29.2336 38.9447 29.2336V29.235Z" fill="white"/>
<path d="M21.9484 28.4208C18.0205 28.4208 14.8252 25.2257 14.8252 21.298C14.8252 17.3704 18.0205 14.1738 21.9484 14.1738C25.8763 14.1738 29.0716 17.369 29.0716 21.298C29.0716 25.2271 25.8763 28.4208 21.9484 28.4208ZM21.9484 16.4443C19.2723 16.4443 17.0944 18.6221 17.0944 21.298C17.0944 23.974 19.2723 26.1518 21.9484 26.1518C24.6245 26.1518 26.8025 23.974 26.8025 21.298C26.8025 18.6221 24.6245 16.4443 21.9484 16.4443Z" fill="white"/>
</g>
<defs>
<filter id="filter0_b_1079_1220" x="-4.4748" y="5.13945" width="52.934" height="32.4965" filterUnits="userSpaceOnUse" color-interpolation-filters="sRGB">
<feFlood flood-opacity="0" result="BackgroundImageFix"/>
<feGaussianBlur in="BackgroundImageFix" stdDeviation="2.4"/>
<feComposite in2="SourceAlpha" operator="in" result="effect1_backgroundBlur_1079_1220"/>
<feBlend mode="normal" in="SourceGraphic" in2="effect1_backgroundBlur_1079_1220" result="shape"/>
</filter>
<linearGradient id="paint0_linear_1079_1220" x1="-3.13432" y1="25.6894" x2="15.1857" y2="38.9931" gradientUnits="userSpaceOnUse">
<stop stop-color="#FFE399"/>
<stop offset="1" stop-color="#FCAF17"/>
</linearGradient>
<linearGradient id="paint1_linear_1079_1220" x1="-3.13432" y1="25.6894" x2="15.1857" y2="38.9931" gradientUnits="userSpaceOnUse">
<stop stop-color="#FFE399"/>
<stop offset="1" stop-color="#FCAF17"/>
</linearGradient>
<radialGradient id="paint2_radial_1079_1220" cx="0" cy="0" r="1" gradientUnits="userSpaceOnUse" gradientTransform="translate(3.54996 11.5) rotate(49.5383) scale(26.1925 34.5244)">
<stop stop-color="white" stop-opacity="0.801593"/>
<stop offset="1" stop-color="#D4D4D4" stop-opacity="0.35"/>
</radialGradient>
<linearGradient id="paint3_linear_1079_1220" x1="2.35681" y1="30.8002" x2="43.5014" y2="9.80556" gradientUnits="userSpaceOnUse">
<stop stop-color="white"/>
<stop offset="1" stop-color="white" stop-opacity="0"/>
</linearGradient>
<clipPath id="clip0_1079_1220">
<rect width="48" height="48" fill="white" transform="translate(0.333008)"/>
</clipPath>
</defs>
</svg>
