<svg width="49" height="48" viewBox="0 0 49 48" fill="none" xmlns="http://www.w3.org/2000/svg">
<ellipse cx="24.7723" cy="20.2381" rx="15.2381" ry="15.2381" fill="url(#paint0_linear_1079_1246)"/>
<g filter="url(#filter0_b_1079_1246)">
<ellipse cx="24.769" cy="19.0395" rx="7.04339" ry="7.04339" fill="url(#paint1_radial_1079_1246)"/>
<path d="M31.6356 19.0395C31.6356 22.8318 28.5613 25.9061 24.769 25.9061C20.9766 25.9061 17.9023 22.8318 17.9023 19.0395C17.9023 15.2471 20.9766 12.1728 24.769 12.1728C28.5613 12.1728 31.6356 15.2471 31.6356 19.0395Z" stroke="url(#paint2_linear_1079_1246)" stroke-width="0.353469"/>
</g>
<g filter="url(#filter1_b_1079_1246)">
<path d="M9.42871 37.1316C9.42871 37.1753 9.42871 37.1971 9.42881 37.2156C9.44905 41.008 12.5184 44.0773 16.3108 44.0976C16.3293 44.0977 16.3511 44.0977 16.3947 44.0977L32.9389 44.0977C32.9825 44.0977 33.0043 44.0977 33.0228 44.0976C36.8152 44.0773 39.8846 41.008 39.9048 37.2156C39.9049 37.1971 39.9049 37.1753 39.9049 37.1316C39.9049 37.0734 39.9049 37.0443 39.9048 37.0197C39.8778 31.9632 35.7853 27.8707 30.7288 27.8437C30.7042 27.8436 30.6739 27.8436 30.6134 27.8436C26.2827 27.8436 23.0509 27.8436 18.7202 27.8436C18.6597 27.8436 18.6294 27.8436 18.6048 27.8437C13.5483 27.8707 9.45583 31.9632 9.42884 37.0197C9.42871 37.0443 9.42871 37.0734 9.42871 37.1316Z" fill="url(#paint3_radial_1079_1246)"/>
<path d="M9.64001 37.1316L9.64011 37.2144C9.65973 40.891 12.6353 43.8666 16.3119 43.8863L16.3947 43.8864L32.9389 43.8864L33.0217 43.8863C36.6983 43.8666 39.6739 40.891 39.6935 37.2144L39.6936 37.1316C39.6936 37.0732 39.6936 37.0447 39.6935 37.0208C39.6671 32.0801 35.6684 28.0814 30.7277 28.055C30.7037 28.0549 30.6742 28.0549 30.6134 28.0549L30.588 28.0549L30.5627 28.0549L30.5374 28.0549L30.5121 28.0549L30.4868 28.0549L30.4616 28.0549L30.4364 28.0549L30.4112 28.0549L30.386 28.0549L30.3609 28.0549L30.3358 28.0549L30.3107 28.0549L30.2856 28.0549L30.2606 28.0549L30.2356 28.0549L30.2106 28.0549L30.1856 28.0549L30.1606 28.0549L30.1357 28.0549L30.1108 28.0549L30.0859 28.0549L30.0611 28.0549L30.0362 28.0549L30.0114 28.0549L29.9866 28.0549L29.9619 28.0549L29.9371 28.0549L29.9124 28.0549L29.8877 28.0549L29.863 28.0549L29.8384 28.0549L29.8138 28.0549L29.7891 28.0549L29.7646 28.0549L29.74 28.0549L29.7154 28.0549L29.6909 28.0549L29.6664 28.0549L29.6419 28.0549L29.6175 28.0549L29.593 28.0549L29.5686 28.0549L29.5442 28.0549L29.5199 28.0549L29.4955 28.0549L29.4712 28.0549L29.4469 28.0549L29.4226 28.0549L29.3983 28.0549L29.374 28.0549L29.3498 28.0549L29.3256 28.0549L29.3014 28.0549L29.2772 28.0549L29.2531 28.0549L29.229 28.0549L29.2049 28.0549L29.1808 28.0549L29.1567 28.0549L29.1326 28.0549L29.1086 28.0549L29.0846 28.0549L29.0606 28.0549L29.0366 28.0549L29.0127 28.0549L28.9887 28.0549L28.9648 28.0549L28.9409 28.0549L28.917 28.0549L28.8932 28.0549L28.8693 28.0549L28.8455 28.0549L28.8217 28.0549L28.7979 28.0549L28.7741 28.0549L28.7504 28.0549L28.7266 28.0549L28.7029 28.0549L28.6792 28.0549L28.6555 28.0549L28.6318 28.0549L28.6082 28.0549L28.5845 28.0549L28.5609 28.0549L28.5373 28.0549L28.5137 28.0549L28.4902 28.0549L28.4666 28.0549L28.4431 28.0549L28.4196 28.0549L28.3961 28.0549L28.3726 28.0549L28.3491 28.0549L28.3257 28.0549L28.3022 28.0549L28.2788 28.0549L28.2554 28.0549L28.232 28.0549L28.2086 28.0549L28.1853 28.0549L28.1619 28.0549L28.1386 28.0549L28.1153 28.0549L28.092 28.0549L28.0687 28.0549L28.0454 28.0549L28.0222 28.0549L27.999 28.0549L27.9757 28.0549L27.9525 28.0549L27.9293 28.0549L27.9061 28.0549L27.883 28.0549L27.8598 28.0549L27.8367 28.0549L27.8136 28.0549L27.7904 28.0549L27.7673 28.0549L27.7443 28.0549L27.7212 28.0549L27.6981 28.0549L27.6751 28.0549L27.6521 28.0549L27.629 28.0549L27.606 28.0549L27.583 28.0549L27.5601 28.0549L27.5371 28.0549L27.5141 28.0549L27.4912 28.0549L27.4683 28.0549L27.4454 28.0549L27.4224 28.0549L27.3996 28.0549L27.3767 28.0549L27.3538 28.0549L27.3309 28.0549L27.3081 28.0549L27.2853 28.0549L27.2624 28.0549L27.2396 28.0549L27.2168 28.0549L27.194 28.0549L27.1713 28.0549L27.1485 28.0549L27.1257 28.0549L27.103 28.0549L27.0803 28.0549L27.0575 28.0549L27.0348 28.0549L27.0121 28.0549L26.9894 28.0549L26.9668 28.0549L26.9441 28.0549L26.9214 28.0549L26.8988 28.0549L26.8761 28.0549L26.8535 28.0549L26.8309 28.0549L26.8083 28.0549L26.7857 28.0549L26.7631 28.0549L26.7405 28.0549L26.7179 28.0549L26.6953 28.0549L26.6728 28.0549L26.6502 28.0549L26.6277 28.0549L26.6051 28.0549L26.5826 28.0549L26.5601 28.0549L26.5376 28.0549L26.5151 28.0549L26.4926 28.0549L26.4701 28.0549L26.4477 28.0549L26.4252 28.0549L26.4027 28.0549L26.3803 28.0549L26.3578 28.0549L26.3354 28.0549L26.313 28.0549L26.2906 28.0549L26.2681 28.0549L26.2457 28.0549L26.2233 28.0549L26.2009 28.0549L26.1786 28.0549L26.1562 28.0549L26.1338 28.0549L26.1114 28.0549L26.0891 28.0549L26.0667 28.0549L26.0444 28.0549L26.022 28.0549L25.9997 28.0549L25.9774 28.0549L25.955 28.0549L25.9327 28.0549L25.9104 28.0549L25.8881 28.0549L25.8658 28.0549L25.8435 28.0549L25.8212 28.0549L25.7989 28.0549L25.7766 28.0549L25.7544 28.0549L25.7321 28.0549L25.7098 28.0549L25.6876 28.0549L25.6653 28.0549L25.6431 28.0549L25.6208 28.0549L25.5986 28.0549L25.5763 28.0549L25.5541 28.0549L25.5319 28.0549L25.5096 28.0549L25.4874 28.0549L25.4652 28.0549L25.443 28.0549L25.4207 28.0549L25.3985 28.0549L25.3763 28.0549L25.3541 28.0549L25.3319 28.0549L25.3097 28.0549L25.2875 28.0549L25.2653 28.0549L25.2431 28.0549L25.221 28.0549L25.1988 28.0549L25.1766 28.0549L25.1544 28.0549L25.1322 28.0549L25.1101 28.0549L25.0879 28.0549L25.0657 28.0549L25.0435 28.0549L25.0214 28.0549L24.9992 28.0549L24.977 28.0549L24.9549 28.0549L24.9327 28.0549L24.9105 28.0549L24.8884 28.0549L24.8662 28.0549L24.8441 28.0549L24.8219 28.0549L24.7997 28.0549L24.7776 28.0549L24.7554 28.0549L24.7333 28.0549L24.7111 28.0549L24.689 28.0549L24.6668 28.0549L24.6447 28.0549L24.6225 28.0549L24.6003 28.0549L24.5782 28.0549L24.556 28.0549L24.5339 28.0549L24.5117 28.0549L24.4896 28.0549L24.4674 28.0549L24.4452 28.0549L24.4231 28.0549L24.4009 28.0549L24.3787 28.0549L24.3566 28.0549L24.3344 28.0549L24.3122 28.0549L24.2901 28.0549L24.2679 28.0549L24.2457 28.0549L24.2236 28.0549L24.2014 28.0549L24.1792 28.0549L24.157 28.0549L24.1348 28.0549L24.1127 28.0549L24.0905 28.0549L24.0683 28.0549L24.0461 28.0549L24.0239 28.0549L24.0017 28.0549L23.9795 28.0549L23.9573 28.0549L23.9351 28.0549L23.9129 28.0549L23.8906 28.0549L23.8684 28.0549L23.8462 28.0549L23.824 28.0549L23.8018 28.0549L23.7795 28.0549L23.7573 28.0549L23.735 28.0549L23.7128 28.0549L23.6906 28.0549L23.6683 28.0549L23.646 28.0549L23.6238 28.0549L23.6015 28.0549L23.5792 28.0549L23.557 28.0549L23.5347 28.0549L23.5124 28.0549L23.4901 28.0549L23.4678 28.0549L23.4455 28.0549L23.4232 28.0549L23.4009 28.0549L23.3786 28.0549L23.3562 28.0549L23.3339 28.0549L23.3116 28.0549L23.2892 28.0549L23.2669 28.0549L23.2445 28.0549L23.2222 28.0549L23.1998 28.0549L23.1774 28.0549L23.1551 28.0549L23.1327 28.0549L23.1103 28.0549L23.0879 28.0549L23.0655 28.0549L23.0431 28.0549L23.0206 28.0549L22.9982 28.0549L22.9758 28.0549L22.9533 28.0549L22.9309 28.0549L22.9084 28.0549L22.886 28.0549L22.8635 28.0549L22.841 28.0549L22.8185 28.0549L22.796 28.0549L22.7735 28.0549L22.751 28.0549L22.7285 28.0549L22.7059 28.0549L22.6834 28.0549L22.6608 28.0549L22.6383 28.0549L22.6157 28.0549L22.5931 28.0549L22.5706 28.0549L22.548 28.0549L22.5254 28.0549L22.5027 28.0549L22.4801 28.0549L22.4575 28.0549L22.4348 28.0549L22.4122 28.0549L22.3895 28.0549L22.3669 28.0549L22.3442 28.0549L22.3215 28.0549L22.2988 28.0549L22.2761 28.0549L22.2533 28.0549L22.2306 28.0549L22.2079 28.0549L22.1851 28.0549L22.1623 28.0549L22.1396 28.0549L22.1168 28.0549L22.094 28.0549L22.0712 28.0549L22.0483 28.0549L22.0255 28.0549L22.0027 28.0549L21.9798 28.0549L21.9569 28.0549L21.9341 28.0549L21.9112 28.0549L21.8883 28.0549L21.8653 28.0549L21.8424 28.0549L21.8195 28.0549L21.7965 28.0549L21.7735 28.0549L21.7506 28.0549L21.7276 28.0549L21.7046 28.0549L21.6816 28.0549L21.6585 28.0549L21.6355 28.0549L21.6124 28.0549L21.5893 28.0549L21.5663 28.0549L21.5432 28.0549L21.5201 28.0549L21.4969 28.0549L21.4738 28.0549L21.4506 28.0549L21.4275 28.0549L21.4043 28.0549L21.3811 28.0549L21.3579 28.0549L21.3347 28.0549L21.3114 28.0549L21.2882 28.0549L21.2649 28.0549L21.2416 28.0549L21.2183 28.0549L21.195 28.0549L21.1717 28.0549L21.1483 28.0549L21.125 28.0549L21.1016 28.0549L21.0782 28.0549L21.0548 28.0549L21.0314 28.0549L21.0079 28.0549L20.9845 28.0549L20.961 28.0549L20.9375 28.0549L20.914 28.0549L20.8905 28.0549L20.867 28.0549L20.8434 28.0549L20.8199 28.0549L20.7963 28.0549L20.7727 28.0549L20.7491 28.0549L20.7254 28.0549L20.7018 28.0549L20.6781 28.0549L20.6544 28.0549L20.6307 28.0549L20.607 28.0549L20.5833 28.0549L20.5595 28.0549L20.5357 28.0549L20.5119 28.0549L20.4881 28.0549L20.4643 28.0549L20.4405 28.0549L20.4166 28.0549L20.3927 28.0549L20.3688 28.0549L20.3449 28.0549L20.3209 28.0549L20.297 28.0549L20.273 28.0549L20.249 28.0549L20.225 28.0549L20.201 28.0549L20.1769 28.0549L20.1528 28.0549L20.1288 28.0549L20.1046 28.0549L20.0805 28.0549L20.0564 28.0549L20.0322 28.0549L20.008 28.0549L19.9838 28.0549L19.9596 28.0549L19.9353 28.0549L19.911 28.0549L19.8867 28.0549L19.8624 28.0549L19.8381 28.0549L19.8138 28.0549L19.7894 28.0549L19.765 28.0549L19.7406 28.0549L19.7161 28.0549L19.6917 28.0549L19.6672 28.0549L19.6427 28.0549L19.6182 28.0549L19.5936 28.0549L19.5691 28.0549L19.5445 28.0549L19.5199 28.0549L19.4952 28.0549L19.4706 28.0549L19.4459 28.0549L19.4212 28.0549L19.3965 28.0549L19.3717 28.0549L19.347 28.0549L19.3222 28.0549L19.2974 28.0549L19.2725 28.0549L19.2477 28.0549L19.2228 28.0549L19.1979 28.0549L19.173 28.0549L19.148 28.0549L19.123 28.0549L19.0981 28.0549L19.073 28.0549L19.048 28.0549L19.0229 28.0549L18.9978 28.0549L18.9727 28.0549L18.9476 28.0549L18.9224 28.0549L18.8972 28.0549L18.872 28.0549L18.8468 28.0549L18.8215 28.0549L18.7962 28.0549L18.7709 28.0549L18.7456 28.0549L18.7202 28.0549C18.6594 28.0549 18.6299 28.0549 18.606 28.055C13.6652 28.0814 9.66651 32.0801 9.64014 37.0208L9.64001 37.1316Z" stroke="url(#paint4_linear_1079_1246)" stroke-width="0.422603"/>
</g>
<defs>
<filter id="filter0_b_1079_1246" x="13.6607" y="7.9312" width="22.2167" height="22.2167" filterUnits="userSpaceOnUse" color-interpolation-filters="sRGB">
<feFlood flood-opacity="0" result="BackgroundImageFix"/>
<feGaussianBlur in="BackgroundImageFix" stdDeviation="2.03245"/>
<feComposite in2="SourceAlpha" operator="in" result="effect1_backgroundBlur_1079_1246"/>
<feBlend mode="normal" in="SourceGraphic" in2="effect1_backgroundBlur_1079_1246" result="shape"/>
</filter>
<filter id="filter1_b_1079_1246" x="4.81603" y="23.2311" width="39.7019" height="25.4793" filterUnits="userSpaceOnUse" color-interpolation-filters="sRGB">
<feFlood flood-opacity="0" result="BackgroundImageFix"/>
<feGaussianBlur in="BackgroundImageFix" stdDeviation="2.30634"/>
<feComposite in2="SourceAlpha" operator="in" result="effect1_backgroundBlur_1079_1246"/>
<feBlend mode="normal" in="SourceGraphic" in2="effect1_backgroundBlur_1079_1246" result="shape"/>
</filter>
<linearGradient id="paint0_linear_1079_1246" x1="6.35088" y1="20.2607" x2="20.985" y2="27.5909" gradientUnits="userSpaceOnUse">
<stop stop-color="#FFE399"/>
<stop offset="1" stop-color="#FCAF17"/>
</linearGradient>
<radialGradient id="paint1_radial_1079_1246" cx="0" cy="0" r="1" gradientUnits="userSpaceOnUse" gradientTransform="translate(18.7739 12.9562) rotate(65.7409) scale(13.4482 13.4482)">
<stop stop-color="white" stop-opacity="0.801593"/>
<stop offset="1" stop-color="#D4D4D4" stop-opacity="0.35"/>
</radialGradient>
<linearGradient id="paint2_linear_1079_1246" x1="17.7256" y1="14.6374" x2="24.4938" y2="25.7534" gradientUnits="userSpaceOnUse">
<stop stop-color="white"/>
<stop offset="0.99715" stop-color="white" stop-opacity="0"/>
</linearGradient>
<radialGradient id="paint3_radial_1079_1246" cx="0" cy="0" r="1" gradientUnits="userSpaceOnUse" gradientTransform="translate(11.6966 42.9898) rotate(-49.8028) scale(18.5212 24.3757)">
<stop stop-color="white" stop-opacity="0.801593"/>
<stop offset="1" stop-color="#D4D4D4" stop-opacity="0.35"/>
</radialGradient>
<linearGradient id="paint4_linear_1079_1246" x1="10.8575" y1="29.2888" x2="39.905" y2="43.9726" gradientUnits="userSpaceOnUse">
<stop stop-color="white"/>
<stop offset="1" stop-color="white" stop-opacity="0"/>
</linearGradient>
</defs>
</svg>
