<svg width="140" height="140" viewBox="0 0 140 140" fill="none" xmlns="http://www.w3.org/2000/svg">
<rect width="140" height="140" rx="12" fill="white"/>
<rect x="38.0039" y="38.8423" width="40.421" height="62.3158" rx="3.36842" fill="#D9D9D9"/>
<rect x="38.0039" y="38.8423" width="40.421" height="62.3158" rx="3.36842" fill="url(#paint0_linear_1079_1390)"/>
<rect x="44.7383" y="46.4224" width="27.7895" height="5.05263" rx="2.52632" fill="white" fill-opacity="0.6"/>
<rect x="44.7383" y="54.8423" width="27.7895" height="5.05263" rx="2.52632" fill="white" fill-opacity="0.6"/>
<rect x="44.7383" y="63.2642" width="27.7895" height="5.05263" rx="2.52632" fill="white" fill-opacity="0.6"/>
<rect x="44.7383" y="71.686" width="27.7895" height="5.05263" rx="2.52632" fill="white" fill-opacity="0.6"/>
<rect x="44.7383" y="80.106" width="27.7895" height="5.05263" rx="2.52632" fill="white" fill-opacity="0.6"/>
<rect x="44.7383" y="88.5278" width="27.7895" height="5.05263" rx="2.52632" fill="white" fill-opacity="0.6"/>
<g filter="url(#filter0_b_1079_1390)">
<path d="M68.3164 62.0607C68.3164 60.3998 69.6874 59.0532 71.3786 59.0532H84.1628C84.8099 59.0532 85.4405 59.2546 85.9639 59.6285L100.74 70.1825C101.532 70.7485 102.001 71.6526 102.001 72.6148V98.151C102.001 99.8119 102.001 101.158 102.001 101.158H68.3164C68.3164 101.158 68.3164 99.8119 68.3164 98.151V62.0607Z" fill="url(#paint1_radial_1079_1390)"/>
<path d="M85.7613 59.912L85.7613 59.912L100.537 70.4661C101.239 70.9676 101.652 71.7667 101.652 72.6148V98.151V98.1607V98.1704V98.1801V98.1898V98.1995V98.2092V98.2189V98.2286V98.2382V98.2479V98.2576V98.2672V98.2768V98.2865V98.2961V98.3057V98.3153V98.3249V98.3345V98.3441V98.3537V98.3632V98.3728V98.3823V98.3919V98.4014V98.4109V98.4205V98.43V98.4395V98.449V98.4584V98.4679V98.4774V98.4868V98.4963V98.5057V98.5152V98.5246V98.534V98.5434V98.5528V98.5622V98.5715V98.5809V98.5903V98.5996V98.6089V98.6183V98.6276V98.6369V98.6462V98.6555V98.6648V98.674V98.6833V98.6926V98.7018V98.711V98.7203V98.7295V98.7387V98.7479V98.757V98.7662V98.7754V98.7845V98.7937V98.8028V98.8119V98.821V98.8301V98.8392V98.8483V98.8574V98.8664V98.8755V98.8845V98.8935V98.9025V98.9115V98.9205V98.9295V98.9385V98.9475V98.9564V98.9653V98.9743V98.9832V98.9921V99.001V99.0099V99.0187V99.0276V99.0364V99.0453V99.0541V99.0629V99.0717V99.0805V99.0893V99.098V99.1068V99.1155V99.1242V99.133V99.1417V99.1504V99.159V99.1677V99.1764V99.185V99.1936V99.2022V99.2109V99.2194V99.228V99.2366V99.2452V99.2537V99.2622V99.2707V99.2792V99.2877V99.2962V99.3047V99.3131V99.3216V99.33V99.3384V99.3468V99.3552V99.3636V99.3719V99.3803V99.3886V99.3969V99.4052V99.4135V99.4218V99.4301V99.4383V99.4466V99.4548V99.463V99.4712V99.4794V99.4876V99.4957V99.5038V99.512V99.5201V99.5282V99.5363V99.5443V99.5524V99.5604V99.5685V99.5765V99.5845V99.5925V99.6004V99.6084V99.6163V99.6242V99.6321V99.64V99.6479V99.6558V99.6636V99.6715V99.6793V99.6871V99.6949V99.7027V99.7104V99.7182V99.7259V99.7336V99.7413V99.749V99.7566V99.7643V99.7719V99.7796V99.7872V99.7947V99.8023V99.8099V99.8174V99.8249V99.8324V99.8399V99.8474V99.8549V99.8623V99.8697V99.8772V99.8845V99.8919V99.8993V99.9066V99.914V99.9213V99.9286V99.9358V99.9431V99.9504V99.9576V99.9648V99.972V99.9792V99.9863V99.9935V100.001V100.008V100.015V100.022V100.029V100.036V100.043V100.05V100.057V100.064V100.071V100.078V100.085V100.092V100.099V100.105V100.112V100.119V100.126V100.133V100.139V100.146V100.153V100.16V100.166V100.173V100.18V100.186V100.193V100.2V100.206V100.213V100.219V100.226V100.232V100.239V100.245V100.252V100.258V100.265V100.271V100.278V100.284V100.29V100.297V100.303V100.309V100.315V100.322V100.328V100.334V100.34V100.347V100.353V100.359V100.365V100.371V100.377V100.383V100.389V100.395V100.401V100.407V100.413V100.419V100.425V100.431V100.437V100.443V100.449V100.454V100.46V100.466V100.472V100.477V100.483V100.489V100.494V100.5V100.506V100.511V100.517V100.523V100.528V100.534V100.539V100.545V100.55V100.556V100.561V100.566V100.572V100.577V100.582V100.588V100.593V100.598V100.604V100.609V100.614V100.619V100.624V100.63V100.635V100.64V100.645V100.65V100.655V100.66V100.665V100.67V100.675V100.68V100.685V100.69V100.694V100.699V100.704V100.709V100.714V100.718V100.723V100.728V100.732V100.737V100.742V100.746V100.751V100.755V100.76V100.765V100.769V100.773V100.778V100.782V100.787V100.791V100.795V100.8V100.804V100.808V100.81H68.6649V100.278V98.151V62.0607C68.6649 60.5981 69.8739 59.4017 71.3786 59.4017H84.1628C84.7377 59.4017 85.2974 59.5806 85.7613 59.912Z" stroke="url(#paint2_radial_1079_1390)" stroke-width="0.696915"/>
</g>
<g filter="url(#filter1_ii_1079_1390)">
<path d="M92.5938 79.9677C92.5938 78.7313 93.6223 77.729 94.8912 77.729C96.16 77.729 97.1886 78.7313 97.1886 79.9677V93.4002C97.1886 94.6367 96.16 95.6389 94.8912 95.6389C93.6223 95.6389 92.5938 94.6367 92.5938 93.4002V79.9677Z" fill="white" fill-opacity="0.6"/>
</g>
<g filter="url(#filter2_ii_1079_1390)">
<path d="M83.4062 73.999C83.4062 72.7625 84.4348 71.7603 85.7037 71.7603C86.9725 71.7603 88.0011 72.7625 88.0011 73.999V93.4014C88.0011 94.6379 86.9725 95.6401 85.7037 95.6401C84.4348 95.6401 83.4062 94.6379 83.4062 93.4014V73.999Z" fill="white" fill-opacity="0.6"/>
</g>
<g filter="url(#filter3_ii_1079_1390)">
<path d="M74.2188 68.0283C74.2188 66.7918 75.2473 65.7896 76.5162 65.7896C77.785 65.7896 78.8136 66.7918 78.8136 68.0283V93.4007C78.8136 94.6372 77.785 95.6394 76.5162 95.6394C75.2473 95.6394 74.2188 94.6372 74.2188 93.4007V68.0283Z" fill="white" fill-opacity="0.6"/>
</g>
<defs>
<filter id="filter0_b_1079_1390" x="61.8119" y="52.5487" width="46.6936" height="55.1145" filterUnits="userSpaceOnUse" color-interpolation-filters="sRGB">
<feFlood flood-opacity="0" result="BackgroundImageFix"/>
<feGaussianBlur in="BackgroundImageFix" stdDeviation="3.25227"/>
<feComposite in2="SourceAlpha" operator="in" result="effect1_backgroundBlur_1079_1390"/>
<feBlend mode="normal" in="SourceGraphic" in2="effect1_backgroundBlur_1079_1390" result="shape"/>
</filter>
<filter id="filter1_ii_1079_1390" x="92.5938" y="77.729" width="4.59473" height="20.5589" filterUnits="userSpaceOnUse" color-interpolation-filters="sRGB">
<feFlood flood-opacity="0" result="BackgroundImageFix"/>
<feBlend mode="normal" in="SourceGraphic" in2="BackgroundImageFix" result="shape"/>
<feColorMatrix in="SourceAlpha" type="matrix" values="0 0 0 0 0 0 0 0 0 0 0 0 0 0 0 0 0 0 127 0" result="hardAlpha"/>
<feOffset/>
<feGaussianBlur stdDeviation="1.32463"/>
<feComposite in2="hardAlpha" operator="arithmetic" k2="-1" k3="1"/>
<feColorMatrix type="matrix" values="0 0 0 0 1 0 0 0 0 1 0 0 0 0 1 0 0 0 1 0"/>
<feBlend mode="normal" in2="shape" result="effect1_innerShadow_1079_1390"/>
<feColorMatrix in="SourceAlpha" type="matrix" values="0 0 0 0 0 0 0 0 0 0 0 0 0 0 0 0 0 0 127 0" result="hardAlpha"/>
<feOffset dy="2.64926"/>
<feGaussianBlur stdDeviation="2.64926"/>
<feComposite in2="hardAlpha" operator="arithmetic" k2="-1" k3="1"/>
<feColorMatrix type="matrix" values="0 0 0 0 1 0 0 0 0 1 0 0 0 0 1 0 0 0 1 0"/>
<feBlend mode="normal" in2="effect1_innerShadow_1079_1390" result="effect2_innerShadow_1079_1390"/>
</filter>
<filter id="filter2_ii_1079_1390" x="83.4062" y="71.7603" width="4.59473" height="26.5291" filterUnits="userSpaceOnUse" color-interpolation-filters="sRGB">
<feFlood flood-opacity="0" result="BackgroundImageFix"/>
<feBlend mode="normal" in="SourceGraphic" in2="BackgroundImageFix" result="shape"/>
<feColorMatrix in="SourceAlpha" type="matrix" values="0 0 0 0 0 0 0 0 0 0 0 0 0 0 0 0 0 0 127 0" result="hardAlpha"/>
<feOffset/>
<feGaussianBlur stdDeviation="1.32463"/>
<feComposite in2="hardAlpha" operator="arithmetic" k2="-1" k3="1"/>
<feColorMatrix type="matrix" values="0 0 0 0 1 0 0 0 0 1 0 0 0 0 1 0 0 0 1 0"/>
<feBlend mode="normal" in2="shape" result="effect1_innerShadow_1079_1390"/>
<feColorMatrix in="SourceAlpha" type="matrix" values="0 0 0 0 0 0 0 0 0 0 0 0 0 0 0 0 0 0 127 0" result="hardAlpha"/>
<feOffset dy="2.64926"/>
<feGaussianBlur stdDeviation="2.64926"/>
<feComposite in2="hardAlpha" operator="arithmetic" k2="-1" k3="1"/>
<feColorMatrix type="matrix" values="0 0 0 0 1 0 0 0 0 1 0 0 0 0 1 0 0 0 1 0"/>
<feBlend mode="normal" in2="effect1_innerShadow_1079_1390" result="effect2_innerShadow_1079_1390"/>
</filter>
<filter id="filter3_ii_1079_1390" x="74.2188" y="65.7896" width="4.59473" height="32.4989" filterUnits="userSpaceOnUse" color-interpolation-filters="sRGB">
<feFlood flood-opacity="0" result="BackgroundImageFix"/>
<feBlend mode="normal" in="SourceGraphic" in2="BackgroundImageFix" result="shape"/>
<feColorMatrix in="SourceAlpha" type="matrix" values="0 0 0 0 0 0 0 0 0 0 0 0 0 0 0 0 0 0 127 0" result="hardAlpha"/>
<feOffset/>
<feGaussianBlur stdDeviation="1.32463"/>
<feComposite in2="hardAlpha" operator="arithmetic" k2="-1" k3="1"/>
<feColorMatrix type="matrix" values="0 0 0 0 1 0 0 0 0 1 0 0 0 0 1 0 0 0 1 0"/>
<feBlend mode="normal" in2="shape" result="effect1_innerShadow_1079_1390"/>
<feColorMatrix in="SourceAlpha" type="matrix" values="0 0 0 0 0 0 0 0 0 0 0 0 0 0 0 0 0 0 127 0" result="hardAlpha"/>
<feOffset dy="2.64926"/>
<feGaussianBlur stdDeviation="2.64926"/>
<feComposite in2="hardAlpha" operator="arithmetic" k2="-1" k3="1"/>
<feColorMatrix type="matrix" values="0 0 0 0 1 0 0 0 0 1 0 0 0 0 1 0 0 0 1 0"/>
<feBlend mode="normal" in2="effect1_innerShadow_1079_1390" result="effect2_innerShadow_1079_1390"/>
</filter>
<linearGradient id="paint0_linear_1079_1390" x1="33.7818" y1="70.0464" x2="55.7429" y2="77.1817" gradientUnits="userSpaceOnUse">
<stop stop-color="#FFE399"/>
<stop offset="1" stop-color="#FCAF17"/>
</linearGradient>
<radialGradient id="paint1_radial_1079_1390" cx="0" cy="0" r="1" gradientUnits="userSpaceOnUse" gradientTransform="translate(68.9949 59.5094) rotate(51.689) scale(53.1938 44.8748)">
<stop stop-color="white" stop-opacity="0.801593"/>
<stop offset="1" stop-color="#D4D4D4" stop-opacity="0.35"/>
</radialGradient>
<radialGradient id="paint2_radial_1079_1390" cx="0" cy="0" r="1" gradientUnits="userSpaceOnUse" gradientTransform="translate(81.4569 45.7889) rotate(90) scale(48.617 51.6493)">
<stop stop-color="white" stop-opacity="0.973411"/>
<stop offset="1" stop-color="white" stop-opacity="0.01"/>
</radialGradient>
</defs>
</svg>
