<svg width="25" height="24" viewBox="0 0 25 24" fill="none" xmlns="http://www.w3.org/2000/svg">
<path d="M3.38008 8.8H21.7801V20C21.7801 20.6627 21.2428 21.2 20.5801 21.2H4.58008C3.91734 21.2 3.38008 20.6627 3.38008 20V8.8Z" stroke="#FCAF17" stroke-width="1.6"/>
<rect x="7.17969" y="14" width="2" height="2" rx="1" fill="#FCAF17"/>
<rect x="11.5801" y="14" width="2" height="2" rx="1" fill="#FCAF17"/>
<rect x="15.9795" y="14" width="2" height="2" rx="1" fill="#FCAF17"/>
<rect x="7.98008" y="2.4" width="0.8" height="1.7" rx="0.4" stroke="#FCAF17" stroke-width="0.8"/>
<rect x="16.3805" y="2.4" width="0.8" height="1.7" rx="0.4" stroke="#FCAF17" stroke-width="0.8"/>
<mask id="path-7-inside-1_1187_918" fill="white">
<path d="M2.58008 5.59375C2.58008 4.48918 3.47551 3.59375 4.58008 3.59375H20.5801C21.6846 3.59375 22.5801 4.48918 22.5801 5.59375V9.59375H2.58008V5.59375Z"/>
</mask>
<path d="M0.980078 5.59375C0.980078 3.60552 2.59185 1.99375 4.58008 1.99375H20.5801C22.5683 1.99375 24.1801 3.60552 24.1801 5.59375L20.9801 5.59375C20.9801 5.37284 20.801 5.19375 20.5801 5.19375H4.58008C4.35916 5.19375 4.18008 5.37284 4.18008 5.59375L0.980078 5.59375ZM22.5801 9.59375H2.58008H22.5801ZM0.980078 9.59375V5.59375C0.980078 3.60552 2.59185 1.99375 4.58008 1.99375L4.58008 5.19375C4.35916 5.19375 4.18008 5.37284 4.18008 5.59375V9.59375H0.980078ZM20.5801 1.99375C22.5683 1.99375 24.1801 3.60552 24.1801 5.59375V9.59375H20.9801V5.59375C20.9801 5.37284 20.801 5.19375 20.5801 5.19375V1.99375Z" fill="#FCAF17" mask="url(#path-7-inside-1_1187_918)"/>
</svg>
