<svg width="20" height="20" viewBox="0 0 20 20" fill="none" xmlns="http://www.w3.org/2000/svg">
<g clip-path="url(#clip0_1050_897)">
<mask id="mask0_1050_897" style="mask-type:alpha" maskUnits="userSpaceOnUse" x="0" y="0" width="20" height="20">
<rect x="-6.10352e-05" width="20" height="20" fill="#D9D9D9"/>
</mask>
<g mask="url(#mask0_1050_897)">
<path d="M9.65006 13.4725L6.09242 9.91481L6.97061 9.01097L9.02509 11.0655V4.06543H10.275V11.0655L12.3295 9.01097L13.2077 9.91481L9.65006 13.4725ZM4.9065 16.5654C4.48556 16.5654 4.12925 16.4196 3.83759 16.1279C3.54592 15.8362 3.40009 15.4799 3.40009 15.059V12.7994H4.65006V15.059C4.65006 15.1231 4.67677 15.1819 4.73019 15.2353C4.78362 15.2887 4.84239 15.3154 4.9065 15.3154H14.3936C14.4577 15.3154 14.5165 15.2887 14.5699 15.2353C14.6234 15.1819 14.6501 15.1231 14.6501 15.059V12.7994H15.9V15.059C15.9 15.4799 15.7542 15.8362 15.4625 16.1279C15.1709 16.4196 14.8146 16.5654 14.3936 16.5654H4.9065Z" fill="#1D1D1F"/>
</g>
</g>
<defs>
<clipPath id="clip0_1050_897">
<rect width="20" height="20" fill="white"/>
</clipPath>
</defs>
</svg>
