<svg width="14" height="22" viewBox="0 0 14 22" fill="none" xmlns="http://www.w3.org/2000/svg">
<path d="M7.00502 21.2877C5.29366 21.2863 3.65277 20.6059 2.44266 19.3958C1.23254 18.1857 0.552113 16.5448 0.550781 14.8334L0.550781 5.94417H2.43341V14.8359C2.43341 15.4359 2.55157 16.0299 2.78115 16.5841C3.01072 17.1384 3.34722 17.642 3.77142 18.0662C4.19562 18.4904 4.69922 18.8269 5.25347 19.0565C5.80772 19.286 6.40176 19.4042 7.00167 19.4042C7.60158 19.4042 8.19562 19.286 8.74987 19.0565C9.30412 18.8269 9.80772 18.4904 10.2319 18.0662C10.6561 17.642 10.9926 17.1384 11.2222 16.5841C11.4518 16.0299 11.5699 15.4359 11.5699 14.8359V5.47896C11.5699 4.716 11.2668 3.98429 10.7274 3.4448C10.1879 2.9053 9.45615 2.60222 8.69318 2.60222C7.93022 2.60222 7.19851 2.9053 6.65902 3.4448C6.11952 3.98429 5.81644 4.716 5.81644 5.47896V13.8888C5.80505 14.0494 5.82688 14.2108 5.88055 14.3626C5.93422 14.5145 6.01858 14.6538 6.12839 14.7716C6.2382 14.8895 6.37111 14.9835 6.51882 15.0477C6.66654 15.112 6.82591 15.1452 6.987 15.1452C7.14809 15.1452 7.30746 15.112 7.45518 15.0477C7.6029 14.9835 7.7358 14.8895 7.84561 14.7716C7.95542 14.6538 8.03979 14.5145 8.09346 14.3626C8.14713 14.2108 8.16895 14.0494 8.15757 13.8888V5.94417H10.041V13.8888C10.041 14.2899 9.96203 14.6871 9.80853 15.0576C9.65502 15.4282 9.43004 15.7649 9.1464 16.0486C8.86277 16.3322 8.52605 16.5572 8.15547 16.7107C7.78489 16.8642 7.3877 16.9432 6.98658 16.9432C6.58547 16.9432 6.18828 16.8642 5.8177 16.7107C5.44711 16.5572 5.11039 16.3322 4.82676 16.0486C4.54313 15.7649 4.31814 15.4282 4.16464 15.0576C4.01114 14.6871 3.93213 14.2899 3.93213 13.8888V5.47896C3.93213 4.21648 4.43365 3.0057 5.32637 2.11298C6.21908 1.22027 7.42986 0.71875 8.69235 0.71875C9.95483 0.71875 11.1656 1.22027 12.0583 2.11298C12.951 3.0057 13.4526 4.21648 13.4526 5.47896V14.8359C13.4512 16.5473 12.7708 18.1882 11.5607 19.3983C10.3506 20.6084 8.70968 21.2888 6.99832 21.2902" fill="#000000"/>
</svg>
