<svg width="13" height="13" viewBox="0 0 13 13" fill="none" xmlns="http://www.w3.org/2000/svg">
<path d="M12.5 11.7381V5.2619C12.5 5.1436 12.473 5.027 12.421 4.9212C12.369 4.8154 12.293 4.7234 12.2 4.6524L6.95 0.652399C6.82 0.553499 6.662 0.5 6.5 0.5C6.338 0.5 6.18 0.553499 6.05 0.652399L0.800003 4.6524C0.707003 4.7234 0.630995 4.8154 0.578995 4.9212C0.526995 5.027 0.5 5.1436 0.5 5.2619V11.7381C0.5 11.9402 0.579001 12.134 0.720001 12.2768C0.860001 12.4197 1.051 12.5 1.25 12.5H4.25C4.449 12.5 4.64 12.4197 4.78 12.2768C4.921 12.134 5 11.9402 5 11.7381V9.4524C5 9.2503 5.079 9.0565 5.22 8.9136C5.36 8.7707 5.551 8.6905 5.75 8.6905H7.25C7.449 8.6905 7.64 8.7707 7.78 8.9136C7.921 9.0565 8 9.2503 8 9.4524V11.7381C8 11.9402 8.079 12.134 8.22 12.2768C8.36 12.4197 8.551 12.5 8.75 12.5H11.75C11.949 12.5 12.14 12.4197 12.28 12.2768C12.421 12.134 12.5 11.9402 12.5 11.7381Z" fill="#1D1D1F"/>
</svg>
