<svg width="170" height="46" viewBox="0 0 170 46" fill="none" xmlns="http://www.w3.org/2000/svg">
<g clip-path="url(#clip0_1028_694)">
<path d="M60.3962 38.5414L60.216 38.4268C59.6109 37.8285 58.7676 37.5739 57.6474 37.6376C56.7076 37.6949 55.9673 38.064 55.4008 38.4014C55.4008 38.395 55.4008 38.3823 55.4008 38.3759C55.4008 38.0831 55.433 37.7712 55.4651 37.4657C55.4973 37.1539 55.5295 36.842 55.5295 36.5428C55.5295 36.2437 55.4973 35.9509 55.3879 35.7027C55.3621 35.639 55.3042 35.6008 55.227 35.6008C54.9244 35.6072 54.3322 35.8109 54.1905 35.9382L54.1133 36.11C54.1133 36.441 54.036 37.3639 53.9588 37.4785L53.9202 37.593C53.7914 38.9169 53.7914 40.0753 53.9073 41.0746C53.9202 41.1764 54.1133 41.3228 54.2678 41.3801C54.4352 41.4374 54.9502 41.3037 55.2463 41.1955L55.3557 41.1764C55.4523 41.1637 55.5038 41.0873 55.5038 40.9855L55.5102 40.699C55.7226 39.8398 56.5917 38.8087 57.6153 38.6559C58.1946 38.5668 58.6517 38.7132 59.0122 39.1015C59.0637 39.1715 59.1667 39.7889 58.7869 40.5017C58.5036 41.03 57.9307 41.4756 57.1839 41.7492C56.4758 42.0166 55.6969 42.1248 54.7313 42.0929C54.6927 42.0675 53.83 41.4883 53.83 41.4883C53.064 40.96 52.1177 40.2981 51.2551 39.9735C51.107 39.9162 50.8366 39.6934 50.6693 39.5598L50.5791 39.4897C50.0834 39.0951 49.1371 38.4714 48.384 37.9749C48.384 37.9749 48.0428 37.7458 47.9784 37.7012C47.9784 37.6758 47.9784 37.6185 47.9784 37.6185C47.9977 37.593 48.4741 37.313 48.4741 37.313C49.1436 36.9247 49.4461 36.7401 49.5169 36.6383C49.5041 36.651 49.6071 36.5874 49.6071 36.5874L51.2615 35.6645C52.8515 34.8052 54.6476 33.8251 55.5875 32.8576L55.6325 32.7112L55.6518 32.5776C55.7162 32.3739 55.7162 32.2148 55.6647 32.0302C55.6518 31.9793 55.6003 31.9156 55.536 31.9029C54.7957 31.8329 53.8494 32.2657 52.9803 33.0677C52.7872 33.2459 52.6198 33.335 52.446 33.4305L52.3108 33.5068C51.3581 34.0415 49.208 35.3654 48.0814 36.0718C48.1522 34.8753 48.3775 33.1759 48.6543 31.7565L48.6221 31.5847L48.5063 31.3683L48.4161 31.2155H48.3904C48.1651 31.0946 47.9848 31.1391 47.8497 31.1773L47.6243 31.2601L47.3218 31.3683C47.2638 31.381 47.2188 31.4192 47.1995 31.4701C46.6652 32.7558 46.2145 34.8689 46.1051 36.5556C45.0301 35.8809 44.0387 35.3972 43.5494 35.1617H43.5366L43.4786 35.1426C43.3048 35.1235 43.0924 34.9898 42.8864 34.8689C42.8671 34.8562 42.4744 34.6079 42.4744 34.6079L41.85 34.2133L41.6826 34.1751C41.4122 34.2197 40.8972 34.5634 40.7492 34.7989C40.7298 34.8307 40.7234 34.8625 40.7234 34.9007C40.7234 34.9516 40.7363 34.9962 40.7492 35.0471L40.7749 35.1744L40.8071 35.2508C41.1096 35.5563 41.8628 36.0591 42.6031 36.4537L43.4593 36.9056L44.7726 37.6121L44.9979 37.7903L45.1524 37.8794C45.1524 37.8794 45.1717 37.8922 45.1781 37.8985C44.8305 38.1277 42.7898 39.477 42.7898 39.477L41.5345 40.2981C41.4186 40.3808 40.923 40.5972 40.8135 40.6418C40.5432 40.75 40.3372 40.9218 40.247 41.1L40.2148 41.17L40.247 41.2146L40.3436 41.2846L40.4723 41.3674L40.614 41.4628L40.7427 41.4819C40.9616 41.4883 41.2899 41.3674 41.9015 41.1C42.4615 40.8518 43.9872 39.9416 44.6438 39.5534L44.9206 39.3879C45.0365 39.3943 45.1588 39.2988 45.2747 39.2161C45.4034 39.1142 45.6867 38.9424 45.8605 38.866C45.8605 38.866 45.9635 38.8087 46.06 38.7578C46.06 38.7832 46.06 38.8342 46.06 38.8342C46.0922 40.8073 46.2017 42.2393 46.4205 43.3468V43.3659L46.4463 43.4104C46.5557 43.5632 46.678 44.0342 46.7875 44.4479L47.0385 45.269L47.1093 45.3453C47.251 45.4408 47.6823 45.6063 47.972 45.5681H48.0428L48.0878 45.4599C48.1136 45.339 48.12 45.2181 48.12 45.0844C48.12 44.9316 48.1071 44.7662 48.0943 44.5625L48.075 44.2633C47.9848 42.8885 47.8947 40.8964 47.8947 39.5788V39.4706C48.1329 39.617 49.1693 40.2599 49.1693 40.2599C50.9332 41.3928 53.5919 43.0986 55.2012 43.5505C55.2849 43.5759 55.375 43.5505 55.433 43.4996L55.6776 43.3404L55.7226 43.3213C55.8128 43.2768 55.8771 43.124 55.89 42.9585C57.2483 42.8885 59.1345 42.373 60.1452 41.1191C60.5379 40.629 60.7117 40.0371 60.7117 39.5216C60.7117 39.1015 60.5958 38.7387 60.3834 38.5414" fill="#FCAF16"/>
<path d="M95.678 41.8463H89.762V39.7841H95.678V41.8463ZM96.914 38.7148H88.5195V42.922H96.914V38.7148Z" fill="#776C60"/>
<path d="M96.8622 36.4419V33.1641H88.5772V34.2206H95.6133V36.4483H87.6309V37.5112H97.802V36.4419H96.8622Z" fill="#776C60"/>
<path d="M108.798 38.2238V37.1609H98.627V38.2238H100.951V39.3759C100.05 39.7514 99.4703 40.3497 99.4703 41.1835C99.4703 42.6919 101.363 43.4493 103.7 43.4493C106.036 43.4493 107.929 42.6919 107.929 41.1835C107.929 40.356 107.363 39.7577 106.474 39.3886V38.2238H108.785H108.798ZM102.206 38.2238H105.251V39.0449C104.775 38.9621 104.26 38.924 103.719 38.924C103.178 38.924 102.676 38.9621 102.213 39.0449V38.2302L102.206 38.2238ZM106.635 41.1898C106.635 42.0236 105.322 42.3991 103.713 42.3991C102.103 42.3991 100.79 42.03 100.79 41.1898C100.79 40.3497 102.097 39.9869 103.713 39.9869C105.328 39.9869 106.635 40.3624 106.635 41.1898ZM103.719 36.7026C105.792 36.7026 107.478 36.0025 107.478 34.615C107.478 33.2275 105.798 32.5273 103.719 32.5273C101.64 32.5273 99.9595 33.2147 99.9595 34.615C99.9595 36.0153 101.64 36.7026 103.719 36.7026ZM103.713 33.5712C105.064 33.5712 106.165 33.8958 106.165 34.615C106.165 35.3342 105.064 35.6588 103.713 35.6588C102.361 35.6588 101.26 35.3342 101.26 34.615C101.26 33.8958 102.354 33.5712 103.713 33.5712Z" fill="#776C60"/>
<path d="M117.655 40.9928V33.3359H109.769V34.3925H116.406V40.9928H109.074V42.0493H118.589V40.9928H117.655Z" fill="#776C60"/>
<path d="M119.592 37.8666V38.9168H124.092V39.7888H125.36V38.9168H129.757V37.8666H119.586H119.592ZM127.691 40.1007H121.652V39.3815H120.436V42.9076H128.92V39.3815H127.697V40.1007H127.691ZM127.691 41.8637H121.646V41.1254H127.691V41.8637ZM128.862 36.32H121.672V35.7535H128.837V33.1758H120.455V34.2132H127.62V34.7542H120.455V37.3638H128.856V36.3264L128.862 36.32Z" fill="#776C60"/>
<path d="M76.1348 33.1587H81.0143C83.3383 33.1587 84.5485 33.9225 84.5485 35.5837C84.5485 36.7675 83.7116 37.5886 82.598 37.805V37.8432C84.1944 38.0278 84.9476 39.0652 84.9476 40.2364C84.9476 41.7003 83.8597 42.9669 81.1688 42.9669H76.1348V33.1523V33.1587ZM77.7184 37.2895H80.9371C82.1345 37.2895 83.0164 36.8439 83.0164 35.7937C83.0164 34.8836 82.5786 34.2725 80.7569 34.2725H77.7184V37.2895ZM77.7184 41.8594H80.8405C82.7782 41.8594 83.2932 41.1147 83.2932 40.16C83.2932 39.0334 82.5014 38.4097 80.7569 38.4097H77.7184V41.8594Z" fill="#776C60"/>
<path d="M65.3965 33.1562H66.9865V37.548L72.3167 33.1562H74.5634L68.9242 37.5861L75.0333 42.9708H72.7867L66.9865 37.7134V42.9708H65.3965V33.1562Z" fill="#776C60"/>
<path d="M2.08573 18.121H0V4.00391H2.08573V18.121ZM2.3046 10.5342C4.0749 8.49108 5.98682 6.23795 7.5125 4.00391H9.91366C8.34936 6.23795 6.59838 8.52927 4.85383 10.5724L10.7892 18.121H8.25924L2.3046 10.5342Z" fill="#776D61"/>
<path d="M18.4814 10.3642C19.9298 10.7397 21.0113 12.0699 21.0113 13.8903C21.0113 16.4234 19.4084 18.2056 15.5395 18.2056C14.6447 18.2056 12.8808 18.0719 11.5547 17.8492V4.62312C12.8937 4.07575 14.3485 3.6875 15.6103 3.6875C18.3269 3.6875 20.3354 5.01774 20.3354 7.40454C20.3354 8.79206 19.5178 9.93773 18.4749 10.3705L18.4814 10.3642ZM15.4236 9.76588C16.9106 9.76588 18.1788 8.90027 18.1788 7.47455C18.1788 6.04884 16.9493 5.29779 15.6489 5.29779C14.8507 5.29779 14.0846 5.50147 13.6404 5.65422V9.76588H15.43H15.4236ZM18.8483 13.8393C18.8483 12.0954 17.3033 11.3443 15.7777 11.3443H13.6404V16.4298C14.3292 16.5253 15.076 16.5826 15.8163 16.5826C17.5479 16.5826 18.8483 15.8506 18.8483 13.8393Z" fill="#776D61"/>
<path d="M28.5621 18.1249H26.457V4.00781H28.5621V18.1249Z" fill="#776D61"/>
<path d="M30.8105 18.1249V8.77501C32.1109 8.26582 34.1387 7.64844 35.6644 7.64844C38.1557 7.64844 39.3337 8.92776 39.3337 11.0663V18.1249H37.3252V11.1236C37.3252 9.54515 36.5785 9.20781 35.4262 9.20781C34.6794 9.20781 33.5465 9.43058 32.819 9.62152V18.1249H30.8105Z" fill="#776D61"/>
<path d="M41.3418 18.1249V8.77501C42.6422 8.26582 44.67 7.64844 46.1956 7.64844C48.6869 7.64844 49.865 8.92776 49.865 11.0663V18.1249H47.8565V11.1236C47.8565 9.54515 47.1097 9.20781 45.9574 9.20781C45.2107 9.20781 44.0777 9.43058 43.3503 9.62152V18.1249H41.3418Z" fill="#776D61"/>
<path d="M61.3487 13.0521C61.3487 16.5782 59.2823 18.4749 56.3404 18.4749C53.3984 18.4749 51.332 16.5782 51.332 13.0521C51.332 9.52605 53.4178 7.64844 56.3404 7.64844C59.263 7.64844 61.3487 9.52605 61.3487 13.0521ZM59.3209 13.0521C59.3209 10.7417 58.2587 9.16326 56.3404 9.16326C54.422 9.16326 53.3598 10.7417 53.3598 13.0521C53.3598 15.3626 54.3254 16.9601 56.3404 16.9601C58.3553 16.9601 59.3209 15.3626 59.3209 13.0521Z" fill="#776D61"/>
<path d="M65.5581 18.1235C64.1998 15.6476 62.6162 10.804 61.7793 7.98438H63.8071C64.586 10.9695 65.6289 13.84 66.5237 16.0549C67.6245 14.381 68.6802 11.0586 69.0343 7.98438H70.8754C70.5213 11.2495 69.3111 15.533 67.3026 18.1235H65.5516H65.5581Z" fill="#776D61"/>
<path d="M77.8029 11.2891C77.8029 10.0098 77.1141 9.18872 75.6464 9.18872C74.4554 9.18872 73.6958 9.30328 72.7624 9.3733L72.6143 8.08124C73.6186 7.85848 74.9189 7.64844 75.7944 7.64844C78.3823 7.64844 79.7985 8.83229 79.7985 11.5373V17.3929C78.569 17.883 76.7278 18.424 75.2022 18.424C72.8589 18.424 71.3848 16.9792 71.3848 14.9107C71.3848 12.8421 72.8525 11.3973 75.2022 11.3973C76.0584 11.3973 77.024 11.6201 77.8093 11.9065V11.2891H77.8029ZM77.7836 13.3195C76.9853 13.1158 76.0905 12.9249 75.3631 12.9249C74.2108 12.9249 73.3932 13.7141 73.3932 14.917C73.3932 16.12 74.1915 16.9092 75.3631 16.9092C76.2 16.9092 76.9853 16.7946 77.7836 16.591V13.3258V13.3195Z" fill="#776D61"/>
<path d="M84.6328 5.13136V8.17374H87.1434V9.71402H84.6328V15.2514C84.6328 16.378 85.2251 16.9381 86.1006 16.9381C86.5126 16.9381 86.8795 16.8617 87.2915 16.8044L87.549 18.1346C87.0276 18.3256 86.3774 18.472 85.7787 18.472C84.0277 18.472 82.5986 17.2881 82.5986 15.315V9.70129H81.1309V8.16101H82.5986V5.32867L84.6264 5.125L84.6328 5.13136Z" fill="#776D61"/>
<path d="M88.6309 4.92224C88.6309 4.05663 89.2617 3.51562 90.0278 3.51562C90.7938 3.51562 91.4247 4.063 91.4247 4.92224C91.4247 5.78149 90.7938 6.32886 90.0278 6.32886C89.2617 6.32886 88.6309 5.78149 88.6309 4.92224ZM88.9849 18.1228V7.98371H91.032V18.1228H88.9849Z" fill="#776D61"/>
<path d="M102.755 13.0521C102.755 16.5782 100.689 18.4749 97.7466 18.4749C94.8047 18.4749 92.7383 16.5782 92.7383 13.0521C92.7383 9.52605 94.824 7.64844 97.7466 7.64844C100.669 7.64844 102.755 9.52605 102.755 13.0521ZM100.727 13.0521C100.727 10.7417 99.665 9.16326 97.7531 9.16326C95.8411 9.16326 94.7725 10.7417 94.7725 13.0521C94.7725 15.3626 95.7381 16.9601 97.7531 16.9601C99.768 16.9601 100.727 15.3626 100.727 13.0521Z" fill="#776D61"/>
<path d="M104.19 18.1249V8.77501C105.49 8.26582 107.518 7.64844 109.044 7.64844C111.535 7.64844 112.707 8.92776 112.707 11.0663V18.1249H110.698V11.1236C110.698 9.54515 109.952 9.20781 108.799 9.20781C108.052 9.20781 106.92 9.43058 106.192 9.62152V18.1249H104.184H104.19Z" fill="#776D61"/>
<path d="M136.706 2.4385C136.706 1.24192 137.497 0.433594 138.733 0.433594C139.969 0.433594 140.768 1.24192 140.768 2.4385V11.6802C140.768 14.0797 142.126 15.1554 144.456 15.1554C146.787 15.1554 148.145 14.0797 148.145 11.6802V2.4385C148.145 1.24192 148.937 0.433594 150.173 0.433594C151.409 0.433594 152.201 1.24192 152.201 2.4385V11.3619C152.201 16.2055 149.181 18.3887 144.45 18.3887C139.718 18.3887 136.699 16.2119 136.699 11.3619V2.4385H136.706Z" fill="#776D61"/>
<path d="M155.096 2.84861C155.096 1.0601 156.036 0.5 157.472 0.5H162.866C165.834 0.5 169.375 1.16194 169.375 5.05083C169.375 6.54655 168.557 7.9659 166.87 8.62147V8.67239C168.75 9.16248 169.993 10.48 169.993 12.905C169.993 16.6029 166.948 18.1177 163.433 18.1177H157.465C156.03 18.1177 155.09 17.5576 155.09 15.7691V2.84861H155.096ZM159.158 7.74313H162.499C164.405 7.74313 165.325 6.98572 165.325 5.59183C165.325 3.90516 163.89 3.44053 162.377 3.44053H159.158V7.7495V7.74313ZM159.158 15.0372H162.57C164.154 15.0372 165.937 14.7189 165.937 12.6886C165.937 10.6582 164.057 10.289 162.074 10.289H159.152V15.0372H159.158Z" fill="#776D61"/>
<path d="M122.376 2.4385C122.376 1.24192 121.585 0.433594 120.342 0.433594C119.1 0.433594 118.314 1.24192 118.314 2.4385V16.3774C118.314 17.574 119.106 18.3823 120.342 18.3823C121.578 18.3823 122.376 17.574 122.376 16.3774V2.4385Z" fill="#FEBE0E"/>
<path d="M131.776 0.433594C130.54 0.433594 129.748 1.24192 129.748 2.4385V16.3774C129.748 17.574 130.54 18.3823 131.776 18.3823C133.012 18.3823 133.804 17.574 133.804 16.3774V2.4385C133.804 1.24192 133.012 0.433594 131.776 0.433594Z" fill="#58C5C7"/>
<path d="M122.518 10.8997L131.775 7.01716V3.72656L121.301 8.04826C120.715 8.29012 120.342 8.85022 120.342 9.47397C120.342 10.5878 121.488 11.3325 122.518 10.8997Z" fill="#58C5C7"/>
<path d="M120.342 15.1046L130.841 10.7001C131.408 10.4646 131.775 9.9109 131.775 9.30624C131.775 8.21786 130.655 7.48591 129.644 7.91235L120.342 11.814V15.1046Z" fill="#FEBE0E"/>
</g>
<defs>
<clipPath id="clip0_1028_694">
<rect width="170" height="45.1327" fill="white" transform="translate(0 0.433594)"/>
</clipPath>
</defs>
</svg>
