<svg width="200" height="54" viewBox="0 0 200 54" fill="none" xmlns="http://www.w3.org/2000/svg">
<g clip-path="url(#clip0_248_9227)">
<path d="M71.0553 45.3421L70.8432 45.2057C70.1313 44.4938 69.1392 44.1909 67.8214 44.2666C66.7157 44.3348 65.8448 44.774 65.1783 45.1754C65.1783 45.1679 65.1783 45.1527 65.1783 45.1451C65.1783 44.7968 65.2162 44.4257 65.254 44.0621C65.2919 43.691 65.3298 43.3199 65.3298 42.964C65.3298 42.608 65.2919 42.2597 65.1632 41.9643C65.1329 41.8886 65.0647 41.8431 64.9738 41.8431C64.6179 41.8507 63.9211 42.093 63.7545 42.2445L63.6636 42.449C63.6636 42.8428 63.5727 43.941 63.4818 44.0773L63.4364 44.2136C63.2849 45.7889 63.2849 47.1673 63.4213 48.3563C63.4364 48.4775 63.6636 48.6517 63.8454 48.7198C64.0423 48.788 64.6482 48.6289 64.9965 48.5002L65.1253 48.4775C65.2389 48.4623 65.2995 48.3714 65.2995 48.2503L65.307 47.9095C65.557 46.887 66.5794 45.6601 67.7836 45.4784C68.4652 45.3723 69.0029 45.5465 69.427 46.0085C69.4876 46.0918 69.6088 46.8265 69.1619 47.6747C68.8287 48.3033 68.1547 48.8334 67.2761 49.1591C66.4431 49.4772 65.5267 49.6059 64.3907 49.568C64.3452 49.5378 63.3304 48.8486 63.3304 48.8486C62.4291 48.22 61.3158 47.4323 60.301 47.0461C60.1268 46.9779 59.8087 46.7129 59.6118 46.5538L59.5058 46.4705C58.9226 46.0009 57.8093 45.2587 56.9232 44.668C56.9232 44.668 56.5218 44.3954 56.4461 44.3424C56.4461 44.3121 56.4461 44.2439 56.4461 44.2439C56.4688 44.2136 57.0293 43.8804 57.0293 43.8804C57.8169 43.4184 58.1728 43.1988 58.2562 43.0776C58.241 43.0927 58.3622 43.017 58.3622 43.017L60.3086 41.9188C62.1792 40.8964 64.2922 39.7301 65.3979 38.579L65.4509 38.4048L65.4737 38.2457C65.5494 38.0034 65.5494 37.814 65.4888 37.5944C65.4737 37.5338 65.4131 37.4581 65.3373 37.4429C64.4664 37.3596 63.3531 37.8746 62.3307 38.8289C62.1035 39.0409 61.9066 39.147 61.7021 39.2606L61.543 39.3514C60.4222 39.9876 57.8926 41.5629 56.5673 42.4036C56.6506 40.9797 56.9157 38.9576 57.2413 37.2687L57.2034 37.0643L57.0671 36.8068L56.9611 36.625H56.9308C56.6657 36.4811 56.4537 36.5341 56.2946 36.5796L56.0296 36.678L55.6736 36.8068C55.6054 36.8219 55.5524 36.8673 55.5297 36.9279C54.9011 38.4578 54.371 40.9722 54.2422 42.9791C52.9775 42.1763 51.8111 41.6008 51.2356 41.3205H51.2204L51.1522 41.2978C50.9478 41.2751 50.6978 41.1161 50.4555 40.9722C50.4328 40.957 49.9708 40.6617 49.9708 40.6617L49.2362 40.1921L49.0392 40.1467C48.7212 40.1997 48.1153 40.6086 47.9411 40.8889C47.9184 40.9267 47.9108 40.9646 47.9108 41.01C47.9108 41.0706 47.9259 41.1236 47.9411 41.1842L47.9714 41.3357L48.0093 41.4266C48.3652 41.7901 49.2513 42.3884 50.1223 42.858L51.1295 43.3957L52.6745 44.2363L52.9396 44.4484L53.1213 44.5544C53.1213 44.5544 53.1441 44.5696 53.1516 44.5771C52.7427 44.8498 50.3419 46.4554 50.3419 46.4554L48.8651 47.4323C48.7287 47.5308 48.1456 47.7883 48.0168 47.8413C47.6987 47.97 47.4564 48.1745 47.3504 48.3866L47.3125 48.4699L47.3504 48.5229L47.464 48.6062L47.6154 48.7047L47.7821 48.8183L47.9335 48.841C48.191 48.8486 48.5773 48.7047 49.2967 48.3866C49.9556 48.0912 51.7505 47.0082 52.523 46.5462L52.8487 46.3493C52.985 46.3569 53.1289 46.2433 53.2652 46.1448C53.4167 46.0237 53.7499 45.8192 53.9544 45.7283C53.9544 45.7283 54.0756 45.6601 54.1892 45.5996C54.1892 45.6298 54.1892 45.6904 54.1892 45.6904C54.2271 48.0382 54.3558 49.7422 54.6133 51.06V51.0827L54.6436 51.1358C54.7724 51.3175 54.9163 51.878 55.045 52.3702L55.3404 53.3472L55.4237 53.4381C55.5903 53.5517 56.0977 53.7486 56.4385 53.7032H56.5218L56.5748 53.5744C56.6051 53.4305 56.6127 53.2866 56.6127 53.1276C56.6127 52.9458 56.5976 52.7489 56.5824 52.5066L56.5597 52.1506C56.4537 50.5147 56.3476 48.1442 56.3476 46.5765V46.4478C56.6279 46.622 57.8472 47.3869 57.8472 47.3869C59.9223 48.735 63.0502 50.7647 64.9435 51.3024C65.042 51.3327 65.148 51.3024 65.2162 51.2418L65.504 51.0525L65.557 51.0297C65.663 50.9767 65.7387 50.7949 65.7539 50.598C67.3519 50.5147 69.5709 49.9013 70.7599 48.4093C71.2219 47.8261 71.4264 47.1218 71.4264 46.5084C71.4264 46.0085 71.2901 45.5768 71.0402 45.3421" fill="#FCAF16"/>
<path d="M112.562 49.2691H105.602V46.8153H112.562V49.2691ZM114.016 45.543H104.141V50.549H114.016V45.543Z" fill="white"/>
<path d="M113.954 42.8378V38.9375H104.207V40.1947H112.485V42.8454H103.094V44.1102H115.06V42.8378H113.954Z" fill="white"/>
<path d="M127.997 44.9618V43.6971H116.031V44.9618H118.765V46.3326C117.705 46.7795 117.023 47.4914 117.023 48.4835C117.023 50.2784 119.25 51.1797 121.999 51.1797C124.748 51.1797 126.975 50.2784 126.975 48.4835C126.975 47.499 126.308 46.787 125.263 46.3478V44.9618H127.982H127.997ZM120.235 44.9618H123.817V45.9388C123.256 45.8404 122.65 45.7949 122.014 45.7949C121.378 45.7949 120.787 45.8404 120.242 45.9388V44.9694L120.235 44.9618ZM125.453 48.4911C125.453 49.4832 123.908 49.93 122.014 49.93C120.121 49.93 118.576 49.4908 118.576 48.4911C118.576 47.4914 120.113 47.0597 122.014 47.0597C123.915 47.0597 125.453 47.5065 125.453 48.4911ZM122.022 43.1518C124.461 43.1518 126.445 42.3187 126.445 40.6677C126.445 39.0167 124.468 38.1836 122.022 38.1836C119.576 38.1836 117.599 39.0015 117.599 40.6677C117.599 42.3339 119.576 43.1518 122.022 43.1518ZM122.022 39.4256C123.612 39.4256 124.907 39.8119 124.907 40.6677C124.907 41.5235 123.612 41.9097 122.022 41.9097C120.431 41.9097 119.136 41.5235 119.136 40.6677C119.136 39.8119 120.424 39.4256 122.022 39.4256Z" fill="white"/>
<path d="M138.416 48.2554V39.1445H129.138V40.4017H136.946V48.2554H128.32V49.5126H139.514V48.2554H138.416Z" fill="white"/>
<path d="M140.695 44.5348V45.7844H145.989V46.822H147.481V45.7844H152.654V44.5348H140.688H140.695ZM150.222 47.1931H143.119V46.3373H141.687V50.533H151.669V46.3373H150.23V47.1931H150.222ZM150.222 49.2909H143.111V48.4124H150.222V49.2909ZM151.601 42.6944H143.141V42.0204H151.571V38.9531H141.71V40.1876H150.139V40.8313H141.71V43.9365H151.593V42.702L151.601 42.6944Z" fill="white"/>
<path d="M89.5703 38.9334H95.311C98.045 38.9334 99.4688 39.8422 99.4688 41.8188C99.4688 43.2275 98.4843 44.2045 97.1741 44.462V44.5074C99.0523 44.7271 99.9384 45.9615 99.9384 47.355C99.9384 49.0969 98.6585 50.6041 95.4928 50.6041H89.5703V38.9258V38.9334ZM91.4334 43.8485H95.2201C96.6288 43.8485 97.6664 43.3184 97.6664 42.0688C97.6664 40.9858 97.1513 40.2587 95.0081 40.2587H91.4334V43.8485ZM91.4334 49.2787H95.1065C97.3861 49.2787 97.992 48.3926 97.992 47.2566C97.992 45.9161 97.0605 45.1739 95.0081 45.1739H91.4334V49.2787Z" fill="white"/>
<path d="M76.9375 38.9333H78.8081V44.159L85.079 38.9333H87.7221L81.0878 44.2045L88.275 50.6116H85.6318L78.8081 44.3559V50.6116H76.9375V38.9333Z" fill="white"/>
<path d="M2.4538 21.044H0V4.24609H2.4538V21.044ZM2.71887 12.0165C4.80158 9.58539 7.05089 6.90438 8.84581 4.24609H11.6707C9.83036 6.90438 7.77037 9.63083 5.71797 12.0619L12.7007 21.044H9.72433L2.7113 12.0165H2.71887Z" fill="white"/>
<path d="M21.7428 11.8117C23.4468 12.2586 24.7192 13.8414 24.7192 16.0074C24.7192 19.0217 22.8334 21.1423 18.2817 21.1423C17.229 21.1423 15.1539 20.9832 13.5938 20.7181V4.98049C15.169 4.32917 16.8806 3.86719 18.365 3.86719C21.561 3.86719 23.924 5.45004 23.924 8.29009C23.924 9.9411 22.9621 11.3043 21.7352 11.8193L21.7428 11.8117ZM18.153 11.0998C19.9024 11.0998 21.3944 10.0699 21.3944 8.3734C21.3944 6.67694 19.9479 5.78327 18.418 5.78327C17.4789 5.78327 16.5777 6.02562 16.0551 6.20739V11.0998H18.1605H18.153ZM22.1821 15.9469C22.1821 13.8717 20.3644 12.9781 18.5695 12.9781H16.0551V19.0293C16.8655 19.1429 17.744 19.211 18.615 19.211C20.6522 19.211 22.1821 18.3401 22.1821 15.9469Z" fill="white"/>
<path d="M33.6015 21.044H31.125V4.24609H33.6015V21.044Z" fill="white"/>
<path d="M36.25 21.044V9.91863C37.7798 9.31275 40.1655 8.57812 41.9604 8.57812C44.8913 8.57812 46.2773 10.1004 46.2773 12.6451V21.044H43.9143V12.7132C43.9143 10.835 43.0358 10.4336 41.6802 10.4336C40.8017 10.4336 39.4687 10.6987 38.6129 10.9259V21.044H36.25Z" fill="white"/>
<path d="M48.6406 21.044V9.91863C50.1705 9.31275 52.5561 8.57812 54.351 8.57812C57.2819 8.57812 58.6679 10.1004 58.6679 12.6451V21.044H56.305V12.7132C56.305 10.835 55.4264 10.4336 54.0708 10.4336C53.1923 10.4336 51.8593 10.6987 51.0035 10.9259V21.044H48.6406Z" fill="white"/>
<path d="M72.1749 15.008C72.1749 19.2037 69.7439 21.4606 66.2828 21.4606C62.8217 21.4606 60.3906 19.2037 60.3906 15.008C60.3906 10.8123 62.8444 8.57812 66.2828 8.57812C69.7211 8.57812 72.1749 10.8123 72.1749 15.008ZM69.7893 15.008C69.7893 12.2588 68.5397 10.3806 66.2828 10.3806C64.0259 10.3806 62.7763 12.2588 62.7763 15.008C62.7763 17.7572 63.9123 19.6581 66.2828 19.6581C68.6533 19.6581 69.7893 17.7572 69.7893 15.008Z" fill="white"/>
<path d="M77.1331 21.045C75.5351 18.0989 73.6721 12.3355 72.6875 8.98047H75.0731C75.9895 12.5324 77.2164 15.9481 78.2691 18.5836C79.5642 16.5918 80.8063 12.6385 81.2228 8.98047H83.3888C82.9723 12.8657 81.5485 17.9626 79.1855 21.045H77.1255H77.1331Z" fill="white"/>
<path d="M91.5351 12.9101C91.5351 11.3879 90.7248 10.4109 88.998 10.4109C87.5969 10.4109 86.7032 10.5472 85.6051 10.6305L85.4309 9.09312C86.6124 8.82805 88.1422 8.57812 89.1722 8.57812C92.2167 8.57812 93.8829 9.98679 93.8829 13.2055V20.1731C92.4364 20.7563 90.2703 21.4 88.4754 21.4C85.7187 21.4 83.9844 19.6808 83.9844 17.2194C83.9844 14.7581 85.7111 13.0389 88.4754 13.0389C89.4827 13.0389 90.6187 13.304 91.5427 13.6448V12.9101H91.5351ZM91.5124 15.3261C90.5733 15.0837 89.5206 14.8565 88.6648 14.8565C87.3091 14.8565 86.3473 15.7956 86.3473 17.227C86.3473 18.6584 87.2864 19.5975 88.6648 19.5975C89.6493 19.5975 90.5733 19.4612 91.5124 19.2188V15.3337V15.3261Z" fill="white"/>
<path d="M99.5653 5.5857V9.20581H102.519V11.0386H99.5653V17.6275C99.5653 18.968 100.262 19.6345 101.292 19.6345C101.777 19.6345 102.208 19.5436 102.693 19.4754L102.996 21.0583C102.383 21.2855 101.618 21.4597 100.913 21.4597C98.8534 21.4597 97.1721 20.051 97.1721 17.7032V11.0234H95.4453V9.19067H97.1721V5.82048L99.5577 5.57812L99.5653 5.5857Z" fill="white"/>
<path d="M104.273 5.3378C104.273 4.30781 105.016 3.66406 105.917 3.66406C106.818 3.66406 107.56 4.31538 107.56 5.3378C107.56 6.36022 106.818 7.01153 105.917 7.01153C105.016 7.01153 104.273 6.36022 104.273 5.3378ZM104.69 21.0376V8.97306H107.098V21.0376H104.69Z" fill="white"/>
<path d="M120.886 15.008C120.886 19.2037 118.455 21.4606 114.994 21.4606C111.533 21.4606 109.102 19.2037 109.102 15.008C109.102 10.8123 111.555 8.57812 114.994 8.57812C118.432 8.57812 120.886 10.8123 120.886 15.008ZM118.5 15.008C118.5 12.2588 117.251 10.3806 115.001 10.3806C112.752 10.3806 111.495 12.2588 111.495 15.008C111.495 17.7572 112.631 19.6581 115.001 19.6581C117.372 19.6581 118.5 17.7572 118.5 15.008Z" fill="white"/>
<path d="M122.578 21.044V9.91863C124.108 9.31275 126.493 8.57812 128.288 8.57812C131.219 8.57812 132.598 10.1004 132.598 12.6451V21.044H130.235V12.7132C130.235 10.835 129.356 10.4336 128 10.4336C127.122 10.4336 125.789 10.6987 124.933 10.9259V21.044H122.57H122.578Z" fill="white"/>
<path d="M160.828 2.38564C160.828 0.96183 161.759 0 163.214 0C164.668 0 165.607 0.96183 165.607 2.38564V13.3823C165.607 16.2375 167.205 17.5174 169.946 17.5174C172.688 17.5174 174.286 16.2375 174.286 13.3823V2.38564C174.286 0.96183 175.217 0 176.672 0C178.126 0 179.057 0.96183 179.057 2.38564V13.0036C179.057 18.767 175.505 21.3647 169.939 21.3647C164.372 21.3647 160.82 18.7746 160.82 13.0036V2.38564H160.828Z" fill="white"/>
<path d="M182.469 2.87273C182.469 0.74459 183.574 0.078125 185.263 0.078125H191.61C195.101 0.078125 199.266 0.865765 199.266 5.49315C199.266 7.27292 198.305 8.9618 196.32 9.74186V9.80245C198.532 10.3856 199.994 11.9533 199.994 14.8388C199.994 19.239 196.411 21.0415 192.276 21.0415H185.256C183.567 21.0415 182.461 20.375 182.461 18.2469V2.87273H182.469ZM187.247 8.69673H191.178C193.42 8.69673 194.503 7.79548 194.503 6.1369C194.503 4.12993 192.814 3.57706 191.034 3.57706H187.247V8.7043V8.69673ZM187.247 17.3759H191.261C193.124 17.3759 195.222 16.9972 195.222 14.5813C195.222 12.1654 193.011 11.7261 190.678 11.7261H187.24V17.3759H187.247Z" fill="white"/>
<path d="M143.966 2.38564C143.966 0.96183 143.035 0 141.573 0C140.111 0 139.188 0.96183 139.188 2.38564V18.9715C139.188 20.3953 140.119 21.3572 141.573 21.3572C143.027 21.3572 143.966 20.3953 143.966 18.9715V2.38564Z" fill="#FEBE0E"/>
<path d="M155.026 0C153.572 0 152.641 0.96183 152.641 2.38564V18.9715C152.641 20.3953 153.572 21.3572 155.026 21.3572C156.48 21.3572 157.412 20.3953 157.412 18.9715V2.38564C157.412 0.96183 156.48 0 155.026 0Z" fill="#58C5C7"/>
<path d="M144.138 12.4494L155.029 7.82954V3.91406L142.707 9.05644C142.017 9.34424 141.578 10.0107 141.578 10.7529C141.578 12.0783 142.926 12.9644 144.138 12.4494Z" fill="#58C5C7"/>
<path d="M141.578 17.4547L153.93 12.2139C154.597 11.9337 155.029 11.2748 155.029 10.5553C155.029 9.26023 153.711 8.38928 152.522 8.8967L141.578 13.5392V17.4547Z" fill="#FEBE0E"/>
</g>
<defs>
<clipPath id="clip0_248_9227">
<rect width="200" height="53.7034" fill="white"/>
</clipPath>
</defs>
</svg>
