<svg width="25" height="24" viewBox="0 0 25 24" fill="none" xmlns="http://www.w3.org/2000/svg">
<path d="M8.8756 15.6172L3.21875 21.274M12.1933 6.64267L10.6324 8.20356C10.5051 8.33088 10.4414 8.39454 10.3689 8.44513C10.3045 8.49003 10.2351 8.52719 10.162 8.55585C10.0797 8.58814 9.99139 8.6058 9.81482 8.64111L6.15036 9.37401C5.19805 9.56447 4.7219 9.6597 4.49914 9.91075C4.30507 10.1295 4.21645 10.4222 4.25661 10.7118C4.3027 11.0442 4.64606 11.3876 5.33277 12.0743L12.4185 19.16C13.1052 19.8468 13.4486 20.1901 13.781 20.2362C14.0707 20.2764 14.3634 20.1877 14.5821 19.9937C14.8331 19.7709 14.9283 19.2948 15.1188 18.3425L15.8517 14.678C15.887 14.5014 15.9047 14.4131 15.937 14.3308C15.9656 14.2578 16.0028 14.1883 16.0477 14.1239C16.0983 14.0514 16.1619 13.9877 16.2893 13.8604L17.8501 12.2995C17.9316 12.2181 17.9723 12.1774 18.017 12.1419C18.0567 12.1103 18.0988 12.0818 18.1429 12.0566C18.1925 12.0283 18.2454 12.0056 18.3512 11.9603L20.8456 10.8913C21.5733 10.5794 21.9372 10.4234 22.1024 10.1715C22.247 9.9511 22.2987 9.6826 22.2463 9.42433C22.1864 9.12899 21.9065 8.84907 21.3467 8.28925L16.2036 3.14611C15.6437 2.58629 15.3638 2.30637 15.0685 2.2465C14.8102 2.19414 14.5417 2.24585 14.3214 2.39039C14.0694 2.55566 13.9134 2.91951 13.6016 3.64721L12.5326 6.14157C12.4872 6.24739 12.4645 6.30029 12.4362 6.34991C12.411 6.39398 12.3825 6.43607 12.3509 6.47582C12.3154 6.52056 12.2747 6.56126 12.1933 6.64267Z" stroke="#FCAF17" stroke-width="1.5" stroke-linecap="round" stroke-linejoin="round"/>
</svg>
